<svg xmlns="http://www.w3.org/2000/svg" data-name="Layer 1" viewBox="0 0 307.5 313.83">
  <path d="M65.75 90.05c-1.52-8.58-3.03-16.96.24-25.53 7.66-.5 14.34 2.79 21.77 4.12 20.13-14.51 43.1-21.47 67.95-20.93 24.84.54 47.46 8.52 67.2 23.85 6.33-1.55 12.44-3.39 18.55-4 2.38 1.85 2.67 4.11 2.66 6.5-.02 6.13.59 12.28-1.29 18 9.22 13.64 15.3 27.95 17.44 44 2.15 16.09-.42 31.48-5.04 46.86.5 1.75 3.53 2.16 2.79 4.78-1.16 2.15-3.17 1.54-5.22 1.4-1.79 4.03-3.59 8.07-5.38 12.1 1.88 1.38 4.15 2.15 5.57 4.1-.26 1.69-1.33 2.62-2.88 3.36-1.7-.83-3.47-1.69-5.46-2.66-3.11 4.92-6.16 9.92-9.78 14.55-5.53 7.07-11.45 13.69-18.37 19.5-7.02 5.9-14.41 11.14-22.61 15.12-8.89 4.32-18.22 7.27-28.1 8.76-7.16 1.08-14.3 1.19-21.34.57-9.48-.84-18.65-3.5-27.47-7.32-16.02-6.95-29.08-17.77-40.51-30.68-5.81-6.56-10.9-13.71-14.98-21.69-4.08 1.14-7.33 3.75-10.96 5.58-.74-.36-1.48-.71-2.12-1.02-.72-1.02-.49-2.01-.35-3.2 3.01-2.72 7.09-3.86 10.57-6.03-1.65-3.76-3.31-7.52-4.96-11.25-3.72-1.2-6.41 3.23-10.38 1.37l-1-2.15c1.9-3.54 5.91-3.03 8.64-5.14.48-2.83-1.31-5.25-1.94-7.91-2.29-9.53-3.15-19.15-3.23-28.96-.12-14.22 3.74-27.39 9.65-39.99 2.71-5.78 6.01-11.43 10.34-16.06Zm-9.36 91.48c5.94-1.7 11.36-2.95 16.78-4.24 8.05-1.92 16.23-2.7 24.37-3.51 7.26-.72 14.66-.15 21.99-.2 1.77-.01 3.19.61 4.37 1.77.48 1.66-.32 2.61-1.79 3.45-10.59-.1-21.42-.55-32.14.99-10.67 1.53-21.3 3.41-31.79 6.81 1.45 4.1 2.7 7.92 5.4 10.99 19.89-8.92 40.35-14.49 61.61-16.13 1.01 1.31 1.71 2.23 1.72 3.45-1.96 1.68-1.96 1.69-2.76 1.81-7.64 1.07-15.25 2.21-22.82 3.83-12.24 2.62-23.91 6.73-35.31 11.82.1.72.02 1.3.27 1.67 3.63 5.53 7.27 11.02 11.54 16.13 4.08 4.88 8.42 9.47 13.15 13.62 8.74 7.68 18.58 13.81 29.26 18.44 10.18 4.41 20.79 7.29 32 7.37 3.64.02 7.23-.37 10.85-.79 9.13-1.05 17.64-3.92 25.89-7.67 16.13-7.33 29.29-18.56 40.73-31.88 3.95-4.61 7.3-9.72 10.62-15.4-20.14-10.6-41.38-16.27-63.84-18.43-1-.59-2.09-1.33-2.4-2.75.22-1.12.91-1.76 2.67-2.4 22.71 1.49 44.76 8.05 65.91 18.47 2.38-3.66 4.15-7.32 5.63-11.63-22.66-8.56-45.98-10.51-69.45-9.3q-2.13-2.66-.26-5.19c24.51-2.35 48.33 1.77 71.73 9.29 9.12-28.99 7.24-56.25-8.69-82.16-2.05 6.09-2.92 12.34-6.02 17.66-.95.16-1.63.36-2.22-.09-.52-.4-.97-.87-1.81-1.64 3.54-13.63 8.61-27.19 7.19-42.02-4.04-.05-7.71 1-11.22 2.09-9.08 2.82-18.78 4.61-24.8 12.65-2.19.56-3.71.35-4.61-1.62.55-2.73 2.43-4.58 4.61-6.14 2.96-2.13 6.26-3.66 9.52-5.29 1.24-.62 2.98-.68 3.57-2.36-8.53-6.37-16.65-10.24-29.03-14.57-10.24-3.58-20.79-4.97-31.52-5.21-10.87-.24-21.59.86-32.04 4.22-14.33 4.62-25.58 9.9-28.75 13.83 10.65 5.25 12.71 6.87 15.19 11.91-.37.73-.75 1.46-1.05 2.06-1.14.5-2.1.49-3.35.05-1.64-2.2-3.79-4.23-6.39-5.7-8.93-5.06-18.71-7.55-28.68-9.84-.17 2.03-1.37 3.48-1.04 5.17.72 3.59.43 7.31 1.11 10.83 1.64 8.53 3.66 16.99 6.71 25.16.11.28-.03.66-.06.99-.85 1.45-1.95 2.26-4.24 1.2-2.62-4.53-3.5-10.22-5.7-16.15-8.98 12.51-13.98 26.05-15.62 40.48-1.69 14.85-.2 29.68 4.99 44.1Z"/>
  <path d="M56.4 181.54c-5.19-14.42-6.68-29.25-4.99-44.1 1.64-14.43 6.64-27.97 15.62-40.48 2.2 5.92 3.08 11.61 5.7 16.15 2.29 1.05 3.39.24 4.24-1.2.02-.33.16-.7.06-.99-3.05-8.17-5.07-16.64-6.71-25.16-.68-3.53-.39-7.25-1.11-10.83-.34-1.69.86-3.14 1.04-5.17 9.97 2.29 19.75 4.79 28.68 9.84 2.6 1.47 4.75 3.51 6.39 5.7 1.24.44 2.21.45 3.35-.05.3-.6.68-1.33 1.05-2.06-2.48-5.04-4.54-6.66-15.19-11.91 3.17-3.93 14.42-9.22 28.75-13.83 10.45-3.37 21.17-4.46 32.04-4.22 10.73.24 21.28 1.62 31.52 5.21 12.37 4.33 20.5 8.2 29.03 14.57-.58 1.68-2.32 1.74-3.57 2.36-3.25 1.63-6.55 3.16-9.52 5.29-2.17 1.56-4.06 3.41-4.61 6.14.9 1.96 2.42 2.18 4.61 1.62 6.02-8.04 15.72-9.83 24.8-12.65 3.51-1.09 7.18-2.14 11.22-2.09 1.42 14.83-3.64 28.39-7.19 42.02.84.77 1.29 1.25 1.81 1.64.59.45 1.27.25 2.22.09 3.09-5.32 3.96-11.58 6.02-17.66 15.93 25.91 17.81 53.17 8.69 82.16-23.4-7.53-47.22-11.64-71.73-9.29q-1.87 2.53.26 5.19c23.47-1.21 46.79.75 69.45 9.3-1.48 4.31-3.26 7.96-5.63 11.63-21.15-10.42-43.19-16.99-65.91-18.47-1.77.64-2.46 1.28-2.67 2.4.31 1.42 1.4 2.16 2.4 2.75 22.46 2.16 43.7 7.83 63.84 18.43-3.32 5.68-6.66 10.79-10.62 15.4-11.44 13.32-24.6 24.55-40.73 31.88-8.25 3.75-16.76 6.62-25.89 7.67-3.63.42-7.22.82-10.85.79-11.21-.08-21.82-2.96-32-7.37-10.68-4.62-20.52-10.75-29.26-18.44-4.73-4.16-9.08-8.75-13.15-13.62-4.27-5.11-7.91-10.6-11.54-16.13-.24-.37-.16-.95-.27-1.67 11.4-5.09 23.07-9.2 35.31-11.82 7.56-1.62 15.18-2.76 22.82-3.83.8-.11.8-.13 2.76-1.81-.01-1.23-.71-2.14-1.72-3.45-21.26 1.64-41.72 7.2-61.61 16.13-2.7-3.07-3.95-6.89-5.4-10.99 10.49-3.41 21.12-5.28 31.79-6.81 10.72-1.54 21.54-1.09 32.14-.99 1.47-.84 2.27-1.79 1.79-3.45-1.17-1.17-2.6-1.78-4.37-1.77-7.33.05-14.73-.52-21.99.2-8.14.81-16.32 1.6-24.37 3.51-5.42 1.29-10.84 2.54-16.78 4.24Zm153.7 41.96c-.64.48-1.18.86-1.69 1.26-7.32 5.73-15.2 10.5-23.96 13.66-5.85 2.11-11.84 3.94-17.99 4.88-5.04.77-10.28 1.58-15.26.99-4.37-.52-8.82-.44-13.21-1.52-7.34-1.8-14.69-3.37-21.48-6.9-4.54-2.36-9.26-4.37-13.32-7.56-1.16-.91-2.46-1.13-3.72-.53-1.37.65-1.82 1.85-1.05 3.83 20.55 14.18 43.46 20.98 68.75 16.91 17.27-2.78 33.02-9.57 45.91-21.16.17-2.56-.85-3.42-2.98-3.86Zm-42.33-5.55c1.92-1.17 3.15-1.99 3.19-3.77-4.99-5.98-11.43-10.64-15.7-17.14v-9.44c3.39-5.82 6.69-11.5 9.9-17.02-.86-1.49-1.7-2.48-2.95-2.88h-18.44c-1.27.74-2.34 1.5-2.71 3.16.98 1.72 1.96 3.62 3.09 5.43q5.98 9.52 5.91 20.8c0 .32-.09.65-.15.97-3.88 5.84-9.49 10.15-13.84 15.39q.33 3.19 3.39 4.27c4.24-4.81 8.55-9.78 13.67-14.49 4.98 5.01 9.74 9.81 14.64 14.74Zm-31.11-73.54q3.01.11 4.44-2.34c-.71-2.85-2.39-4.99-4.7-6.41-8.18-.9-15.98 1.23-23.72.99q-1.88 2.6-.05 4.83c7.49 1.18 14.81-1.28 21.45-.78 2.14 1.05 1.53 2.84 2.59 3.71Zm34.1-3.61c7.72-.98 15.37 2.09 22.97.51.77-2.03.66-3.53-1.46-4.7-7.62.16-15.44-1.91-23.44-.94-3.76 3.35-5.04 6.84-3.16 8.74 1.12.4 2.23.49 3.57-.43 1.04-.56.51-2.31 1.53-3.19Z" style="fill:#fff"/>
  <path d="M210.1 223.5c2.13.44 3.15 1.3 2.98 3.86-12.9 11.59-28.65 18.38-45.91 21.16-25.29 4.08-48.19-2.72-68.75-16.91-.78-1.98-.32-3.18 1.05-3.83 1.26-.6 2.56-.38 3.72.53 4.06 3.18 8.78 5.2 13.32 7.56 6.79 3.53 14.14 5.09 21.48 6.9 4.39 1.08 8.83 1.01 13.21 1.52 4.99.59 10.22-.22 15.26-.99 6.15-.94 12.14-2.76 17.99-4.88 8.76-3.16 16.64-7.93 23.96-13.66.51-.4 1.05-.78 1.69-1.26ZM167.76 217.95c-4.9-4.93-9.66-9.72-14.64-14.74-5.12 4.71-9.44 9.68-13.67 14.49q-3.06-1.07-3.39-4.27c4.34-5.24 9.96-9.54 13.84-15.39.05-.32.14-.65.14-.97q.09-11.29-5.91-20.8c-1.13-1.8-2.11-3.7-3.09-5.43.37-1.66 1.44-2.42 2.71-3.16h18.44c1.25.4 2.09 1.39 2.95 2.88-3.21 5.52-6.51 11.2-9.9 17.02v9.44c4.27 6.5 10.72 11.16 15.7 17.14-.04 1.78-1.26 2.6-3.19 3.77ZM136.65 144.41c-1.05-.86-.44-2.66-2.59-3.71-6.63-.5-13.96 1.97-21.45.78q-1.83-2.24.05-4.83c7.75.24 15.54-1.89 23.72-.99 2.3 1.42 3.98 3.55 4.7 6.41q-1.42 2.46-4.44 2.34ZM170.76 140.8c-1.02.88-.5 2.63-1.53 3.19-1.34.91-2.45.83-3.57.43-1.88-1.9-.59-5.39 3.16-8.74 8-.98 15.82 1.1 23.44.94 2.12 1.16 2.23 2.66 1.46 4.7-7.6 1.58-15.25-1.5-22.97-.51Z"/>
</svg>