<svg xmlns="http://www.w3.org/2000/svg" viewBox="0 0 300 417"><path fill="#ecce41" fill-rule="evenodd" d="M207 6q.2.9 2 1c1 0 2.5.6 3.2 1.3s2.6 2 4 3c2.8 1.8 2.9 1.8 1.6-.2S210.1 5 208.1 5q-1 .1-1.1 1m0 7q-1 1.8 0 6.7a82 82 0 0 1 1.2 8.8q.3 3.9 1.6 4 1.2.1 2 1.3c1 1.6.2 7.3-1 6.6a1 1 0 0 1-.3-1.5q.6-.8-.4-.9c-1.5 0-2.6 2.3-1.3 2.8.7.2 1.2 1.3 1.2 2.4q0 2-1.5 1.5c-1.7-.7-3.2 1.2-1.7 2.2q1 .6-.4 1.9-1.3 1-1.4.2t-1-1c-.6 0-1 1.1-1 2.5q0 2.5 1.5 2.5 1.4.1 1.5 1t1.8 1c1 0 2.3.5 3 1.2q1.4 1.5 1.2 0 0-1.3 2-.7 1.9.6 2-.6-.1-1.2 1.6.2c1.4 1.2 1.4 1.4-.2 2.6s-1.6 1.3 0 1.3q1.4.1 1.6 1.4c0 1.6 5.3 3.1 7.1 2q1.1-.5.7.7c-.2.8-2.1 1.8-4.1 2.3-4.2 1-4.8 3.2-1.4 4.5 1.2.5 3 2 4 3.1l1.9 2.2 1.4-2c.8-1.3 2.2-2.2 3-2.2 1.3 0 1.5-.8 1.8-6.5.1-2 4.6-3.6 4.6-1.6q.1 1 1.5.5 1.5-.7 1.5 1.5 0 2 1 2.1c1.7 0 1.1-4.7-.7-5.4q-1.8-.7-.5-1.8c.7-.7 1.2-2.4 1.2-3.9 0-3.3 4.2-8 6-6.9.8.5 1.5 2 1.5 3.2.1 1.3 1 3.8 1.9 5.6 2 3.8 1.3 7.2-1.5 7.2-1.5 0-1.9.7-1.9 3.2q0 3.6-1.2 2a5 5 0 0 0-3.2-1.2c-2 0-2 .1-.3 1.4s1.7 1.5-.8 4q-4.5 4.5-3.1 1.1.4-1.3-.7-1.5-1-.1.6-1c1.7-1 2.4-4 1-4-.8 0-1.3.6-4 4.5-1.8 2.5-7.5 5.6-8.6 4.8-1.8-1.4-6.5-1.4-7.3-.1q-.8 1.2 1 .5 1.5-.5 1.6.3 0 1-1 1-1 .1-1 1.8.2 2.2-2-.7c-1.5-1.7-2.6-2.2-4.4-1.7-2.3.6-2.4.4-2-2.8.6-3.2-.9-5.7-2.4-4.1q-.4.6.7 1.5c1.7 1 .7 4-1.4 4q-1.3.1-1.5 1c0 .6-1.3.4-3-.5q-2.8-1.4-3.5-.5c-.3.6-2.2 1-4 1q-3.6 0-3.5 1.4t1 1.8q1 .5.5 2-.7 1.6-1.4 1.3c-1.1-.6-2.9 5.8-2.2 7.8.6 1.7.8 1.7 2.6-.3 1-1.1 2-2.8 2.1-3.7q.6-3.6 6.2-2.9c1.7.3 3.2 0 3.2-.5q.2-.8 2-.9 1.8.1 2 .8c0 .5 1.3.8 3 .7 2.6-.2 2.9.1 2.7 2.6-.2 2.1-.9 3-3.4 3.7-1.8.6-3.3.7-3.3.2 0-1.1-5.5-1.7-7.9-.8-2.6 1-2.7 2.8-.2 2.8q1.8 0 2.6 1 .6.8 2.3 1c6.9 0 9.7.9 9.4 2.6q-1 4.6-7.9 3.8c-3.3-.5-4.7-.2-7.2 1.7-3.5 2.6-3.4 4 0 1.5 2.7-1.8 9.4-2.2 10.5-.5.3.6-2 6.1-5.1 12.2l-9.8 19.5c-2.3 4.5-4.7 8.2-5.4 8.2q-1.2 0-1.3-.9c0-1.7-15.8-6-17.8-4.7q-1 .5-1.7-.4c-.4-.6-2.5-1-4.8-1l-6.7-.1c-4-.2-10.4.6-11.7 1.4-.7.5-1.8.5-2.5.1q-1-.7-.3.6 1 1.4-2.4.5c-2.6-.6-3-.4-2.5 1q.7 1.6-.7 1.5-4-.6-3.7 1.2.1 1.2-2 1.6c-1.2.2-2.2-.1-2.2-.7 0-1.6-1-1.4-4.9 1-3.2 2-3.3 2-1.6 4q3 3.1-1.6.9c-2.1-1.2-2.6 0-.7 1.8q1.3 1.2.1 2.3c-.8.8-2.7-.9-6.7-6-3.3-4-6.7-7.2-8.1-7.5-2.6-.7-8.5 1.7-8.5 3.3 0 .5-1.4 2.3-3.2 4-1.7 1.7-2.8 3.4-2.4 3.8s1.7-.6 3-2.2l2.3-2.9 3.8 2.4c3.1 2 3.7 2 3.2.7-1-2.8.3-1.9 1.5 1 1.1 2.7 1.2 2.7 1.5.6q.5-2.1 1.4-2.3.9.2.4 2-.7 2 1.2 2.7a6 6 0 0 1 2.7 2q.7 1.5 1.5.5c.8-1.3 7 1.5 7.1 3.2 0 .6 1.4 2.6 3 4.4q2.8 3.7 3.3 1.9c.3-.9-.7-2.7-2.3-4.4-1.6-1.5-3-3-3-3.3 0-.5 5.8-.4 7 0q.6.2 1.5.1.8 0-1 1.4-1.6 1.4-1.3 2c.8.9 4.8-1.3 4.8-2.5q.1-1 1.1-1 1.1 0 .6 3c-.4 1.7-.2 3 .3 3q1 0 1-1c0-.6 1.2-1 2.7-1 1.4 0 2.3.3 1.9.8a3 3 0 0 1-1.8.7q-1.1.2-2.2 2l-1.3 2.4q-.4.3-1.5-.6c-.7-.6-2.3-1.3-3.4-1.7-2.5-.8-4 1.9-2.4 4q1.3 1.3-.6 2.2-3 1.6 3.4 2.8l4.4 1q1.7.4 1.8-.5c0-.5 1.4-.8 3-.6 3.5.4 8.7-3.5 7.4-5.7-1.2-2-1.5-6.8-.4-6.8q1 .1 1 1.5.2 1.4 1.7 1.5 1.5 0 1-.6c-.3-.3.5-1.6 1.9-2.9s2.4-2.7 2.4-3.4c0-1.4 1.7-1.4 2.6 0q.4 1-.7 2-1.6.9.8 1.5 2 .7 1.7 1.5c-.6 1 .2 1.1 3.3.3q2.1-.8 2.3-2.3 0-1.5.8-.5c.4.6 1.5 1 2.4.8q1.7-.1 2.4.7.3.9-1.3 1-2.1-.1-.4.8 1.6.9 3.2 0c2-1 5.7 0 3.9 1.1q-1.3.7.3 1.3c.7.3 2 .1 2.8-.4q1.4-.9.2-.9-1.2-.1-1.3-1.5c0-2 1.6-2 2.4.1q.5 1.6 3.1 1c4.2-1 2.8 1.4-2 3.5-3.5 1.6-6.6 2-14.2 2-11.7 0-14.6-.3-15.4-1.4q-.7-.6-1.3 1.7c-.3 1.4-1.3 2.6-2.1 2.6q-1.4.2-1.5 1.8 0 2 .9.3 1-1.1 2-.7 1 .8.5 1.8-.7 1.2 2.4.5t4.2.8c1.4 1.7 6 1.6 6-.1q-.1-1.1-1.5-1.8c-3.3-1.2-1.2-2.6 4-2.6 3 0 5.5.4 5.5 1q0 1 1 1 1-.1 1-1.3.2-1.3 3.5-1.5c2-.2 4.7-.7 6.2-1.3l2.6-1-.6 7.8c-1 12.6-3.9 30.7-5 32-.5.8-1.5 1.3-2 1.2-3.5-.4-7.7.2-7.7 1.1q.1 1 3.4.4c1.9-.3 4.3-.1 5.3.5 1.5.9 1.3 1-1.7 1.1a39 39 0 0 0-9.8 1.5c-2.3.6-2.4.5-.7-1.2q2-1.8.4-2.2-1.2-.3-1.7.8-.4 1-1.8 1.1c-2.7 0-1.4 2.1 2.3 3.7 4.3 1.8 15.3 1.3 17.8-.7q1.4-1.1 1.5-.4.1.6 1.1-.3 1.2-1 3.3-.4a58 58 0 0 0 9.4 2c7 1.3 7.3 1.4 9.3 5.3l2 4-2 1.4c-1.5 1.1-1.8 2-1.2 3.7 2.2 6 2.8 8.8 3 15l.2 6.6-3.8 1c-2 .6-4.5 1-5.4 1-2.7.1-6 4-5.7 7 .5 3.9 4.5 5.3 15.4 5.5 5.1 0 9.2.1 9 .2l-6 1.3q-9.7 1.7-9.6 6.7.1 11.4 23 8.3c8.3-1 9.3-1 14.2.9q5.3 2 15.3 2.6c5.5.3 12.1.8 14.8 1.2 4.8.7 6.4 2.3 2.4 2.5q-3 0-.2.6c1.1.3 2.3 1 2.6 1.5q.7.7 1.2-1.4.5-2.3 5.1-4.1c9.5-3.9 12.3-8.9 7-12.3-1.3-1-2.7-1.4-3-1q-.5.5 1 1.2c.9.3 1.6 1.7 1.6 3q0 2.3-1.3 1.8-1.3-.3-2.5 2.1-1.2 2.3-2.3 2-1-.5-2 .6c-1.6 2.7-28.8 1-37.7-2.2l-9.2-3.4c-7.3-2.7-6.5-8 1.6-10.4 2.7-.8 5.5-2 6.1-2.7.7-.7 4.2-1.6 7.8-2 6-.6 8.3-.4 16 1l3 .6-3-1.5c-1.7-.8-6-1.4-9.6-1.5q-6.6 0-7.1-1.2c-.3-.7-.1-5.1.3-9.8q1.5-16.4-2-20.5A27 27 0 0 1 243 223c0-2.1.1-2.1 11.5-4a189 189 0 0 0 12.5-2.7c8.4-2.2 8.4-2.3 9.1 2.2l.6 4 .2-4.6q0-4.7 1.6-5.3c1.2-.4 1.5.3 1.5 3.1 0 2 .3 3.3.7 3 .4-.5.6-2.5.4-4.6q-.1-3.7 1.2-5c1.1-.9 1.3-2 .7-4.4l-3-13.2c-1.2-5.5-2.7-11.5-3.3-13.2-.8-2.5-.8-3.6.1-4.5q1.3-1.6 2.2.2 1.1 1.8 1-.8c0-1.2.9-4 2-6.1 1.5-3 1.8-5 1.3-9-.5-4.4-1.3-6-5-10-5.5-5.7-6-6.9-8.2-20.2-1.7-10-2.4-11.7-10-25.8-4.4-8.3-8.1-16-8.1-16.9a8 8 0 0 1 1.5-3.8c2-3 4.5-10.5 4.4-13.9a26 26 0 0 0-1.4-6.9A62 62 0 0 0 243 41.2c-1.5-1-6-6.6-10-12.7s-8-11.1-8.9-11.3q-1.5-.5.6 2c1.2 1.2 3.4 4.8 5 7.8 1.4 3 3.6 6.5 4.8 7.7a9 9 0 0 1 2.1 3c0 .4.7 1.9 1.4 3.2q1 2 .3 1.7-1-.5-1.7.3c-.8 1.4.5 6.2 1.6 5.6q.8-.3 1.5 1.9c.6 2.6-2 6.6-4.3 6.6-2 0-1.6-2.7.4-3.9 1.7-1 1.7-1 0-2.8-1.5-1.6-1.8-1.6-3.3-.1-.9.8-1.7 3.5-1.8 6-.2 4-.5 4.3-3 4.6q-2.7.3-2.2-.6c.3-.6.2-2.1-.3-3.5-.7-1.8-.5-3.2 1-5.6q4-6.4-1-3.4c-1.5 1-3.5 1.3-4.5 1-1.6-.7-1.6-1 .6-3.2 2-2 2.4-2.2 2.9-.7 1.1 3.2 3.2-2.6 2.5-7.2-.5-3.5-.4-3.8.6-2.1.7 1.1 1.5 3.6 1.8 5.5.6 3.4.6 3.4 1.8 1.2 1-1.8 1-3.2-.2-7.2a47 47 0 0 0-9.2-17.1c-3.2-3-3-.9.1 3q4.3 5 1 3.7-1.5-.5-1 .4c.6 1-2 1.5-5.7 1.2q-1.7 0-1.8 1.4t-1.1.8q-1-.4-2 .7-.9 1.6-.9-.9 0-2 1.5-2.2c1.2 0 1.4-.6.8-2.7-.4-1.6-.6-4-.5-5.3.4-6.3-2.5-9.4-4.8-5m7.5 1c1 1.1 2.3 2 2.8 2q.8-.2-.8-2c-1-1.1-2.3-2-2.8-2q-.8.2.8 2m-26.8 7.6c-.4.4-.7 2-.7 3.7q0 2.7.7 2.4c1.1-1.2 3 2.7 3.8 7.6q.8 4.9-.5 4.7-1 0 .4 1.6c2.5 2.4 1.6 6.5-2 10.2a49 49 0 0 0-7.4 11q-.1 1-1.4 1.5c-.7.3-1.6 2-1.8 3.6-.7 5 2 3.7 3.4-1.7.8-2.8 2-4.7 2.8-4.7 1.7 0 4.1-2 3.8-3.2-.3-1 6-7.3 7.2-7.3q.8-.2 1.3-1.2.5-1.5 1.5 0c1.2 1.8 2.4 0 2.9-4.1.2-1.7 1.2-4.4 2.2-6 1.4-2.4 1.8-5.2 1.9-11.2v-8l-.9 5.9c-.5 3.2-1 6-1.3 6.3-.7.8-11.4-6.6-13.3-9.2-1-1.4-2.2-2.3-2.6-1.9M216.5 34q-.4.9.4 1 1-.1 1.1-1 0-.9-.4-1-.6.1-1.1 1m2.8 2.7c-2.9.6-6.7 5.3-5.4 6.6 1.5 1.5 7.3-2.4 7.7-5q.3-2 .1-2.2zm11.2 9.3q-.4.9.4 1 1-.1 1.1-1 0-.9-.4-1-.6.1-1.1 1m12.6 8.3q0 1.6 1.2 1.7 1.5 0 0 .8-1.4.7.7 2.5c2 1.6 2 1.6 1.7-1.8q-.2-3.4-1.4-3-1 .3-1.7-.8-.4-1-.5.5m4.4 2.8q.6.9 1.6 1 .9-.1.4-1t-1.6-1q-.9.1-.4 1M185 68c-.7 1.2-.9 2.4-.6 2.7q.4.7-.6 2-1 1.2-.5 2c.7.7 3-3.7 3.3-6.5q.5-4.2-1.6-.1m2.8 3.2c-.6 1.6.1 3.7 1.3 3.7q.8-.2.9-2.5c0-2.6-1.4-3.4-2.2-1.2m15.4-.1c.2.6 1 1.4 1.6 1.6q1.1.3.6-1.2c-.7-1.8-2.8-2.2-2.2-.4m29.6.9c-2 1.1-2.4 3-.6 2.7 1.4-.3 3.8-2.4 3.8-3.2q-.2-1.3-3.2.5M219 73q.1.9 1 1 1-.1.5-1t-1-1q-.5.1-.5 1m-40.7 5c0 3 .2 4.3.4 2.8.2-1.6.2-4 0-5.5-.2-1.6-.4-.3-.4 2.7m64.2-1.5-1 3q-1 3 3-.3c2.2-1.8 2.3-1.9.4-3-1.6-1-2-1-2.4.3m-59.8 7.2a41 41 0 0 0 0 8.9c.9 2.4 2 1.5 1.5-1.1-.4-2.2-.1-2.5 2.6-2.5s3.3-.5 4.3-4c.7-2.2 1-4.3.6-4.7-1.4-1.3-5.2-1-6.4.6-1.1 1.4-1.2 1.4-1.3 0 0-.8.5-2 1-2.6q1.2-1-.3-1.6c-1.1-.4-1.5 1-2 7m5.3-1.3c0 1.4-.4 2.6-1 2.6q-1 0-1-1.2 0-1-.6-.5c-1 .9 1.5 3.7 3.2 3.7 1.6 0 2-5.5.4-6.5q-1-.4-1 2m39.5-1.5q.6.9 1 1 .5-.1.5-1-.1-.9-1-1-1 .1-.5 1m-17.2 8.4c-1.2 1.4-.7 2.6 1 2.6q.6-.1.2-1t.4-1q1-.1 1.1-1c0-1.4-1.3-1.2-2.7.4m24.2-.4c-1.1.4-2.9 1.7-4 2.9-1 1.1-2.4 2.1-3.2 2.1q-1.5 0-.7 2.3c.3 1.2.8 2.4 1 2.6.6.7 3.4-2.1 3.4-3.5q0-1.2 1.2-2t.5 1.7q-1 3.3.9.4c.8-1 1.2-2.5 1-3.3q-.4-1 .3-.8.9.4 1.5-1c.8-2.1.5-2.3-1.9-1.4m-59.3 5.5c-1.8 3.8-1.5 5.2 1.6 7.3l2.7 2 1.3-2.6c1.7-3.6 1.5-6.9-.4-7.6q-1.6-.7-2.1 1.4c-.8 2.9-2.1 2.5-1.5-.5q.7-4.8-1.6 0m10.8 3.2q-2 2 .4 1c1-.4 2.2-.7 2.7-.7q.9-.1.4-1-1.2-2.1-3.5.7m3 1.7q.1.4 1.6 1 1.3.5.9-.4c-.6-1-2.5-1.4-2.5-.6m5 3.8a27 27 0 0 1-5.5 3.7c-1.6.7-1.3 1 1.7 1.3q4 .5 2.7-.8t1-1.8c2.3-.8 5.5-4.2 4.4-4.9-.4-.3-2.4.8-4.3 2.5m-6-.8q.1.3 1.5 1 1.4.4 1.5-.4-.1-1-1.5-1t-1.5.4M147.5 142q-.4 1 1 1t1-1q-.6-1-1-1t-1 1m-47.3 3.5c-1 1.3-.9 1.5 1.4 1.5s2.5-.2 1.4-1.5c-1.5-1.8-1.2-1.8-2.8 0m80.3-.5q-.4 1 .4 1 1 0 1.1-1 0-1-.4-1-.6 0-1.1 1m-74.8 1.7c-1 .9-.9 2.3.1 2.3q.8-.1.9-1.5.2-2.4-1-.8m33.3 1.8c-1 1.3-.9 1.5.9 1.5q2 0 2.1-1.5 0-1.4-.9-1.5-.9.1-2.1 1.5m-6.2.2c-2.4.6-2.3 3 .1 3.6q1.9.4 2.6-1c.7-2-.5-3-2.7-2.6m22.7.3q-.5 1-.3 1c4.2 1 5 1 3.8-.5q-2.1-2.6-3.5-.5m-30.7.7q1.2.4 2-.1.4-.6-1.4-.5t-.6.6m55.2 3.8q0 1.3 1.5.9 1.4-.7 1.5-1.5-.1-.8-1.5-.9-1.4.1-1.5 1.5m-29.4 2.4c-.7 1 2 4.8 3 4 .8-1-.5-4.9-1.6-4.9q-.8 0-1.4.9m33.4.1q.1 1 1 1t.5-1-1-1-.5 1m-60.5 1q-.4 1 1 1t1-1q-.6-1-1-1t-1 1m21.5-.2c0 1 3.7 3.2 4.4 2.5.8-.9-1.4-3.3-3-3.3q-1.3 0-1.4.8m29.6-.1c-1 1.1-.6 2.3.9 2.3q1.4 0 1.5-1c0-1.2-1.6-2.1-2.4-1.3m-88 3q-1.5 2.2-.7 1.9c1.1-.7 3.5-4.6 2.8-4.6-.3 0-1.2 1.2-2.2 2.6m81.6-.7q-1.4.8-.2 1.5c1.3.8 3.1 0 3.1-1.5q0-1.7-2.9 0m-25.1.5q.1.4 1.6 1 1.3.5.9-.4c-.6-1-2.5-1.4-2.5-.6m19 .6q.1 1 1 1t.5-1-1-1-.5 1m21.5 0q-.4 1 .4 1 1 0 1.1-1 0-1-.4-1-.6 0-1.1 1m-45 2q-.4 1 .4 1 1 0 1.1-1 0-1-.4-1-.6 0-1.1 1m45.3 1.7q1.2.4 2-.1.3-.6-1.4-.5t-.6.6M113 165q.1.8 1 .4.9-.6 1-1-.1-.5-1-.5-.9.1-1 1m42.5 0c.3.6 1.3 1 2.1 1q1.3 0 .9-1c-.3-.6-1.3-1-2.1-1q-1.3 0-.9 1m-16.7 2.7q1.2.4 2-.1.3-.6-1.4-.5t-.6.6m32.4 0q-2 .5-2.2 1.4c0 1.3 2.2 1 4.4-.6 2-1.5 1.9-1.6-2.2-.8m-92.5 2q-.7.6-.7 1.7 0 .9 1.2-.2 1-1 .6-1.7-.5-.4-1.1.2M141 171q.1 1 1 1t.5-1-1-1-.5 1m-8 3q.1 1 1.5 1t1.5-1q-.1-1-1.5-1t-1.5 1m24.5 2q.6 1 1 1t.5-1-1-1-.5 1m-35.4 2q-2.1 1.8-1.5 2t-.6 1q-1.5 1-.2 1c1.1 0 6.2-4.6 6.2-5.6s-1.7-.2-3.9 1.6m31.4-1q-.5 1 .4 1a2 2 0 0 0 1.6-1q.5-1-.4-1a2 2 0 0 0-1.6 1m124.6.8c0 .4.4 1.6.9 2.7q1 2.8 1-.7c0-1.6-.4-2.8-1-2.8q-1 0-1 .8m-121.6 3.7c2 1.6 3.2 1.3 2.1-.4-.3-.6-1.4-1-2.3-1-1.5 0-1.5.1.2 1.4m-3.9.5q-.6.7-2.3.3-2-.8-.4.8c1 1 1.5 1 3-.4q1.4-1.6 1-1.7-.7 0-1.3 1m-86 1q-.6 1.1-.2 1.6.4.3 1-1c.7-1.8.1-2.1-.8-.5m-1.5 4.4c-1.6 5.7 3.9 11.9 13 14.6 4 1.2 4.2 1.4 2 2-1.4.4-3.5.4-4.6.2-1.7-.3-2.3.1-2.8 2.1-.3 1.4-1.3 2.6-2.1 2.6q-1.3.1-1.5 1.6 0 1.7 2 1.1 1.8-.4 2 .5a12 12 0 0 0 3 4c3 3 4.7 7 3.6 8.7-.4.6-2.2 1.3-4.1 1.7-2 .3-3.5 1-3.5 1.5 0 1.4-2.8 1-3.3-.3q-.6-1.5-.6 0a8 8 0 0 0 1 3.3c.9 1.8.7 1.9-1.5 1.3q-2.6-.6-2.6.7t-1.5-.7q-1.8-2.3-.9-.2t-2 1.8c-2.8 0-3.1.6-1.6 3q1.2 2 1 0t1 0q1 1.7 1.8.2 1-1.1 2.5-.6 1.9.8 1.2-1.2-.8-2.2 1 .3c1 1.3 2.6 2.3 3.6 2.3q1.7.1 2.5 1.1c.9 1.5 13 .5 15-1.2 1.9-1.6-.2-4.2-2.7-3.4q-1.6.4-2.4-.5c-1-1.5 3.7-1.2 6 .4 2 1.3 8.5 1 8.5-.4 0-.8-10.7-3-16.2-3.3-2.1 0-3.8-.5-3.8-.9q-.2-.6-1.7-.2-1.8.6.7-1.5a11 11 0 0 1 3.3-2q1-.2 2.3-1.6 1.5-1.6 3.4-.5c1 .6 2.9 1 4.1 1q2 0 1.6.7-.5.6 1 2 2.6 1.8-.7.7c-4.6-1.2 0 2.2 5.3 4 4.2 1.3 4.7 1.3 3.7 0-1-1.1-.7-2 1.9-4.6 4.7-4.8 4.3-6.4-2.8-11.6-4.7-3.4-6.3-4-5.8-2s-3.1 1.7-5-.4c-1.8-2-1.8-2 .5-1 1.2.7 2.2.9 2.2.3 0-1.5 4.7-2.2 7.5-1 1.5.5 2.5 1.5 2.2 2.2q-.4 1.3 2.3 1.3c3.6.2 8.3 3.3 7.6 5q-.4 1.4 1 2c2.3 1 1.6 4.2-1.7 7.3-1.9 1.8-2.8 3.5-2.3 4.2q.7 1.2-.8.6-1.7-.4-3.8 1.8c-1.8 2-2.7 2.2-4.1 1.4q-2-.9-1.9 0-.1 1-1.4.5-1.5-.7-1 1.5c.5 1.7.2 2.1-1.7 2.1-1.2 0-3 .7-4 1.7-1.5 1.3-1.9 1.3-2 .2q.2-1.7-1 .1c-.8 1.3-1 1.3-1.9 0q-1.1-1.8-1 .8c0 1.2.3 2.2.8 2.2a74 74 0 0 0 17.2-5.8c10.2-4.8 14-9 14-15.6 0-1.9.5-3.8 1-4.1 1.9-1.1 1-2.6-1-2q-2.2.8-4.6-1.6c-2.2-2-2.2-2.3-.6-3.6q2.4-1.8-.4-.8c-2 .5-5.6-1-15.9-6.1l-5-2.6 5 .7c2.8.3 5.6 1.4 6.3 2.3 1.1 1.4 1.2 1.4 1.2-.1q-.2-1.8 3.5-1.7c3.7 0 5 2.2 1.9 3.4-3.5 1.4-.5 1.5 3.3.2 3.6-1.3 4-1.2 4 .3 0 .9-.5 2.2-1 3q-1.6 1.7.5.8 1.7-.6 2.7 1c1.4 2.5 1.3 1.4-.4-4.5-1.7-5.7-1.4-7.2 1.4-7.2 1 0 4.8-1.1 8.4-2.4 3.5-1.4 6.8-2.2 7.2-1.8q.7.5.1-.5c-.4-.7-.2-2.1.3-3.2 1-1.6.6-2-2.4-2.4-2-.3-4.7-.2-6.3.2q-2.8 1-6.5-1c-3.6-1.7-3.6-1.7-2.7.2.6 1 2 1.9 3 1.9q1.8.1 2 1 0 1 1 .5.8-.4 1.4.4c.4.5-1.7 1.7-4.6 2.6-3 1-5.7 2-6.3 2.4s-3.1.6-5.7.6q-4.9 0-4.8 1.2-.2 1.2-2 1.3-1.8-.1-2-.8t-1.7-1A90 90 0 0 1 81 200h-2.3c-2.5.2-8.7-2.8-9.4-4.6q-.6-1.3-1.8-1.4-1.5 0-1.7-4.2-.3-4.1-.8-2.3m106.6-.6q-.5.8.6 1.4c1.8.6-1.9 3.4-5.4 4.1-2.4.5-2.8 1-2.7 3.8q.2 3.3.6 1.1c.5-2.6 2.8-3.6 5.4-2.3q2 1.2 2-.2c0-.7 1-.2 2 1.2l2.2 2.5-.7-2.5c-.4-1.4-1-4.2-1.3-6.2q-.9-5.7-2.7-2.9m-9.6 4.2c-2 1-3 1.8-2.2 1.9q1 .2 1.3 1.8 0 2 1.1-.6a6 6 0 0 1 4-2.9c1.5-.3 2.8-1 2.8-1.4 0-1.4-3.2-.9-7 1.2m-24.8 3.6c.6.7 1.9 1.3 2.9 1.3 1.5 0 1.6.5.9 3-.5 1.7-.5 2.8 0 2.5s2.1-.2 3.8.1c2.5.5 2.9 1 2.6 3.6q-.6 3.3 1.3 2.6 1.5-.5 2.1-1.7.4-1.2-.7-.7c-1.5 1-1.5-4.6.1-6.2s-.5-1.6-3.2 0c-2.5 1.6-3.5.5-1.8-2.1s7.8-3 7.8-.6q0 2.5 3 .6c1.1-.8 1.1-1.1 0-2.3-2-1.9-20.4-2-18.8 0m33.3 4.3c1.1 1.7-2.6 4.9-5.6 4.9-1.5 0-3-.4-3.4-1s-1.3-1-2.1-1c-1.4 0-1.4.2 0 1.5 1.1 1.2 3.3 1.5 8 1.3q10.4-.2 9.4-4.4c-.3-1.6-.4-1.7-2 0-2.2 2.1-2.8 2-2.8-.4q-.1-1.8-1-2-1 .1-.5 1m-33.8 2q.6 1.7 1.5 1.4.8-.6-.3-2-2.2-3-1.2.6m-83.2 3a84 84 0 0 0-10 2.4c-2.7.9-6.1 1.6-7.5 1.6-5.1 0-16.4 4.9-17.3 7.5-.7 1.7.8 2 1.8.5q.6-1 2.5-1 1.7-.1 2.4-1.6c.5-1.3 1.6-1.5 5.2-1.1 3.5.4 4.4.2 4-.9-.8-2.1 1.1-2.6 4.8-1.3 2.8 1 3.8 1 5 0 .8-.7 2-1 2.5-.7q.8.5 1.3-1c.3-1.6.5-1.6 2.2.2q2.5 2.5 1.3.2c-1-2.5.8-2.2 2.6.4q1.4 2 2.3 1.6c.4-.5-.1-1.7-1-2.8-1.7-1.7-1.7-2-.3-2 .8 0 1.8.6 2.1 1.3q.6 1.5 1.2 0c.3-.7 1.7-1.3 3-1.3q2.3 0 2-1-.4-.7 1.1-1.3c3-.8-5.9-.5-11.2.3m23.5 2.5q-1.6 1.7.8 1.5 2.2-.1 1.5 2-.7 2.3 1.1 1.4 1.5-.6 1.4-2-.3-1.2.5-1.3c2.2-.2 2.7 0 2.5 1.2q-.3 1.2 4.5 1.5c3.7.2 4.7 0 4.7-1.2q0-1.6-3-1.6c-1.6 0-3.2-.5-3.6-1-.3-.7-1.5-1-2.5-.7s-1.9.2-1.9-.2c0-1.3-4.8-1-6 .4m70.7 4c-.3.7.3 2.1 1.4 3.1s1.8 2.6 1.6 3.6q-.4 1.7.4 1.8c1.2 0 1.1-1.3-.3-6q-2-6.2-3.1-2.6m-10.7 1.4q.2.7 2.5 1 2.3 0 2.5-.8-.2-1-2.5-1-2.3.1-2.5.8m-95.5 2.1c-.3.6-2.1 1.1-4 1.1s-3.6.4-4 .9c-.6 1 4.8 3.1 8.2 3.1q2.2 0 1.8 1c-.5.8-16.2.5-21.9-.4q-.8 0-1.3 1-.2 1.1.9 1.1 5-.3 4.8 2 .1 1.3 1.3 1 1.4-.3 3 3.4 3.2 7.4 1.7.2l-.9-3.6 2.8 2.9c1.5 1.6 2.5 3.5 2.3 4.2q-.2 1.1 1.7 1.2c2.7 0 2.7-.7 0-3-1.8-1.3-2-2.2-1.4-4.6l.9-2.9.4 2.7a7 7 0 0 0 2 4q2 1.9.4-.9c-1-1.7-.9-2.5.4-3.7 2-2 2.3-2 3.5.7q1.3 3.2.6-.6c-.4-2.5-.2-2.7 3-2.7 1.8 0 3.3.4 3.3 1q-.1 1-1.6 1-2-.1-.4 1.5c1.4 1.7 4.5 2 3.5.4s7-.5 8.9 1.3q1.3 1.5.9 2.2-.5.6 1.5.3 5.4-.9.4-3c-1.7-.6-3.4-1.6-3.6-2.3-.6-1.5 5.3-2.7 6.9-1.4.7.6 2.3.6 4 0q2.7-.7 1.8-1-1.1-.1-.7-1.4c1-2.5-5.4-4.5-15.1-4.8-2.3 0-4.5-.8-5.2-1.7q-1.2-1.3-1.3-.5c0 1.9-5.3 2.4-7.2.8q-1.5-1.5-2.3-.5m103.6 5.5q-1 1.4-.3 2 1 .3 1.5-1.4 1-3.5-1.2-.6m-7.6.6q.6 1 1.6 1t.4-1-1.6-1-.4 1m16.5 1c0 1.3 2 1.3 4 0q1.9-1.1-1.2-1-2.6 0-2.8 1m28.4 0c-4 1.3-5.4 4-1.9 4 3 0 3 .2 1 4-.9 1.7-1.2 3-.7 3s1.6-1.7 2.5-3.7c1.7-4.1 3-8.4 2.5-8.2zM13 223.4c-1 1.3-1 2.4.4 6.5q2.4 7.5 10.7 11.7c4.4 2.3 5.9 1 1.8-1.4q-3.5-2.2-1.7-2.2c2.7 0 2-2.7-1-3.4q-2.6-.7-3.5.6c-1.4 2.2-5-3.1-4.4-6.7.3-1.7.1-3.8-.3-4.8-.6-1.7-.8-1.7-2-.3m161.9 1.1q-1.6 1.6.4 1.5 1.5-.1 1.6-1.5 0-1.4-.4-1.5c-.2 0-1 .7-1.6 1.5m-78 2.9q.2.3 1.5 1 1.3.4 1.5-.4-.2-1-1.5-1t-1.5.4m178 2.6c-.7 2-1.5 3.8-1.8 4.3q-.2.6.7.7 1-.1 1.1-1.4t1.1-1.8c.6-.2 1-1.5.7-2.8-.3-2.4-.4-2.3-1.8 1m5.6-2.2c-.2.4 0 2.3.4 4.2l.8 3.5.1-4.2q.2-6.1-1.3-3.5m-230.6 2q.1 1 1 1.7.9.5 1-.4c0-.5-.5-1.3-1-1.6q-.9-.5-1 .4m-6.8 3c1.6 2.6 3.7 3.4 5.3 2.1.6-.5 1.5-.7 1.8-.3q.7.4.7-.5 0-1.1-.7-1.3c-1.6-.1-4.1-.7-6.2-1.4-2-.6-2.1-.5-1 1.4m9.9 0c0 1.4 1.8 2.3 2.4 1.2q.5-.8-1-1.5-1.2-.4-1.4.4m126.9 2q-.4 2.6-2.4 2.3c-1 0-2.3.4-2.7 1q-.7 1.2-2.1-.7c-1.3-1.8-1.4-1.8-2 .3-.3 1.1-.1 2.1.4 2.1q.8.1.9 1.1c0 2 3.3 3.8 6.8 3.9 1.7 0 3.2.5 3.2 1.2q0 1 .5.6c.3-.3 0-1.6-.7-2.9-1-2-2-2.3-5-2-2.1 0-3.8-.2-3.8-.7 0-1.3 8.3-2.1 9.1-1 1 1.7 1.6-.6.8-3.2q-.7-2.2-.9-1.5-.1.8-1-1-.8-2.9-1.1.5M29 237.9c0 1.2 3 3.5 3.6 2.8q.6-.7-1-2.2-2.5-2.6-2.6-.6m9.7 4q-1.7 1.6 1.3.7l2.5-.7-2.5 1.5q-2.4 1.5-4.2.5c-.9-.5-2.5-.9-3.4-.9-3.5 0 .2 2 5.2 2.9l6.6 1.5q1.8 1 1.1-1.2c-.7-2.7 1.3-3.6 2.9-1.3 1.4 2 8.8 4.6 8.8 3.1 0-1-2.5-2-5.1-2-1.1 0-2.7-1.3-3.7-3-1.3-2.3-2.2-2.8-5-2.7-1.8.1-3.9.8-4.5 1.6m31.3 1c0 .4-1.6.7-3.5.4-2-.2-3.5.1-3.5.7q.1.9 1.8 1l5 .4c1.7.1 3.2.1 3.2 0l-.6-1.8c-.6-1.7-2.4-2.2-2.4-.7m118.7 1.2q1.2 1.1 1.8.7.4-.6-1.2-1.2-2-1-.6.5m65.3-.7q.1.4 1.6 1 1.3.5.9-.4c-.6-1-2.5-1.4-2.5-.6M76.5 245q-.6.8 1 .9h2.2q.7.1 1-.7c.4-1.2-3.5-1.4-4.2-.2m5.2.9q-.4 1.8.4 2 .8-.2.9-2t-.4-2q-.4.2-.9 2M58 248.1c0 .5 1.6.9 3.6.9 3.3 0 3.6.2 3.2 2.4s-.3 2.3 2 1.5a21 21 0 0 1 6.3-.9c3.6 0 4-.2 3.7-2.2-.3-2.2-.8-2.3-9.5-2.4-5.1 0-9.3.3-9.3.7m9.6.9q-2 .6-.8 1.4c.7.4 2 .3 2.8-.2 2.1-1.2.5-2.2-2-1.2m113 3.5q.7 1.3 1.5 1c1.4-1 1-2.5-.6-2.5q-1.3 0-.9 1.5M49 255q.2 1 1.5 1t1.5-1q-.2-1-1.5-1t-1.5 1m4.1.8-.4 8.8a24 24 0 0 1-1.4 8.6c-.7.8-1 1.8-.6 2.1 1 1 5.1.8 5.8-.3q.5-1-.6-.8c-1 .2-1.4-2-1.7-8.4q-.3-8.8.7-8.8 2.8 0 3.3 10.3c.2 3.7.4 6.7.6 6.7s1.4-1 2.7-2.4c3.3-3.3 5.5-3.9 10-2.4q4 1.3 4.2 3.3.2 1.7-.3.8a2 2 0 0 0-2-1.3q-1.4 0-.9 1t-.4 1a1 1 0 0 0-1.1 1.1q.2 1.1 3 .7c1.7-.3 3.3 0 3.6.4.5.8-1.7 1.2-4.3.9-1.2-.2-1 5.6.3 6.8q.6.3.2-2.1-.4-2.6.3-2.8.9.2 1 2.3c0 2 1.9 6.3 1.9 4.3q.2-.5 2.5.8c1.4 1 3 1.4 3.4 1.2.5-.3 3.5 2.4 6.6 6q5.7 6.4 6.5 5.4.8-1.3 1.4-.1.6 1-.3 1.1c-.5 0-1.3 1-1.6 2q-.7 1.8-1.7 1.4-.9-.7.3-1.5 1.1-.7.6-1.5-.7-.6-1.9.4t.2 2.6q1.2 1.4 2 1.1c1-.6 3.5 2.4 2.6 3.2q-.5.4-.6-.5 0-1.1-1-1.2c-.5 0-.7 1.3-.3 3q.6 3.3-.8 2.8-1.3-.2-1.2.8 0 1.1-1.6.7c-1-.2-2.5.3-3.5 1.2q-1.5 1.4-1.6.7-.2-.9-2-1.5-2.1-.7-2 1.6-.2 1.9-.7 1-1-2.7-4.4.6c-1.8 1.6-1.8 2-.4 2.5q1.6.5 2.6 0 .8-.4.9.4c0 .5-3 1-6.7 1.2l-9.7.4c-1.6 0-3 .6-3.3 1.2q-.3 1 5.2.4c7.6-.8 16.5.3 17.9 2.2l2.3 3.5c1.1 1.7 1.2 1.6 1.2-.5q0-2.3-2.9-4-5.2-3.1-1-3.2 2 0 1.6-.9c-.3-.5 1.2-1.3 3.4-1.9s4.2-.6 4.5-.2q.3.8-1.2 1.3-1.4.3 1.2.3c2.5 0 3.5-1 6-5 1.7-2.7 3.9-5.4 5-6 1-.6 2.5-1.7 3.3-2.4s1.7-1.2 2.1-1.2 2.4-1.6 4.4-3.5c2.2-2.1 4.6-3.5 6.2-3.5q7.7-.1-8.7-5.6a56 56 0 0 1-20.5-9.7c-2.8-2.5-2.1-4 2.8-6.2 2.1-1 3.9-2.2 3.9-2.6 0-1.6-4.6-.2-7.3 2.3l-2.8 2.7-4.2-2.9c-2.3-1.5-4.5-2.6-4.8-2.4q-.6.2-.2-1.7c.6-2.2 2.2-2.2 15.2-.7 3.4.4 3.6-1.4.3-3.5l-5.8-3.7-3.2-2-.5 2.2c-.4 1.3-2 3.1-3.6 4-3.7 2.3-4 2.2-3.4-.2q.6-1.8 1.4-2c.5 0 .8-1.7.7-3.7q0-5.4-.5-.6c-.4 3.3-1.7 4.3-2.6 2q-.6-1.5-.6 0c-.2 2.6-2.1 1.2-2.2-1.4q.1-3.6-.8-.8c-.5 1.1-.7 2.3-.5 2.6q.2.7-1.1 1.3c-1.2.4-1.4 0-.9-2q.8-2.9-.5-2-1 .7-.6 1.6t-.6 1.6c-1.5.9-2.8-1.3-2.2-4 .4-2 .4-2-1.1-.2q-2.6 3.3-2.9-1.1.1-2.2-2.2-1.5c-2 .4-2 .4 0-1.1q1.8-1.6.8-1.7c-.6 0-2-.3-2.9-.7q-2-.9-1 1.2c.6 1.8.6 1.8-1.2.2-2.3-2.1-2.8-2.1-3 0m16.3-.7q-.4 1 .4 1 1 0 1.1-1 0-1-.4-1-.6 0-1.1 1m3.5 1c0 2.5 1.7 2.6 2.3.3q.5-1.4.6 1.2l.2 3 1.5-2.9 1.6-2.8 1.5 2.2a8 8 0 0 1 1 5q-.4 3.2.9 2c4.2-3.6.8-9.5-5.5-9.7-3.5-.2-4.1.1-4.1 1.8m105.5.9q-.5.9 1 .4 2.6-1.2.6-1.4-1 0-1.6 1m-135 1q.6 1 1 1t.5-1-1-1-.5 1M32 261q.1 1 1 1t1-1q-.1-1-1-1a1 1 0 0 0-1 1m28 1.8-.6 3.7c-.6 3.7.4 2.8 1.6-1.4q.7-3 0-3.1-1 0-1 .8m-25.1 2c2 1.4.4 7-2.5 8.9-3.4 2.2-9 .7-8.8-2.4q.1-2.2-1.7-1.6-2.1.4-.9 2.4c1.6 3 5 4.3 11.8 4.5 5.3.2 6.2 0 6.2-1.5q0-1.7-1-2.7c-.4-.5-1-2.4-1.2-4.3-.2-2-1-3.6-1.8-3.8q-1.8-.6-.1.5m27.6 1.2c-.4 1.2-.5 2.4-.2 2.7q.5.2 1.2-1.7c.4-1.2.5-2.4.2-2.7q-.5-.2-1.2 1.7m216.6 1.4q-.1 4.3 1 2.9 1.2-1.1 0-4c-1-2.8-1-2.8-1 1.1m-258-.8q0 1.7.6.6.4-1.2-.1-2-.6-.3-.5 1.4m63.9-.2q0 1.4 2 .9 1.7-.6 1.4-1.4c-.8-1.4-3.4-1-3.4.5m190 2.5q0 1 1 1.6 1 .5 1-1 0-1.3-1-1.5-1 0-1 1m-182.2.7q1.2.4 2-.1.4-.6-1.4-.5t-.6.6M42.5 272q-3 1 .3 1 2 0 2.2-1 0-1-.2-1zm5.5 0q-2 1.1.3 1 1.6 0 1.7-1c0-1.2-.1-1.2-2 0m-30 .7c0 .5 2.2 3 4.8 5.4s5.7 5.7 6.8 7.3c1.8 2.4 2.4 2.7 4 1.8 1.8-1 1.8-1.1-.3-1.2-2.2 0-5.6-3.7-4.7-5.1q.1-1-2.3-2.3c-1.6-.8-4-2.6-5.6-4.1s-2.7-2.3-2.7-1.8m233.6.3c-1.6.5-3.3.7-3.8.4q-.7-.3-.8 1 .2 1.8-2.5 1-2.4-.6-2.5.5.2 1 1.4 1.1c.8 0 3.6 1.1 6.2 2.5q7.4 4 7.4 1.5c0-.6 1.2-1.5 2.6-2 3-1.2 14.4.7 14.4 2.3q-.2.8-2.2.2a20 20 0 0 0-10.4-1q-2.4.6-2 1.3a40 40 0 0 0 19.3 0c1.4-1.1 1.8-4 .6-3.6a72 72 0 0 1-14-4.8 22 22 0 0 0-13.7-.4m-94.1 3.5c-1.9 1.4-1.8 1.4 1.3 1.5q3.3 0 3-1.2-1-2.8-4.3-.3m97.8-.3c-1.7.6-3.4 1.7-3.8 2.5q-.6 1.6 1.1.9c1-.4 3.7-1.2 6.2-1.8 3.7-1 4.2-1.3 2.6-1.9-2.3-1-2.2-1-6 .3m-207.8 1.2c.3.7-.6 2-2 3q-2.4 1.4-2.6.6-.1-.9-1-1-.9.2-1 2c0 2.6 1 2.5 6.7-.6q8-4.3 5.6-4.4-1.2.1-1.9 1.1-.7 1.2-1.6-.5c-1-2-3-2.2-2.2-.2m102.2.6c-4.6 1.3-5.3 2.1-3.3 3.7 2.7 2 4 1.6 5.4-1.3 1.4-3.2 1.3-3.3-2-2.4m-8 1.8q-2 2.3.3.3 2.6-2 1.4-2.1-.5.2-1.7 1.8m13.1 1.7q.2 1.5 1.8 2.1c1 .3 2.5 1 3.5 1.5q3.4 1.7 2.4-1.5a1.6 1.6 0 0 0-2.2-1 5 5 0 0 1-3.2-.1c-1.6-.7-1.5-.9.7-1.5l2.5-.8-2.7-.1q-2.8 0-2.8 1.4m12.5-.5q-.7 1-2.1.6t-1.4 1.3q.1 4.5 3.2.5c1.1-1.4 1.8-2.7 1.5-3q-.5-.4-1.2.6m-24.5 2.6c0 2-2.2 5.4-3.4 5.4q-.5-.2-.6-1.7.1-2.2-1-.3-1 1.5.7 2.8c2.2 1.6 3 1.3 5.4-2.4 1.7-2.8 1.8-3.3.4-4.4q-1.6-1.6-1.5.6m9 .8q-.1 1.3-1.5 2-1.4.4-1.5-.4c0-1.8-1.8-1-2.3 1-.3 1 .1 2.1 1 2.4 2 .8 7.3-3.3 6.6-5s-2.3-1.8-2.3 0m17-.1q-1.2 3.3 1.1 5.3c1 1 1.9 2.3 1.9 3q0 1.3 1 1.4c.4 0 .8-1.5.7-3.2-.2-2.6-.6-3.2-2-3q-2.3.6-1.4-1.7.4-2-.4-2.1-.9 0-1 .3m7.1 4.7c.6 1.1 1.6 2 2.2 2q.9-.2-.7-2c-1-1.1-2-2-2.2-2q-.2.2.7 2m-18.2-.3q-1.7.5-1.8 1.4t-1 .9q-1-.1-.6-.8t-1-.9q-3-.1.7 3.5c2 2.2 2 2.2 5 .5 4.2-2.5 3.3-5.8-1.3-4.6m5.7 1.3q.6.8 2 .3 3.2-1.2-.6-1.3c-1 0-1.8.4-1.4 1m-29 2.6c-.3 1.4-.4 2.9-.1 3.1s.8-.7 1.2-2.1.4-3 .1-3.2q-.5-.2-1.1 2.2m10-1.1q-.6 1.4-1.6 1-.9-.5-1 .4c0 1.9 2.2 2.3 3.8.7q1.8-1.6.5-2.7-1-1.1-1.7.6m-60.2.9c-.9 1-.7 1.9.7 3.7 1 1.3 1.9 1.9 1.9 1.2s-.5-1.5-1-1.8q-.9-.6-1-1.7c0-.6 1-.3 2 .7q2 1.8 1.4 4c-.6 2-.6 2 .9 0 1.3-1.7 1.3-2-.2-3.4l-2.6-2.8q-1-1.4-2.1 0m80.6-.8c0 1.8 3 7.5 4 7.5q1.4-.1 0 1.6c-1.2 1.3-1.5 1.2-2.6-1.3q-1.2-2.4-1.3-1.5.1 1.6-1.6-.2-3-2.7.2-2.6 1.8 0 .6-1-1-1.3-3 0c-1.4.9-1.8 2.4-1.8 5.8 0 2.6.3 5.2.7 5.8s0 3.5-.7 6.5c-2.2 8-2 8.9 1.8 9q2.7 0 1.4.6-1.6.4-1.7 1.8 0 1.2 2 .8 1.8-.6 2-1.3.2-.6 2.5-.7t2.5.6c0 2 8.9 4.8 22.4 7 2.8.4 5.1 1.2 5.3 1.8.2.5 1.7.7 3.4.5 2.8-.4 3-.3 2.5 2.4q-.6 4.2 2.8 4.4.8-.1-1-1.6-2.2-1.8-.2-1c.9.2 1.9-.1 2.2-1q.5-1.2-1-.7-1.4.4-1.4-1.1c0-2.5 7-1.8 9.8 1 2.4 2.3 5.2 2.2 5.2-.1 0-1.4 5.1-2.6 13.5-3.1 7-.5 8.7-.8 11-2a40 40 0 0 1 5.5-2.3c4.2-1.3 9-5.5 9-7.9 0-1-.6-3-1.4-4.4-1.3-2.5-1.3-2.8.5-3.3 2.3-.7 2.5-2.5.4-2.5q-1.4 0-1.5 1c0 1.7-2.2 1.1-4.6-1.1-6.1-5.7-14.3-8.9-28.3-11a108 108 0 0 0-35.3-.7l-5.3 1.3 4 .7a76 76 0 0 1 8 1.7q4 1 5-.1t-.2-.4q-1.2.5-1.3-.3c0-1.4 23.6-1.5 24.5-.1.3.6 1.7.7 3 .4q4.3-1.1 1 2.3c-2.2 2.1-17.3 1-19-1.5q-1.3-1.7-2.6-.5a18 18 0 0 1-4.4 2l-3 1 2.8 1.3c1.5.7 2.7 1.7 2.7 2 0 1.2 23.6.6 25.1-.6.8-.6 2.5-1.1 3.8-1.2 1.4 0 2.9-.8 3.3-1.7 1-1.7 3-1 2.3.8-.3.7 1.9 2.4 5 4.1q5.5 3 6.7 5.5a8 8 0 0 0 2.1 3.3q1.2.8-.6.8c-1.4 0-1.6.5-1 2.6q.6 2.7-.5 2-1-.5-1.7.4t-1.6.5-1 .7q-.2.9-1.8-2.1c-1-1.9-2-3-2.5-2.3q-.4 1 .6 1.4c1.7.6-1.4 3.8-3.6 3.8q-1.5 0-1.6 1c0 1.5-3 1.2-3-.2q-.1-1.2-1.4.4c-1 1.3-1.5 1.5-2.4.6q-1.1-1-1.2-.4t-1.4-.3q-1.4-1.4-2 .3-.3 1.6-4 1c-2.1-.4-3.6-.2-3.6.3s-1.8.9-4.2.6l-6-.6q-1.7-.2-1.8-2.2c0-1.9-.2-1.8-2 .5q-2 2.5-2.8 1.3c-.4-.6-2-1.5-3.5-1.8-2.1-.6-3.1-.3-4.2 1.1-1.2 1.6-1.4 1.6-1.5.3 0-1.2-1-1.5-5.2-1.4-3 .2-5.9-.2-6.6-.7q-1-.9-1.2-.3t-2-1c-1.1-1-2-2.2-2-2.7s-.7-1.6-1.5-2.4-1.2-2.2-.9-3.2-.5.1-1.7 2.3q-2.3 4.2-2.7 2.3c-.2-1 .2-2.6.8-3.7q1-2.1 0-2.1-.9.1-1 1.4c0 2.2-4.3 2.8-5.7.9-2.3-3-1.5-7.3 1.6-10.2A39 39 0 0 1 180 299c1.7 0 1.8-.4.8-3.1-.9-2.6-1.2-2.9-2-1.5q-.7 1.5-.3 2.6.4 1-.5 1-1-.2-2-2.2l-.8-2.3-1.2 2.7c-1.6 3.5-4 2.6-3.7-1.4.2-2.7-.2-3.1-2.6-3.5-1.5-.2-2.7-.1-2.7.2m83-.1q.1.4 1.6 1 1.3.5.9-.4c-.6-1-2.5-1.4-2.5-.6m-109.8 7.2c-.2 5.2 0 6.4 1.3 6.4 1.2 0 1.5-1.3 1.5-5.9q0-5.7-1.2-6.4c-1-.3-1.4 1.3-1.6 6m9-4.7q-2.4 4.1.3 2c1.7-1.4 2-.3.5 2-1.4 2.2 1.1 3.2 3.2 1.3 2-1.9 2.3-4.4.6-6.1q-2.4-2.6-4.6.8m113.7.7-4.7.4 1.4 2.9c.8 1.5 2.2 3 3.1 3.4 1.6.6 1.6.5 0-1.2q-3.3-3.3 3-3.2c2.6 0 3.3.4 3.3 2q0 1.8-1 2t-1 1.1 2.3-.4c1.2-.8 2.2-2.1 2.2-3s.6-2.2 1.4-3c1.5-1.8 1.2-1.9-10-1M143 298.6q-.1 3.7 1.1 1 1.2-1.8 0-2.9-1.1-1.3-1 1.9m10 .5q-3.8 5.4 2 4.7c3-.4 5.1-5.4 2.9-6.8s-2.4-1.3-5 2.1m-62.3.3q-.6 1.5.8 1 1.2-.7 1-1.5-1-1.9-1.8.5m62.9.5q-.6 1.2-.2 1.8c.9 1 1.9-.4 1.4-1.8q-.4-1.5-1.2 0m126 .4q.6 1.6 1.2 1.2.4-.5-.7-1.8-1.4-1.5-.5.6m-157.6.6c-3.7.5-4 .7-2.1 1.3 2.2.6 7.1-.5 7.1-1.7q0-.4-.2-.4c-.2.1-2.3.5-4.8.8m11 1.1q0 1 1 1t1-1-1-1a1 1 0 0 0-1 1m12 0q.1.9 1.3 1 1.3 0-.2.9c-1.8 1.2.3 5.1 2.9 5.1 4.1 0 3.4-4.2-1.1-6.6q-2.7-1.2-2.9-.4m125.5 0c.9 1.4-4.2 3.2-6.9 2.4-2.1-.6-2.1-.6-.1 1.3q2 2 2.7 1 .5-1.1 4.2 0c3.4 1 3.6 1 3.4-1.2-.1-1.2-1-2.8-2.1-3.5q-1.9-1-1.2 0M101 303.3q.1.5 1.8 1.7 2.2 2 .3-.4-2-2.5-2.1-1.3m21.7 1.2c-1.5.8-3.2 1.2-3.7.9-1.2-.8-1.3 2.5 0 4.4 1.3 2.2 5.9.5 6.6-2.4q1.6-5.4-2.9-2.9m9.3.2q-.2 1.1-2 1.2c-2.2 0-2.6 2-.8 3.8 2.2 2.2 4 1.4 3.5-1.3q-.4-2.5.7-2.2c.6.2 1 1.4.9 2.6q-.2 2 .7 1.6c1.6-1 1.2-3-1-5q-1.8-1.6-2-.7m10 .6c0 .8-.7 2.1-1.4 2.9-1.3 1.3-1.2 1.8 1.1 3.8q2.3 2 2 1.3-.5-1.1.7-1.7c1-.4 1.1-1.2.2-4.1-1-3.6-2.6-4.8-2.6-2.2m-19 .7q.1.8 1 .4.9-.6 1-1-.1-.5-1-.5-.9.1-1 1m33 .1q-.1 1-1.5.5c-1.6-.6-2.2 2.4-.7 3.8q.7.8.7 2 .1 1 1.5 1.1 1.5 0 1.8-4.2.3-4.1-.7-4.3a1 1 0 0 0-1.1 1.1M6.5 309q1.7 1.7 2.3 1.4c.7-.6-1.8-3.5-3-3.5q-.9.2.7 2m108.3-1.4c-.3.3-1.8.6-3.4.7s-3 .8-3.2 1.5q-.5 1.2 3 .6c3.4-.7 5.6-2 4.6-2.9q-.4-.4-1 0M141 310a2 2 0 0 0 1 1.6q1 .5 1-.4a2 2 0 0 0-1-1.6q-1-.5-1 .4m-125 1c-1.6 1 2 3.7 7.1 5.1 5.5 1.6 6.7 1 2.5-1-2.1-1-4.2-1.7-4.6-1.5-.5.3-1.6.2-2.5-.1q-1.7-.7-.5-1.4 1-.7.3-1.3c-.5-.3-1.5-.2-2.2.3m72.9 0q.1 1 1 1t.5-1-1-1-.5 1m34.8 1.5c-3.3 2.8-3.6 4-.8 2.5 2.2-1.2 2.7 0 .8 1.8q-1.5 1.4 1 1.2c5 0 6.6-2.6 3.8-6.2-1.6-2.2-1.5-2.2-4.8.7M269 314c0 1.7.4 2.8 1 2.4s1-1.7 1-3-.4-2.5-1-2.5-1 1.4-1 3m-123-.6q-1.2 1.4.5 3c1 .9 1.4 2 1.2 2.4-.3.4 0 1.8.9 3.2q1.2 2.5 1.4 1c0-.9-.5-2.1-1.2-2.8q-1.5-1.4 0-1.2 1.3 0 .7-2.2-.8-2.7.4-.8c1 1.3 1 1.3 1 0 .1-1.6-1.7-4-3-4-.3 0-1.2.6-1.8 1.4m-42 .8q-1 1.2-1.1 2c0 .4-.9 1.7-2 2.8-2.7 2.7-2.6 4.4 0 3 1.2-.7 2.8-2.7 3.6-4.7q2.4-5.8-.4-3m32.9 1.6c-2.3 3.2-2.6 4.7-1 5.6 1.6 1 3.7-1.4 3.2-3.6-.3-1.2 0-2.5.7-2.9q1.2-.8.2-1.4c-.6-.3-2 .7-3.1 2.3m-92.1.5q.1 1.4 1.6 2c2.4 1 7.4.7 7.4-.3 0-1.5-1.8-2.2-2.5-1q-.7 1-3-.5c-3-2-3.5-2-3.5-.2m10-.2c0 3 2.6 3.8 10.4 3.6 4.2 0 7.6-.6 7.6-1 0-.6-1.8-.8-4-.5-3.1.3-4.3 0-4.7-1-.5-1.4-.8-1.3-2 .3q-1.2 1.5-1.3.6-.1-1.1-1.8-1.2c-1 0-2.3-.5-3-1.2q-1.3-1.4-1.2.4m56.1.2c-3.4.9-4 1.4-3 2.3.8.6 2.8 1.4 4.6 1.7 2.6.6 3.4.3 4.2-1.3 2.4-4.3 1.6-4.7-5.8-2.7m41 .8c-1.5 2.4-.2 4.2 2.2 3.2 2-.7 2.3-4 .4-4.7-.7-.3-2 .4-2.6 1.5m-9.4-.5C140.4 319 144 329 147 329c1 0 .8-.4-2.4-6.8-.9-1.8-1.4-3.9-1-4.7q.6-2.5-1-.8M120 320q2 1.1-.2 1-1.8 0-1 1.7.5 1.6 1 .5c.4-1.4 4.2-1.6 4.2-.2q-.2.9-1.7 1.9c-1.6.9-1.5 1.2 1.1 4q5.7 5.8 7 .4c.6-2.1.3-3-1-3.8-1-.5-2.6-1.8-3.6-2.7s-2.2-1.8-2.8-1.8a1 1 0 0 1-1-1q-.2-1-1.7-1-2.2-.1-.3 1m-72.4 1.4q.6 1.4 1.5 1c1.2-.7 5 1.5 4.4 2.6q-.4.8.4 1.5t0 3.5c-.6 1.6-.9 3.5-.6 4.2.5 1.6 2.7-5.8 2.7-9.4q-.1-2.8 2.3-3c1.2-.3-.1-.6-3-.7a31 31 0 0 1-6.7-.7q-1.8-.8-1 1m79.9-.4q-.4 1 .4 1 1 0 1.1-1 0-1-.4-1-.6 0-1.1 1m-22.4 3.6c-2.3 3.8-2.7 7-1 8 1.4.8 1.5.7 3.2-5.3 1.9-6.3.7-7.7-2.2-2.7m45.9-2c0 1.8 3 2.6 4.6 1.3q3.3-2.7-1.6-2.5c-1.6 0-3 .6-3 1.2m-19.5 1.4q-.4 1 .4 1 1 0 1.1-1 0-1-.4-1-.6 0-1.1 1m7.3-.3c1.6.6 1.6 3.3-.1 3.3-2 0-6.7 2.4-6.7 3.4q.1.6 2.4.2 2.3-.5 3.7 1c1.2 1.4 1.4 1.4 2-.3.4-1 .8-3.3.8-5q.2-3.6-1.7-3.2-1.5 0-.4.6m129.4 1.3q0 2.2.5 1.3c.2-.7.2-1.9 0-2.6q-.5-.8-.5 1.3M94 326.5c-.6 1.5-.8 3-.6 3.3s1-.8 1.6-2.3.8-3 .6-3.3-1 .8-1.6 2.3m5.2-.7a6 6 0 0 1-.7 2.5c-.9 2-.1 3.2 1.4 2.2 1.4-.8 1.4-5.5.1-5.5q-1 0-.8.8m11.8.2c0 1 8 5.3 8.8 4.6.7-.8-1.9-4.7-2.8-4.1-.4.3-2 0-3.4-.5q-2.5-.9-2.6 0m44 1q0 1 1 1t1-1-1-1a1 1 0 0 0-1 1m11 1q.1 1 1 1t.5-1-1-1-.5 1m-76.2 7.5c.4 5.6.2 6.5-1.2 6.5q-1.5 0-1.6 1 .2 1 1.5 1 1.3.2 1.5 2-.2 1.8-1.5 2-1.6-.1-1 2.5.9 2.7-.9 2.5-1.5 0-1.6 1 .2 1 1.7 1 1.9 0 .6 1.1c-.6.6-1 1.7-.7 2.4q.4 1.1-2 1.7c-1.4.3-2.6.2-2.6-.2 0-1-3.1-2.2-3.9-1.5q-.4.6 1 1.5 1.8 1.1-.3 1-1.6-.2-1.8-1.5 0-2.6-3-.5c-1.3.9-1.3 1.1 0 2q1.2.9.7 1.6c-.4.4-1.6-.3-2.6-1.5q-2-2.3-4-1.6-2 .5-2.1-.2c0-.4-.9-1.4-2-2-1.1-.8-2-1-1.8-.6s-.4 2-1.1 3.3q-2 3.4.5.8c1.8-1.5 2-1.5 4.9.8a12 12 0 0 0 4.3 2.4q1 .1 1.2.8c0 .4 2.5.7 5.6.6 5.1-.2 5.6 0 6.5 2.5q1 2.6 0 4.3c-.6 1-1 2.8-1 4 0 2.3 0 2.2 1-.2l2.1-4.7c.6-1.1.7-2.6.4-3.2q-.7-1 1.1-.5c1.7.5 1.7.5 0-1-1.8-1.4-1.7-1.6 2.7-4.7a17 17 0 0 0 5.2-5q1-3.6 4.8-.1 1.8 1.4-1-2.3l-2.9-4 4.2 3.5c2.3 2 3.8 3.7 3.2 3.8-1.7.7.2 2.2 2.7 2.2 1.4 0 3.5.7 4.8 1.5a48 48 0 0 0 15.6 4.1l3.5.5-2.5-1.6-2.5-1.6 3.5.7 3.5.6-2.4-2.6q-3.3-3.3.2-2.7.7-.1.7-2.5c0-3.4-3.6-8.4-6-8.4-2 0-4 2.8-4 5.2 0 .7.8 0 1.6-1.4.8-1.6 1.9-2.8 2.4-2.8q2.2 0-.6 3.1c-1.5 1.7-1.5 2 0 4.4 1.7 2.6 1 3.4-1.2 1.3q-1.3-1.5-1.2 0 .2 1.3 2 2c2.7.6 2.5 2.3-.2 1.9-3-.5-4.8-4.1-4.1-8 .5-3 .3-3.2-2.8-3.1h-3.3l.3 5c.3 5-1.4 5.4-2 .5-.2-1.4-1-2.7-1.9-3q-1.9-.6-.2 1.1c1 1.3 1 1.7 0 2.1q-1.5.6 0 .6c1.8.1 1.5 1.8-.4 1.8-1 0-2.4-1.2-3.2-2.6a22 22 0 0 0-5.3-5.3 17 17 0 0 1-7-13.8q0-3.2-.5-2.2c-1 2-2.4.3-2.4-2.9 0-1.6-.4-2.9-.9-2.9s-.6 3-.3 6.5m58.3-4.6c-1.2 2.1 0 7.1 1.7 7.1 1.2 0 1.2-7.9.1-8.6-.4-.2-1.3.4-1.8 1.5m-80.8-.2c-1.5.5-1.7 2.3-.4 2.3q.8-.1 1.5-1.5.5-1.4.3-1.4zm42.1 1.6c-.3 5 .6 6.7 3.6 6.7 2 0 3-.7 4-2.6 1.6-3.5.4-4.8-2.1-2.4-2.2 2-3.8 1.8-3.8-.6 0-.8 1-1.4 2.2-1.4q3.8 0-1.2-1.3c-2.1-.5-2.6-.3-2.7 1.6m32.4-1.6c-1.2 1.2-.7 5 .8 6.3 2 1.7 4 .3 2.3-1.7a7 7 0 0 1-1.4-3q-.5-3-1.7-1.6m-46 3.5c-.3 1.2 1.5 3.8 2.6 3.8.8 0-.4-4-1.3-4.5q-.8-.4-1.2.7m25 1a9 9 0 0 0-1.8 2.8c0 1 7.2 7.1 7.7 6.6.3-.2.7-2.2 1-4.4.5-3.7.3-4.2-2.4-5.5-2.7-1.4-3-1.4-4.6.6M101 335q.1 1 1 1t.6.9.9 1.5.9 2 1 1.6 1 1q-.4 1 1.5-.2c2.7-1.6 2.7-1.7-.8-5.6-2.9-3-6.1-4.3-6.1-2.2m28-.1c0 .4 1 1.8 2.4 3l2.4 2.3 1.2-2.1c.6-1.2.9-2.5.6-3-.7-1-6.6-1.2-6.6-.2m-7.7 1.6c-.3.9-.3 1.9 0 2.2q.7.5.7-1c0-.8.8-1.8 1.8-2q2.4-.5 0-.6-1.7.1-2.5 1.4m88.2-.5q-2.6.7 1 1.3c1.7.3 3.4.2 3.8-.2 1.2-1.1-2.4-2-4.8-1.1m-37.8 1c.6.9 1.3 2.6 1.5 4l.3 2.5 2-2.2c1.4-1.7 3.1-2.3 6.5-2.4l4.5-.2-5-.7c-2.7-.4-6.3-1-8-1.5-2.5-.7-2.8-.6-1.8.6m-115.7.8q0 1 1 1.6.9.5.4-1-1.2-2.6-1.4-.6m158.6.8q-3.9.4-2.7 1.2 1.3.9-2.3 1.3c-2 .2-3.6 0-3.6-.3q-.1-.7-1.4-1.2-1.4-.6-1.3 1.9c0 1.8.5 2.4 2.3 2.4 1.2 0 2.6-.4 2.9-1s1.6-1 2.8-1q2.6-.1.7 1-1.2.8-1 1.2l3.5 1.8c2.6 1.4 3.1 2.3 4 8l1.2 6.5.4-4.8c.2-2.7 0-5.4-.3-6-1.2-1.9-1-9.2.4-10.5q1.5-1.4-.2-1zm-85 1.3c-1.5 5-1.5 7 .2 9 2.4 3 4.2 1.9 4.2-2.3 0-3.7-3.6-9.1-4.4-6.7m14.8.3c-.7 2-.2 4.8 1.1 5s1.9-4.3.6-5.6q-1-1.1-1.7.6M51 341q.1.8 1 .4.9-.6 1-1-.1-.5-1-.5-.9.1-1 1m45 0q.2 1 1.5 1t1.5-.4q-.2-.4-1.5-1-1.3-.4-1.5.4m19.8.8q-1.6.5-1.8 1.7c0 .7-.3 2-.6 3q-.4 1.3.6 1.5 1 0 .5-1-.4-.8.4-1.4.9-.4 1.6 1.4c.3 1 1 2 1.3 2 1 0 5.2-3.7 5.2-4.4 0-1-5.5-3.2-7.2-2.9m20.7.6c-1.8 5.9-1 15.2.9 10.1q.6-1.2 1.6-1 .8.5.4-.7-.3-1.4.5-2.2c.6-.3 1.1-1.6 1.1-2.9 0-3.5-3.6-6.2-4.5-3.4m127.2 0q-1.7.8-2.6.3t-1.6.5q-.4.9 1.2 1c1 0 2.4.5 3 1.2q1.2 1 2 .4.5-.8-.7-1.7-1.8-1.2.8-.6 2 .5 2.2-.3c0-1.3-2.5-1.8-4.3-.8m-204.2.8c-.7 1.2.4 9.8 1.4 10.4.3.2.6-2.3.6-5.5q0-8.3-2-4.9m70.8 1q-.1 1.8.8 2 .8-.2.9-2-.1-1.8-.8-2-.7.2-1 2m-83.7 0q-.5 1 .4 1a2 2 0 0 0 1.6-1q.5-1-.4-1a2 2 0 0 0-1.6 1m55.4-.7c-.8 2.2-.7 5.3.2 6.3 1.2 1.5 9.9 2 9.9.5 0-.7-9.9-7.4-10-6.8m-11.2 4.5c-1.8 3.8-1 6.7 1.3 4.5q1.2-1.1 0-1.7-1.1-.7.5-3 1.3-2.3.7-2.9c-.4-.3-1.6 1.2-2.5 3.1m11.2-.2c0 .2 1 .8 2.1 1.5q2.4 1.3 1.7-.2c-.4-1-3.8-2.3-3.8-1.3m84.8 0q1.2.5 2 0 .3-.6-1.4-.5t-.6.6m-40.8 2.1c0 1-.3 3.4-.7 5.2q-.7 3.4.5 2.6 1-.8.6-2-.4-1.4.5-2c1.4-.9 1.4-4.3.1-5.1q-1-.3-1 1.3m-5.4 3.6c-1.5 2-2.2 3.7-1.6 4.1q.9.6 1 1.7c0 .7-1.3 0-2.8-1.5-3.2-3-4.2-2.7-4.2 1.6q0 3.2 1.5 2.3l3.1-1.3q1.9-.8 1 1.3a5 5 0 0 0 .5 3.4q1.3 2 .6 0c-.2-.8 0-2.3.5-3.3 1-1.9 3.7-11.7 3.3-11.7-.2 0-1.4 1.5-2.9 3.4m25.7-.2c-2.6 1.2-3 2.8-1 2.8.8 0 3.2.8 5.3 1.7a15 15 0 0 0 4.7 1.5q.8-.1 1.4 1.7c.3 1 1.3 2.1 2.4 2.4q1.8.6 1.9 2.6c0 1.2.7 2.4 1.5 2.7q1.4.6 1.5 1.6 0 .8-1.2.2-1.2-.8-.5 1 1 2-1 1.2c-1-.4-3.3 0-5.3 1l-4.9 2.3c-1.8.8-16.2-2-17.8-3.5-.6-.6-1.6-2.7-2.1-4.5l-1-3.4-.1 4.2c0 3.7.3 4.4 2.7 5.7 1.6.8 5.2 1.8 8 2.2 2.8.3 5.3 1.2 5.6 2 .4 1.1 1 1.1 3.8 0 1.8-.7 4.2-1.2 5.3-1s2.4 0 3-.5a15 15 0 0 1 4.5-1.6q9.6-1.8 6-11.2a23 23 0 0 0-9-9.8c-3.7-2-11.1-2.6-13.7-1.3M80 354.5q0 1.5 1 1 .8-.4 1.5.5t1.6 1c1.4 0 .1-1.8-2.2-3q-2-1.3-1.9.5m126.2.5q-2.4 4.2.3 2c.8-.7 2.2-1 3-.6q1.4.4 1.5-.8c0-1-2-2.6-3.3-2.6zm-45.7 0q-.5 1 .4 1a2 2 0 0 0 1.6-1q.5-1-.4-1a2 2 0 0 0-1.6 1m-45.5 2.7c0 1.2.5 2.5 1 2.8 1.3.8 1.3-1.5 0-3.5q-1.1-1.8-1 .7M88.5 359q.7 1 1.6.5 2-1.4-.7-1.5-1.3.1-.9 1m124.8 1.9q1.2 3.4 1.5 1.6c.2-1-.3-2.4-1.2-3.3-1.4-1.5-1.5-1.3-.3 1.7m-10.8-.9q-.4 1 .4 1 1 0 1.1-1 0-1-.4-1-.6 0-1.1 1m-50.8 1.7q-.6.6-.7 1.7 0 .9 1.2-.2 1-1 .7-1.7-.6-.4-1.2.2m67.4.9q0 1.7.6.6.4-1.2-.1-2-.6-.3-.5 1.4m-98.5 3.9q1.6 1.3.7 1.5-1.2 0-1.3.9c0 1.3 3.6 2 5.1 1s1.5-.8-2-3.2c-3.1-2-5.2-2.3-2.5-.2m11.4-.6c0 .5-1 1.2-2.2 1.6-2.1.6-2 .7 1 1.5 1.8.4 3.5 1 3.8 1.3.7.7-1.6 4.6-5.1 8.6q-2.6 3-1.5 2.6a11 11 0 0 0 2.8-2.7q1.3-2.1 2.7-.8c.8.6 1.2 1.7.9 2.4q-.3 1.3 1 2c1.4.5 1.6-.1 1-4.3-.4-3.5-.2-5.6 1-8l1.7-3.2-3.6.7c-3 .5-3.4.4-3-1q.6-1.5.1-1.6-.5 0-.6.9m85.2 2.8c1.3 2.4 2.7 4.3 3.1 4.3 1.8 0 4.7-2.1 4.7-3.5 0-1-.7-1.2-3-.5q-2.9.8-2.5 0 .5-1-.6-1c-.6 0-1.8-.8-2.6-1.7-.8-1-.4.1.9 2.4M82 370.1q.1.8 1 .4.9-.6 1-1-.1-.5-1-.5-.9.1-1 1m39 2q.1 1 1 1t1-1q-.1-1-1-1a1 1 0 0 0-1 1m-74.7 4.4q-2.1 1-2.3 1.9c0 1.3 10.3.3 10.8-1q.3-1.2-1.1-.7t-2.2-.5c-.8-1.3-2.2-1.2-5.2.3m93.3 3.5q-.6 1.2-.2 1.8c.9 1 1.9-.4 1.4-1.8q-.4-1.5-1.2 0M81.2 384q0 3 .5 1.8c.2-1 .2-2.6 0-3.6s-.5-.1-.5 1.8m95.8 0c0 1.3 1.8 2.2 2.4 1.1q.5-.8-1-1.5-1.2-.4-1.4.4m-39 2.5c1.3 1.4 2.6 2.5 2.8 2.5.3 0-.5-1.1-1.8-2.5a12 12 0 0 0-2.8-2.5c-.3 0 .5 1.1 1.8 2.5m28.7 4.7q1.3 6.6 1.3 1c0-1.7-.4-3.4-1-3.7q-.9-.5-.3 2.7m-121.8-1.7c-1 1.4 1.2 13.5 2.3 13.5.6 0 .6-1.4.2-3.2l-1.3-7.3c-.4-2.2-1-3.6-1.2-3m139-.3-.3 3.6c-.3 2.7-.1 3 1 2.1 1.6-1.3 1.9-4.5.4-5.4q-1-.5-1-.3m-41 6q-.1 1.6-1.2 2.1t-.3.6q1.1 0 2.5-.9 1.7-.9.2-2.2-1.3-1.5-1.2.4M99.5 403q-.5 1 1 1 1.3 0 1.5-1 0-1-1-1t-1.5 1m39 4q.6 1 1 1t.5-1-1-1-.5 1"/></svg>