<svg xmlns="http://www.w3.org/2000/svg" viewBox="0 0 300 421"><path fill="#cc7e23" fill-rule="evenodd" d="M0 210.5V421l150.3-.2 150.2-.3.3-210.2L301 0H0zm.5.5c0 115.8.1 168.3.3 116.8.2-74 .5-93.8 1.5-93.8q1.5 0 0-.8c-1-.6-1.3-25.5-1.5-116.8C.6 52.7.5 95.2.5 211M82 10.8 5.7 11l.7 95.3 1.2 202.2c.3 58.9.8 107.4 1 107.8.3.4 6.7.5 14.2.3s65.2-1 128.2-1.6a14042 14042 0 0 0 142.9-2c1.2 0 1.3-14.9.7-102.2a42864 42864 0 0 0-2.2-246l-.6-54.9-66.7.3zm191.6 14.5q.6 1-1 .4c-.9-.3-1.9-.2-2.2.3q-.6.8-2 .4c-1.1-.5-1.3.2-.8 3q.6 3.6-1 6T266 38q1-.2 2.2-2c1.4-2.2 3-2.7 2.6-.7q-.2 1.1.7 1.2c.6 0 .9-1.9.7-4.2-.2-2.5.1-4.3.8-4.3 1.2 0 1.4 1.1 1 6.2-.2 3.7-.1 3.8 3.2 3.5 3.6-.3 3.4.6 2.8-10.7-.1-2.1-.7-2.5-3.6-2.6q-3.2 0-2.7.9m-71.9 2c-.2 1.2-1 2.3-2 2.5q-1.9.4-1.2-1.2c.8-2.2-1.5-2-3.2.1-1.8 2.5-1.8 8.3 0 8.3.8 0 2.1.3 3 .6 1.2.5 1.6 0 1.6-2.4 0-2.2.6-3.1 2.2-3.5 2.8-.8 3.2-.4 2.3 2.2-.3 1.2-1.4 2.1-2.3 2.1-1.5 0-1.5.1 0 1.7q3.7 3.3 4.1-4.3c.2-3.2-.1-3.9-1.6-3.8-1.9.2-2.3-1.1-.7-2.1q1-.6.5-1.6c-1-1.6-2.4-1-2.7 1.3m32.3.8c-2.5 3.4-2.7 4.8-.6 3q1.5-1.2 1.5-.2c0 .6-1.2 2-2.7 3.3l-2.8 2.2 2.8-.7c2.3-.5 2.7-.3 2.7 1.4s.4 2 2.8 1.4a8 8 0 0 0 4-2.6c.7-1 2-1.8 2.8-1.8q1.3-.1.9-1c-.3-.5-1.4-1-2.4-1s-2.4-.7-3.1-1.5q-1.5-1.6 0-1.5c1.8 0 .6-2.2-1.7-3-1.6-.7-2.5-.2-4.2 2m-53.3.3q3.4 3.7 1.4 3.6-3.7-.5-4.5 2.1c-.8 3.1-.8 3.5.2 3.5q1 0 1.7.8c1.4 1.4 2.4.7 4.1-2.8q1.7-3.4 3.5-3.5 1.6 0 1.3-1c-.3-.6-1.4-1-2.4-1s-2.6-.9-3.6-2-2.3-2-2.8-2q-.7.2 1.1 2.3m34.7-1.3q.3 1-1.7 2-2 .8-1 1c1.8 0 1.5 3-.4 3q-1.3.1-.9 1 .8 1.1 2 .6 1.1-.2 1.1 1.2c-.1 2 3.4 1.8 4.6-.1q.8-1.4 1 0c.2 2.8.3 3.2 1 3.9q.8.5.8-1.5 0-2.4 1.5-1.7c1.9.7 3.7-2.5 2.5-4.5-.5-.7-.7-2.2-.4-3.3.5-1.6.2-1.7-3.5-1.1q-4 .6-4.1-.4t-1.6-1.1q-1.3.1-.9 1m36 0c-1.1 1.8.2 2.3 2.5 1 1.2-.6 2.4-1 2.7-.6q.3.5-1 1.2-1.5.6-1.1 1.5t-2.5 1.5c-1.7.4-3.1 1-3.1 1.6 0 .5 1.6.6 3.5.2q5.7-1 2 3c-2 1.9 0 3.3 2.1 1.5q1.5-1.2 1-3.7c-.6-2.2-.5-2.4 2-1.8q2.8.8 2.2-.6-.6-1.2-2.9-1.8-3-.6-.6-1.3 1.6-.7 1.2-1.7c-.8-1.3-7.2-1.3-8 0m-164 2.1c-3.3.6-7 1-8.3 1s-4.8 1-7.8 2.4l-6 2.5a51 51 0 0 0-27.1 32.5c-.4 2.2-.5 8.6-.4 14.3.2 5.6-.1 10.2-.6 10.2s-.8 3-.7 6.8c0 3.7-.3 10-.8 14.2-1.4 11.9-1 26.8.8 33 1.4 4.7 3.5 14.5 5 22.7q.9 4.3 10 6.7l4.8 1.2.4 5.6.3 5.6-5.8 3.5a130 130 0 0 1-16.8 7.7c-6 2.3-12.3 5-13.9 6l-2.8 1.7 2.5.7c1.4.3 2.8 1.5 3.2 2.6q.7 1.8 2 1.3 1.5-.5 1.5 1.4c0 1.1 1.1 3.2 2.5 4.7s2.5 3.1 2.5 3.7c0 .5 1.2 1 2.8 1 3.4 0 5.7 1.3 4.8 2.8q-.8 1.2 1.8.1c2-.7 2.4-.6 2 .4q-.6 1.5 2.5 2 3.2.8 3.2 3 0 2.4.6.3c.6-2.2 1-2.1 3.4.2a6 6 0 0 0 4.7 1.6c1.5-.2 3.2 0 3.7.3 1.2.8 3.7 1.2 8.5 1.5 2 .1 4 .6 4.7 1q1 .6 1.8-.3c1.1-1.8 2.7-1 2 1q-.6 1.8.4 2 1-.1 1.1-1.4 0-1.4 4.5-1.8c2.5-.2 4.5 0 4.5.4q.1.8 1.1.8 1.2.1 2.3 1.6c.7.9 3.1 2 5.4 2.4 3.3.6 5 .3 7.8-1.2q3.8-2 4.7-.9c1.7 1.7 4.7 1.3 4.7-.7 0-1.6.1-1.6 1.4 0 1.6 2.2 2.7 2.3 2 .3q-.6-1.5 1.2-1.3l6.9-.1c4-.2 4.5-.4 2.5-1-2.4-.8-2.4-.9-.5-1.6 1.1-.4 2.8-1.5 3.8-2.4 1.4-1.2 2.2-1.3 3.7-.3s2.2.9 3.4-.3c.8-.8 2.4-1.5 3.5-1.5 1 0 2.3-.4 2.6-1 1-1.6 2.5-1.2 2.6.8q-.1 2.3.8-.2c.4-1.1 2-2.1 3.7-2.3 1.6-.3 3.1-.8 3.4-1.2 1-1.5 4.2-2 6.2-1q2 1.2 1.4 0-.7-1 2.3-.5 3 .7 3.1-.5 0-1.1-1-.6-1 .4-1-.5.1-1 2.5-.4 2.7.8 2.5-1c0-1.9 3.6-2.2 4.3-.3q.5.8.6-1.6 0-2.6-.9-2.2t-1-.7c0-.7 1.2-1.4 2.7-1.5a7 7 0 0 0 4.4-2.2c1-1.2 2.5-2.1 3.6-2.2q2.4.1-.2-.9-2.8-1 .5-1 2.3-.1 1.2-.7-1-.4-.7-1.3c.8-1.2-3.5-3.6-14.7-8.1-23.8-9.6-31.1-15.2-38-29.3-2-4.4-3.8-7.3-3.8-6.4 0 2.2-12.7 10.6-21 14a322 322 0 0 1-21 7.3 117 117 0 0 0-18.3 7l-3.8 2.6-1.5-3.8c-.9-2.1-3-5.3-4.7-7s-2.8-3.5-2.5-3.9c1.2-1 7.6 6.5 8.7 10.3l1 3.8-.4-3.5-1.1-7.1-.6-3.6 7-.7c4-.3 9.8-1.2 13-2a97 97 0 0 0 23.7-10.8c1.2-1.3 1.4-1.3-9 3.6a65 65 0 0 1-34.5 7.3c-10.6-.5-18.9-2.6-21-5.3-.8-.8-1.9-5-2.6-9.2s-2-10.2-2.9-13.2a82 82 0 0 1-1.5-30.7c.6-4.2 1.2-9.1 1.2-11 0-1.8.4-3.3.8-3.3q.7.2.6 1.7 0 1.8 3.4 3 4.5 1.4 1 1.2c-1.5 0-3.2-.5-3.9-1.2q-1.4-1.5-1 .8.6 1.9 2.7 2.3 2 .4 2.2.9c0 .3-1.6 3.1-3.5 6.3-4.7 7.7-4.6 10.2.6 13.7a15 15 0 0 1 5 5c1 2.5 2.9 2.3 2.9-.3q.2-1.3 2.3-1.4c3 0 6.7-2.7 6.7-4.8 0-1.9-3-6.3-3-4.4q.1 1 1 1.7 2.3 1.3-1 4.4c-1.8 1.5-2.8 1.7-5.3 1-4-1.1-4-1.1-3.1.2q.3.9-2.2-.7-6.4-4-6.4-5.9a68 68 0 0 1 5-10.2c5-8.8 5.5-11 5-18.6-.3-3.1-3.3-5.7-6.8-5.7-2.3 0-2.3-.2-1.8-5.2l.6-7c0-1.7.2-1.7 2.9.3 2.3 1.7 4.5 2.1 11.2 2.4 4.6.1 13.4.6 19.4 1l11 .8 5.1 5c6.7 6.3 8.4 7.5 16.3 10.8 7.2 3 9 5.2 9 11.1.1 4.5 2 8.8 3.8 8.8q1.2-.1 1.3-1t1-1q1 .2.5 2t.4 2q1 0 1.1-1.2 0-1 .6-.6c.3.4-.1 2-1 3.5-2.3 4.6-.4 6 2.8 2.2 3.4-4 4.4-3 2 2.1-2.8 6.4-5.7 9-10.1 9q-4.3 0-2 1c2.3 1.4 6 .3 8.8-2.6a7 7 0 0 1 5.7-2.4c3.1 0 3.4.2 2.7 2.3a70 70 0 0 0-3.5 18.9c0 5.5-.1 5.8-4.7 9.8a51 51 0 0 1-19 10.5c-4 1.6-7.2 3-7 3.2.5.4 12.8-4.2 18-6.8a50 50 0 0 0 9.2-6.9l5-4.7V152c.2-12.2 2.3-16.8 12.7-27 7.8-7.7 9.4-10 13.2-18.1 2.3-5.1 4.8-11.2 5.6-13.5 1.7-5.4.9-18.1-1.6-24.3a80 80 0 0 0-25-29.9l-5.4-3c-5-2.8-20.8-6.8-29.5-7.4a79 79 0 0 0-13 .4m72.3-.4c-2 .5-2.4 2-.6 2.5 2.1.7 0 3.8-2.7 3.8q-2.3.1-2.5 1.1 0 1.2 3.1.5c1.7-.3 5-.6 7.1-.6q4 0 3.5-1.2c-.2-.8-1.6-1.2-3.2-1-2.3.3-2.7 0-2.1-1.3l.6-2q.1-.5 1.5-.5t1.5-1c0-1-3-1.2-6.2-.3m15.8 1-1.2 3.3q-.4 1.1 2-1c1.4-1.3 2.6-2.7 2.6-3.2 0-1.5-2.8-.8-3.4 1m46.4 1.4q0 2.6 1 2.8c1.3 0 1.3-2 0-4q-1.1-1.9-1 1.3M16 32q.1.9 1 1 1-.1.5-1t-1-1q-.5 0-.5 1m220.7.5q-.7 1.3 1.4.8 3.4-.8.5-1.6-1.4-.4-2 .8m-40 1q.7 1.3 1 1.5.3-.2.4-1.5 0-1.3-1-1.5-.8.2-.4 1.5m-16.4 1.1q-1 1.3-.3 1.4c1 0 2.5-1.9 2-2.5q-.5-.1-1.7 1.1m-75.7.4q.7 1.5-3.2 1c-1.5 0-2.6 1.7-1.8 3q.6 1 2.7 0 2.3-1.6 1.6.2-.6 1.2-1.6 1.4l-2.7.3Q98 41 98 44c0 1.9-.7 3.7-1.7 4.5-1.7 1.3-1.7 1.3 0 1.4q1.6 0 1.7-.9c0-.5 1.5.6 3.4 2.5 2.9 2.9 4.1 3.4 8 3.4 2.4 0 4.8-.5 5.1-1q.6-.9 1.5-1c.6 0 .1 1.4-1 3.2-1 1.7-1.6 3.6-1.3 4.1q.7.6 1.9-2.1c1-2.3 1.7-3 3.3-2.5 2.2.5 3.5 3 2.1 3.8-.4.3-1.6-.2-2.4-1-1.5-1.5-1.7-1.4-2.7 1.4-.6 1.7-1.5 2.9-1.9 2.6-1-.6-2.2 2.4-1.4 3.6.9 1.5 2.2 1 2.7-.8q.5-2.3.6-.2c.1 2 5.1 3.5 6.1 1.9q.7-1.2 1.3.3c.3.9 1.8 1.7 3.4 1.9 2.3.2 2.7.7 2.5 2.7q-.3 2.2.7 1.6c1.4-.8 1.4-5.7 0-8.8-1.6-3.5 1.3-8 4.4-6.8 3 1.1 4.6 4 2.9 5q-1.3.8-1.4 1.7c0 .5-1 1.5-2.1 2.2q-2.8 1.8 2.7-.4 1.3-.5 2.4 2.5c.6 1.6.8 3.1.6 3.4-.7.7 8.4 0 9.6-.8.5-.3 1-1.6 1-2.8q.1-3.1 1.1.5c.9 2.3 3.6 4.4 4.5 3.5a73 73 0 0 0-7.7-15.8c-1.1-1.6-3-2.9-4-2.9-2.4 0-2.5 1.6 0 2.3q1.8.4 2.4 4.5l1.3 5.9q.9 2.3-.7-.2A18 18 0 0 1 145 61q-.6-3.4-2-3.5c-2.1 0-2.5-3.6-.6-5 1.5-1.1 1.5-1.4 0-2.6-1.3-1-1.7-1-2.5.2-.7 1.2-1.3 1.1-4-.4-1.7-1-3.7-1.7-4.5-1.7q-1.4 0-1-1c.8-1.2-3.1-3.3-4.5-2.4-.6.3-1 1.9-.7 3.4.3 2.2-.2 3-3.4 4.8-2.1 1.1-3.6 1.6-3.3 1.1q.5-.8-.5-.9c-.6 0 0-1.3 1.1-3 3.8-5.1 1.3-15-3.8-15-1.8 0-1.7 5.7.2 11q2.3 6.9-2.1 7-1.7.2-.3-1.8c.9-1.4.8-2.5-.5-5q-2.7-5.2-.6-3.7.9.5 1-.4c0-.6-1-1-2.2-1-5.4.3-5.7 0-5.1-3.6q.6-3.5-.6-3.5-1.1.1-.6 1m-22.6 1.4c-2.5.7-7 2.7-10 4.4l-9.4 5.1c-4 2-7.1 4.6-11 9l-2 2.3 2.9-.8a17 17 0 0 0 6.2-3.8q6.9-6.6 9-6.6c.6 0 2-1 3-2.1a17 17 0 0 1 5.1-3.5c3.9-1.7 14.7-2 13.8-.4q-.8.9-2.3.6c-1-.3-2.4-.1-3.2.4q-1.5 1-.2 1c2.3 0 .6 6.1-2.3 8.2q-1 .8.1.8c1.2 0 1.1 4 0 6q-.5.9.8 1t1 1.4q-.5 1.4 2.7 2.5c1.8.6 3 .8 2.6.5s.3-1.8 1.3-3.2c1.1-1.3 2-3 2-3.7s.7-1.6 1.6-1.9q1.3-.6.9-1.6-.7-1-1.6-.5-.8.5-.9-1.5c0-1.2-1.3-3.5-3-5-1.5-1.7-2.5-3-2-3q.9.1 1.5 1c1.1 1.8 2.5 0 2.5-3.5q0-3.1-1.6-3.9c-1.9-.7-1.8-.7-7.5.8m12.9-.7c-1 .3-2 1.7-2.4 3.1s-1 3.4-1.4 4.3c-1.1 2-.1 3.2 1.6 1.8q1.2-1 1.9 0c1.2 2 2.5 1.1 2-1.2-.4-1.2-.2-3.5.4-5q1.8-4-2.1-3m142.2.4q0 .8 1 .4 1-.6 1-1t-1-.5-1 1m-115 5c0 3.2 1.7 5 2.6 2.7.8-2.1 4.2-1 9.2 3.1 2.3 2 4.5 3.2 4.8 2.9q2-2.2-6.8-6.9c-10-5.2-9.8-5.2-9.8-1.8m-44.5.4C73 42.7 69 47.7 69 52.2c0 4.3 2.6 8.9 4.7 8 1.4-.5 1.4-.7-.5-1.5-1.2-.6-2.2-1.5-2.2-2q0-1 1.1 0c.6.6 1.7 1 2.4.7q1.2-.4 2 .6c1 1.7 3.5-.8 3.5-3.7 0-1.3-.5-3.3-1-4.4-.8-1.5-.8-2.4 0-3.5q1.2-1.3.5-1.4c-.4 0 0-1.1 1-2.5a9 9 0 0 0 1.3-2.4zm27.1 3.3c.6 3.9.4 4.4-1.7 5.2-2.5 1-2 1.4 2.6 2.4 1.9.4 2 0 2-4.2 0-2.5-.4-4.7-.9-4.8q-.9-.2-1.8-1.5-.8-1-.2 3m-4.7-2.5-.5 3c-.2 2.1.1 2.7 1.7 2.7q1.7-.1 1.9-1 0-.9-1-1-.7-.2-.3-2t-.6-2q-1 0-1.2.3m-18.3 3.3q-.6 1.7-.1 2.2.4.3 1.1-1.2.6-1.7.1-2.2-.4-.3-1.1 1.2m39.5 3q-2 4.3 1.2 2.8c1-.3 1.5-1.4 1.4-2.5q-.7-4.4-2.6-.3m-55-.2c-.7.8-1 2.5-.6 3.9s.2 2.8-.4 3.2q-1 .5-1-.2c.4-2.5-.3-4.3-1.7-4.3q-1.7 0-1.1 2t-1 1.3c-.8-.3-2.3.4-3.4 1.6-1 1.1-1.5 2.1-.8 2.1q1.1.2.7 3-.8 5.7 3 2.4c2.3-1.9 1.8-5.4-.7-5.4q-2 .1-.1-1 1.4-.8 2-.2c.3.4 1.7 1.5 3.2 2.4 2.5 1.6 2.7 1.6 3.3 0 1-2.1 1.2-12.2.4-12.2q-.8.1-1.8 1.4m22 2.4c.2 1 0 2.2-.3 2.7s0 1.6.8 2.3c1.2 1 1.4.6 1.4-2.8 0-2.2-.5-4-1-4q-1 .1-.8 1.8m9.3 0c-1.2.9-1.7 6.2-.6 6.2.5 0 1.1-1.5 1.4-3.2.5-3.8.5-4-.8-3m-23.2 2.7c-1.3 1.2-2 2.5-1.7 2.8.4.4 1.6-.5 2.6-1.9q3.7-5-1-.9m59.9-.2c1.8 1.2 3.8 3.6 4.4 5.2.5 1.7 1.6 3.6 2.2 4.3s1.3 2 1.3 2.7q0 1.3 1 2c1.4.8-1-5.4-3.6-9.7-2.3-3.6-6-6.8-7.8-6.8q-.6.2 2.5 2.3m-63.4-.7q-.7.8-.7 2.3 0 1.6 1.1.4 1-1 .7-2.3-.4-1-1-.4m12.5 2q0 2.2 1 2.1c1.5-.5 1.7-3.5.2-4q-1.2-.6-1.2 2m43.2-1.3c-1.5 1-1.6 1.6-.6 3.5s1.5 2 2.7 1q1.3-1 1.4-.3c0 1 2-1.7 2-2.6 0-.3-.9-1-1.9-1.7-1.5-1-2.3-.9-3.6 0m-27.2 2.1q.1 1.2 1.3 1.3 1 0 .8-.9-.3-.7.5-.8c.6 0 1 1.3.8 3q-.2 4.9-2.7 1.5-1.2-1.5-3.8-.8c-2.2.5-2.4.3-2-1.6q.5-1.8 0-2C93 55 89 62 90 62q.8.1.4 1.3c-1 2.6-8.4 0-8.4-2.8q-.2-1.4-1.7-1.4-1.6 0-.5.6 3.4 1.6-3.3 2c-8 .3-8.1.4-7.8 3.8l.4 3-1.4-3c-.8-1.6-2.4-3.8-3.5-4.9-2-1.8-2-1.8-1.8 1 .3 3.5-1.3 7.4-3 7.4-1.3 0-2.9 9.4-1.9 11 .9 1.4 4.4.3 7-2 2-1.8 2-1.8 3.2.6q1.6 4-1.4 1.3-1.1-1.2-1.7 0-.5 1 .6 1.2l4 .5q4.8.6 1-2.2c-1.5-1.2-1.5-1.3.8-.8q3.7.9.3-.7-4.4-2.1-.2-6c2-2 2.1-2 3.4-.2 1.4 1.7 1.4 1.7 1.5 0q-.1-1.9 2.3-1.5 2 .2 2-.7.2-.8 2.8-1.2c1.6-.1 2.9.2 2.9.8q.1.9 1 .3c.7-.3 1-1.5.7-2.5q-.4-2 .6-1.2c.7.4 2.1.6 3.2.5q2.1-.3-1.5 2c-2 1.2-3.9 2-4.4 2q-.7-.1-.2 1.5c.6 1.5.4 1.4-1.5-.3-2.1-1.9-2.1-1.9-1.9.6.3 2.7-.8 6.1-2.3 7.1S79.8 82 82 82c1.5 0 2-.9 2.3-4.2l.4-4.3.1 4.3c.2 4.8 3 9.7 6.2 10.7q1.8.7 1.5 1.5c-.3.5.8 1.8 2.4 3 3.8 2.6 5.2 2.6 1.7 0Q92 89.1 98 89.1c3.4 0 5.3-1 4.5-2.1-.7-1.3-5.5-1-5.6.3q0 .8-.9-.9c-1.2-2.7-1.2-4.3 0-2.5q1.1 1.9 1-.9 0-2.2-1.4-1.8t-1.2-1.6q.1-2.2 1.9-2 1.5 0 1.1-.8c-.8-1.3-4.2-1-4.7.3q-.4 1-.4-1c.1-1.7.6-2 2.7-1.6q2.4.6 1.2-.3c-1.3-1-.6-4.3 1.2-5.5 2-1.3 4.8 1.2 4.3 3.8q-.5 2.5 1.3 3.4 1.8 1 1.3 3.2-.7 2.7.6.8c1-1.3 1-1.3 1 .3q0 1.6-.9 1.7t-.4 1.8-.3.6c-.4-.6-1.8-.7-3.3-.3l-2.5.7 2.8.1c1.5 0 2.7.6 2.7 1.2q0 1.2 1.5-.1c1.3-1 1.5-.9 1.5.9 0 1.1.5 2.1 1 2.1s1-1.8 1-4q0-3.8 1.8-5.2c1-.7 2.2-2.2 2.8-3.3q1.2-1.9 3.3-1.8 2 .3 2.1-1.3c0-3-8.5 1-10 5-.7 1.8-.9 1.6-1-1.5 0-2.7-.8-4.6-3-6.9-3.5-3.7-3.7-4.4-1.1-3.5 2.1.6 4.6-1.8 3.6-3.7q-.5-1 1 .6c1.8 2.3 2.3 2 3.1-2.2.6-3 .5-3.2-2.6-3.2q-3.4 0-2.6 1.5.4 1.3-.3 1.5c-.8 0-2.1-2.3-2.1-3.6 0-.2 1.7-.5 3.8-.5l3.7-.1-4-1c-7.1-1.6-8.2-1.6-8.2-.4m-83 2.2q-1.2.6-1.3 1.5c0 .5 1.1.4 2.5-.3 1.9-.8 2.8-.8 4.1.3q2.1 1.8 1.2-.1c-.5-1.5-4.3-2.3-6.5-1.4M48 61c-2.7 2.5-3 3.6-3 7.8 0 2.6.6 5.7 1.4 6.7 1.4 1.8 1.5 1.5 1.5-4 0-4.7.4-6.2 1.9-7 1.8-1.2 3.5-6.4 2-6.4-.3 0-2 1.3-3.8 2.9m46.4.1c-1.7 1-2.5 2-2 2s2-.7 3.1-1.5 2.4-1.1 2.8-.8q.5.4.6-.5c0-1.7-1-1.5-4.5.8m154.2-1.3q-1.7.5-1.3 1.9c.7 1.9-1 1.8-2.2-.1a2 2 0 0 0-2.5-1c-2 .8-2.3 3.5-.4 3.6 7.5.5 10.7.3 10.7-.8 0-1.7-1.1-4.3-1.9-4.2zm6.6 0c-.7.2-1.3 1.3-1.3 2.4q-.1 2 2.6 1.9 2.9.1 2-1.6-.5-1.5-.6-2.5 0-1.5-2.7-.2m5.6-.3-.4 1.8q-.3 1.8 1.3 1 1.6-.6.7.8-.8 1.3.4.6 1-.8.5-1.7t.4-.7q1 .2 1.1-.7c.1-.7-3.5-1.8-4-1.1m8.2 2.4q0 2.3.6 1.5a4 4 0 0 0 .3-2q0-.6 1.2-1.4 1.5-1-.4-.9-1.9-.1-1.7 2.8m-150.2-1.6c-.6 2.3-.3 4.8.6 4.8 1.3 0 1.7-3.7.4-4.5q-.9-.6-1-.3m65.5.9c-1.1 1.9 1.3 3.4 3.1 1.9q1.9-1.4.3-2.1c-1.8-1.2-2.6-1.1-3.4.2m6.8-.4c-.6.2-1.2 1.3-1.2 2.4 0 1.5.7 1.9 3.2 1.9 3 0 3 0 1.5-1.8-1-1-1.4-2.2-1-2.5.7-.8-.6-.8-2.4 0m6.4 0c-.4.3-.7 1.5-.7 2.5 0 1.7.2 1.8 1.5.4.8-.8 1.5-2 1.5-2.5 0-1.2-1.3-1.5-2.3-.4m5.3 1.8c0 2.5 1.5 3.2 3.6 1.7 2-1.3 1.2-4.2-1.3-4.2-1.8 0-2.3.5-2.3 2.5m6.7-1.8c-1.1 1 1.3 4.1 3 3.9 2.6-.4 2.3-3.8-.3-4.2-1.2-.2-2.4 0-2.7.3m6.8 1.5q.3 2.2 2 2.5t.9-.3c-.7-.3-1-1.4-.7-2.4q.6-2-1-2-1.3.1-1.2 2.3m5-1.4q-.4 1 .7 1.4 1.5.6 0 .6c-2.3.2-1.2 2.1 1.2 2.1 2 0 2.4-.5 2.2-2.5-.1-2.5-2.8-3.5-4-1.6m6.4 1.2c0 2.2.4 2.6 2.3 2.2 2.2-.4 3.5-3.3 1.5-3.3q-.7 0-.8 1.2-.1.9-1.5-.8c-1.4-1.8-1.4-1.8-1.5.7m7.6-.5c-1 2.7-.7 3.4 1.9 3.4q2.3 0 2.5-1c0-2-1.3-4-2.5-4q-1.2.1-1.9 1.6m39.4.3a5 5 0 0 1 .1 4.8q-2.2 5.2.4 1.9 3-3.6 0-7.2-2.2-2.8-.5.5m-94.4 1c-.8 2.5.3 8 1.6 8 .4 0 .4-1.2-.2-2.7a10 10 0 0 1-.4-5c.7-2.8-.1-3-1-.3m-127 0q.6.9 1 1 .5-.1.5-1-.1-.9-1-1-1 .1-.5 1m20 .6q-1.3 1.6-1.2 2.8c.5 1.5 4.7 2 4.7.6q.1-1 1-.4 1.1.6.8-1.7c-.4-3-3-3.6-5.2-1.3m-56.4 1.3c-1.7 1-1.6 1.7 0 3.5 1.5 1.6 5.3.2 4.3-1.5q-.7-.7-1.7-.3-1 .6-.4-.4.8-1 2.1-.5T23 65c0-1.3-4-1.4-5.8-.2m66 .2q.5 1.2 1.7 1.7 1.3.4 1-.9-.6-1.2-1.8-1.7t-1 .9m41.7-.4q1.2.4 2-.1.4-.5-1.4-.5t-.6.6m-30 1c.6.2 1.8.2 2.5 0q.8-.5-1.3-.5-2.3 0-1.2.5m173.5 0c-2.3.9-1.4 4 1.2 4.5 2.2.5 2.5.2 2.5-2.3q.2-4.1-3.7-2.2M53.4 70.5c0 5.9 2.1 5.9 2.3 0q.3-4.5-1-4.5t-1.3 4.5m139.3-3.8c-2.2.6-2.3 2.7-.2 4.7 2 2.1 2 2.1 2.2-1.9v-3.4zm11.3 1c-1 2-.4 3.7 1.5 4 1.7.3 2.4-3.5.9-4.7q-1.3-1.4-2.4.7m6.5-.1q-.5 1.4 0 3c.6 1.3.8 1.2 2-.3 1.7-2.3 1.7-3 0-3.6q-1.4-.5-2 .9m6.4-.6q-1.2.9-.5 1 .8 0-.5 1c-1.6 1-1.4 1.5 1.5 2.4 1.7.5 2 0 2.2-2.4.2-3.2-.3-3.6-2.7-2m7 0q0 1-.9.6-.8-.3-1.4 1.4c-.4 1.7 0 2 2.8 2 3.2 0 3.3-.1 2.2-2.5-1.2-2.5-2.7-3.3-2.7-1.4m5.7-.4c-.4.3-.7 1.6-.6 2.7q0 1.8.6.8c.2-.6 1-1.2 1.4-1.2q.9.1.4 1t.5 1q1.1-.1.6-1.6-.5-1.6-.6-2.5c0-1-1.4-1.2-2.3-.2m12.3.3q-1.4 1-.2 1 1 .1 1.2 1.8-.1 2.1 1 .2.8-1.3.4-2.1-.2-.7.8-1.2 1.4-.6-.2-.6a7 7 0 0 0-3 .9m6.7-.2a4 4 0 0 0-.1 2l.3 2.5q.1 1.2 1.5-.5t1.9-1.2 0-1.5c-.5-2-2.8-2.9-3.6-1.3m6 1.2c-.6 2.3 0 2.5 2.6.6 1.6-1.2 1.6-1.4.1-2-2.2-.8-2.1-.9-2.7 1.4m-212 .3c-1.8 4.6 0 11.4 3.1 11.8l2.6.4c1.5.3 1.3-.2-1-2.6a13 13 0 0 1-3.4-7.1q-.5-4.6-1.3-2.5m66.9.4c-.8 2-.9 2 1.8 2.7 3 .7 5.8-.2 5.3-1.7-.6-1.9-6.5-2.7-7.1-1m74.4.4q0 1.7 1 1.4 1-.5 1 .4.1 1 1.5.5 1.4-.8 1.5-2.5.1-2-2.5-1.9-2.7-.1-2.5 2m13.6-.4q-.6 1.7-.2 2.1c.8.8 2.6-.8 2.6-2.3 0-2-1.6-1.8-2.4.2m63.6 0c.9 1 2.1 1.3 2.7 1 1.6-1 .3-2.6-2.2-2.6-2 0-2 .1-.5 1.6M63.2 71q0 2.2.5 1.3c.2-.7.2-1.9 0-2.5q-.5-1-.5 1.2m5 0q0 2.2.5 1.3c.2-.7.2-1.9 0-2.5q-.5-1-.5 1.2m189.6-1.3q1.2.4 2-.1.3-.5-1.4-.5t-.6.6m-109.3 2.7a9 9 0 0 0-2.6 2q-.8.7-2.5.2a5 5 0 0 0-3.4.5q-1.8 1.2 1 .4 3.3-1-.9 1.5a10 10 0 0 0-3.8 4c-.6 2.1-1.8 2.6-2.7 1.1-.3-.5-1.5-1.1-2.6-1.4-1.7-.4-2 0-2 2.3 0 2.4.5 3 2.7 3.2 1.4.2 2.9 1 3.1 1.8q.9 2-1.2 0c-1.5-1.2-1.9-1.2-2.7 0-1.3 2.2-1.1 2.7 1.3 3.3 1.3.4 2.6 0 3-.6q.8-1.3.8.4c0 .8 1 2.4 2.3 3.5 3 2.8 7.7 5.6 7.6 4.7q-.8-4.4 2.6-3.8 2.3.1 2.5-.5c0-1.2-2.2-1.8-5.2-1.4q-2.6.2-4.9-2.2c-1.2-1.3-1.7-2.4-1-2.4q1 .2 1.7 1.5.8 1.3 2.5 1.5c2.1 0 2.6-1.6.7-2.3q-1-.5.6-.6c1 0 2.5-.9 3.3-1.8q1.3-1.5.8-.5t.4 1.2q1-.2 1.1-2 0-1.9 1.4-1.4c2 .8 2.4 4.4.9 7.7-1.6 3.2-.8 5.4 1.3 3.6q1.3-1 1.4-.1c0 .5-1.7 1.7-3.7 2.5l-3.8 1.6h3.2q3.3.1 4.3-2c.7-1.1 1-2.3.6-2.6-.3-.3 0-1.4.5-2.5 1-2 1.2-6.9.4-12.8l-.7-4.8q-.1-1-1.2-.9c-.6.3-2-.3-3.1-1.3-1.6-1.4-2.4-1.6-4-.6m-50.7.3q1 .5.6 1.4-.3.8.5.9 1 .1.4 1.8-.7 1.8.5.7c1.6-1.4.3-5.5-1.7-5.4q-1.5 0-.3.6m38.2.2q-.2 1-2.5 1.7-2.6.5-2.5 3c0 3 1 3 4.4.3 2.7-2.1 3.3-4.3 1.6-5.4q-1-.5-1 .4m-118.5.8c-.6.5-1 2-1 3.3 0 2 .5 2.5 3.3 2.6 3.1.2 3.3 0 3-3-.3-3.1-3-4.6-5.3-2.9M87 74q.1.9 1.6 1 1.3-.1.9-1-.6-.9-1.6-1-.8.1-.9 1m22 0q.1 1 1 .5t1-1q-.1-.5-1-.5-.9.1-1 1m-47 1.5q.2 1.3 1.5 1.5 1.3-.2 1.5-1.5-.2-1.3-1.5-1.5-1.3.2-1.5 1.5m60-.4q.1.8 1 .4.9-.6 1-1-.1-.5-1-.5-.9.1-1 1m27.5.2c1.7.6 4 2 5.3 3.1s2.2 1.6 2.2 1c0-1.5-6.3-5.3-8.6-5.2q-2 0 1.1 1.1m-30.9 3q-1.3 1.7-1.7.9-.5-.9-1.7-.3c-1 .6-1 1.6-.1 4 1.2 3.6 3.9 3.4 3.9-.4q.1-2.3 2.6-3.7c2.6-1.4 2.6-1.4.5-2q-2.1-.5-3.5 1.5m-43.8-.5q1.2.4 2-.1.4-.5-1.4-.5t-.6.6m12.6.9.6 2q.1.4.8.4.7-.2 1-2 0-1.9-1.5-2-1.5 0-1 1.6m13.6.5c-.9 1.7-1.3 1.9-2 .8q-.9-1.5-.9.8.2 3.7 3.9 1.4 1.2-.9.6-2.1t.6-2.1q1.4-.9.2-.9c-.7 0-1.7 1-2.4 2.1m25.6-1.1q.6.9 1.6 1 .9-.1.4-1t-1.6-1q-.9.1-.4 1m15.5 2q-1.7.9-.3 2.1 1.3 1.6 1.9-.5 1.1-3.3-1.6-1.6m3.3.5q-1 2.7 2.4 3.1c2.7.4 4.6-1.6 3.2-3.2-1.5-1.9-4.8-1.8-5.6.1M18.2 83.3c-1.5 1.8.4 5.7 2.8 5.7 1 0 2-.4 2-1q-.2-.7-2-.3t-2-.6q0-1 1.2-.8c1.8.3 2.1-3 .4-3.6-.8-.3-1.9 0-2.4.6m117.8.5q.1 1 1.3 2.5 1.3 2.5 1.3-.8.1-2.4-1.2-2.5-1.3.1-1.4.8m16 4.4c0 1.5-.5 3-1.2 3.4q-1 .6-.4-.4.5-1.1-.8-1.2c-2 0-2 1.6 0 2.4 2.2.8 2.2.8 3.2-1.2.5-1 .6-2.6.1-3.7q-1-2.8-.8.7m-52.4 2.5c-1.6.4-1.3.9 1.6 2.9 2 1.3 4 2.4 4.6 2.4q1 .1 1.1.8c0 1.3 7.6 3.6 9.4 2.9q1.5-.6 1.6.7c0 1.4 2.9 3 3.8 2.1q.3-.6-1.4-2c-1.9-1.4-1.9-1.4.2-1.5q4.3-.1 2.2 3.4c-2.3 4.4-.1 14 2.7 11.6q1.2-1 2-.1.3.8-.7 1.4c-2 .7.3 2.6 4 3.3q3.1.7 3.2-.5.1-1 1-1.1 1 .1.4 1.1-.7 1.2 1.7.4c3.2-.9 7.9-6 7.9-8.5q0-1.8 1-2 1 .1 1 1c0 1.6 3.7 1.1 4.4-.6q.7-1.6-1.3-1c-2.4.8-5.1-.2-5.1-2 0-4.4-3.3-7.4-13.2-12q-4.9-2.5-4.1-.8.4 1.3-.6 1.4t-1.1.8c0 .5 1.5.7 3.3.5q4.6-.6-1.3 1.4a66 66 0 0 1-15 .4c2.5-.7 2.5-.7.3-1.3q-2.1-.4-2.3.3-.1.8-1 .9-.9-.1-1-1.4-.2-1.3-1.5-2-1.3-.5-1.3-1.7c.3-1.3-3.6-2-6.5-1.2m-79.2 2q-.6 2-1.4.4-.9-1.5-1.4.8-.4 2 .4 2.7.9.4 1-.8-.1-1.5.8.1 1 1.3 2.7.7 2.1-.7.5-1.5-1.2-.8-.3-1.2.9-.5-.3-1.6-1.4-1.6-2 .5m49.4 0c-5.2 1.7-6.3 2.3-5 3.1q1.6.8-.3 1.4-3.2 1.1.3 6.8 1.8 3 2.4 1.7c.3-.7.6.4.6 2.4q0 6 6.3 5.7 3 0 .3-.6c-4.2-1-3.8-2.3.5-2.3a24 24 0 0 0 8.5-2l4-1.8-3-.8-3-.8 3-.6c2.6-.5 2.1-.8-4-2.3-3.8-1-8-1.7-9.1-1.7-1.7 0-2-.5-1.6-2.6q.4-3 1.4-1.2.9 1.5 1.5 0c.2-.6 1.6-1.2 3-1.2 3.7 0 13.3 3 17 5.2 1.8 1 3.3 1.5 3.3 1 0-3.9-20.3-11.2-26-9.4m146 5.8q-.1 3.6 1.1 1 1.2-1.8 0-2.9-1.1-1.3-1 1.8m5-.6c-1.5 2.7-1.4 3.1.7 3.1q1.6-.1 2-2c.1-2.8-1.5-3.4-2.7-1m-94.2.6c-1 1.2-1 2 0 3.5q2.3 4-.4 5.3-1.3.6-1.5 1.6 0 1 1 .5c.4-.3 1.2 0 1.6.6q.6 1.1-.4.5-1-.4-1.8.5-.7 1.3 2.5.4c1.7-.3 3.1-.2 3.1.3q.2.8 1.4.9 1.3 0 1.3-.7c-.1-.4.8-1.6 2-2.6s2.4-3 2.8-4.1c.5-1.9.1-2.5-2-3.3-1.5-.6-3.1-.7-3.7-.4q-.9.3-1.5-1.4c-.7-2.7-2.8-3.5-4.4-1.6m20.8-1c.7.3 1.9.3 2.6 0q.8-.3-1.3-.4-2.2 0-1.2.5M41 99q-1.2.9-.5 1a6 6 0 0 0 2.5-1q1.2-.9.5-1a6 6 0 0 0-2.5 1m170 0q0 .9 1 1 1-.1 1-1t-1-1a1 1 0 0 0-1 1m35 3q0 2.1 2.4 2c1.4 0 2.8-.5 3.1-1q.4-.9-.5-1t-.5-1-2-1q-2.6-.1-2.5 2m6.3.2c.5 3.1 2.2 3.3 2.5.3q.2-2.4-1.3-2.5-1.5 0-1.2 2.2m4.7-.2q0 2.7 1.2 1.2c1-1 1-1.5 0-2.4q-1.4-1.6-1.2 1.2m3.4-.8c-.7 1.1 1.3 2.8 3.4 2.8q1.3-.1 1-1.7c-.3-1.8-3.5-2.6-4.4-1.1m-241 1.6-1.2 2.6q-.3.7 1.3.3c1-.4 2.4-.2 3.1.4q1.4 1.1 1.4.1-.2-1-1.7-1.6-2-.7-.4-1.5t-.4-1.4q-1.6-.5-2.2 1m130.1-.2c-1.6 1.3-1.7 1.6-.4 2.5 2 1.3 2.7 1.3 3.3-.4q.7-1.4-1.6-.9c-2.2.5-2.2.5-.2-1 2.5-2 1.6-2.2-1-.2m31.8.5q0 1.8.5 2 .7-.2 1-2 0-1.8-.6-2-.7.2-1 2m4.3-1q-.6 1.2.3 2.2.9.9 1.5-.6c.7-1.8-.9-3.1-1.8-1.5m5 .6q-.4 1.5.7 2.5c2 1.2 2.3 1 2.3-1.7s-2-3.4-3-.8m20.8-1c-1.8.7-1.6 2.3.2 2.3q1.4-.2 1.5-1.5 0-1.4-.2-1.4zm-86.1 2 1.6 2.2q.3.2.3-1.1-.1-1.6-1.6-2.2-2.2-1-.3 1.1m14.9-.7q0 .9 1 1 .9-.1 1.5-1t-1-1q-1.3.1-1.5 1m75 .4q.2 1.5 2 1.6c2.5 0 2.2-2.3-.3-2.8q-1.6-.2-1.7 1.2m5-.1q.1 1.4 2.5 1.5 2.3 0 2.5-1 0-.7-1-.8l-2.4-.6q-1.5-.5-1.6.9M77 104c.8.5 2.2 1 3 1q1.5-.1-.5-1c-2.7-1.2-4.3-1.2-2.5 0m40-.1q.1 1 1 1.6.9.5 1-.4-.1-1-1-1.6-.9-.5-1 .4m16.8-.2q1.2.4 2-.1.3-.5-1.4-.5t-.6.6m-56.2 3.8Q77 109 79 109c2.5 0 3.4-1.6 1.4-2.4-2.1-.8-2.1-.8-2.8.9M180 107c-1.7 1-.8 2.3 1.4 1.8q1.4-.4.8-1.5-.8-1.2-2.2-.3m10 .9c0 1 .9 2.1 2 2.4q1.8.4 2-.4c0-2-.2-2.4-1.1-2.2q-.8.2-.9-.7t-1-1q-1 .1-1 1.9m65.5-.4-1 3q-.6 1.6-1.4 1c-1.4-.8-14.5-2.6-23.1-3-4.1-.3-8.3-.7-9.2-1q-1.7-.2-1.8.7-.2 1-2.4.4c-1.4-.3-6.4.3-11.1 1.4a32 32 0 0 1-9.7 1.4q-1-.5-.4.4c.7 1.2-4.5 5-10.5 7.5-3.4 1.5-10 7.6-14 13-1.1 1.5-2.6 2.7-3.3 2.7q-1.2.1-1 2.5c0 1.3-.7 3.4-1.8 4.7-1.7 2-2 3.4-1.6 9.3.3 5.8.8 7.4 2.8 9.6 1.4 1.4 4 4.4 5.9 6.6 2 2.5 4.6 4.3 6.4 4.7l3 .6-2.4 2.8-2.4 2.7 2.7-2.4c2.2-2 3.3-2.2 6.5-1.6 2 .4 5.6.7 7.8.8 3.7.1 4.2.5 5.9 4 1 2 2.2 3.7 2.8 3.7a14 14 0 0 1 4.5 3c3 2.6 6.6 3.8 9.8 3l8.3-.2c5.9 0 7.7.4 8.8 1.9q2 2.6.4-.4c-.8-1.8-.8-2.3.2-2.4l4.1-.5q2.8-.6 5.7 2c6 5 13.3 4.6 19.8-1 2.2-1.8 4.2-3 4.5-2.7q.3.7 0-.6c-.2-.7.8-3.8 2.3-6.8s2.8-7 3.1-9c.3-1.8.9-3.3 1.2-3.3.4 0 1.7-.9 2.8-2 1.5-1.4 2.3-3.7 2.8-8.9s1.1-7.1 2.3-7.4q2.4-.5 0-.6c-1 0-1.9-1.3-2.3-3a9 9 0 0 0-2-4 15 15 0 0 1-2.5-5.6c-1.5-5.5-11.2-16-15.6-17-3.7-.7-5.6-4.4-4.4-8.5.9-3 .4-4.3-.5-1.5m-71.5 1q.1 1.5 2.5 1.5 2.6 0 1.9-1.5-.8-1.3-2.5-1.5-1.7.2-1.9 1.5m-66 .4q.1 1 1 1.6.9.5 1-1-.1-1.3-1-1.5-.9 0-1 1m-99.5 1q-.6 1.2-.1 1.7t-.5 2q-1.4 1.4.7 1.4c1 0 2.7.2 3.6.4q3.4.7 2.2-4-.5-2.6-3-2.5c-1.2 0-2.6.5-3 1m127 2c-.8 2.9-5 6.9-7.7 7.4-6.6 1.4-8.8 1.5-8.2.6q.4-1-1.5-1c-2 0-2 .1-.6 1.6 2.5 2.5 10.7 1 15.8-3 2.3-1.7 4-3.5 3.9-4q0-.9.9-1.6 1.2-.7-.4-1.3-1.5-.6-2.1 1.4m35.3-.4q1.2.4 2-.1.3-.5-1.4-.5t-.6.6M210 114q0 .8-.7.8c-3-.5-6.4.3-6 1.3.2.8 2.4 1.3 5.8 1.3 4.5 0 5.5-.3 5.5-1.7q-.2-1.6-2.3-2t-2.3.3m-12 4c0 .8-1.5 2-3.4 2.7s-4.2 2.2-5.2 3.3l-1.9 2.2 3.5-.8c5.4-1.2 13.1-6.7 11.1-8q-1-.4-1.7.6-.6 1.2-1.5-.2-1-1.7-.9.1m-178 2q0 1-1 .5t-1 .3q.1 1 1.5 1.6 1.5.7 1.5-1.4 0-1.8-.5-2-.5.1-.5 1m165.6 6.7q-1 2 .5.6 1.1-1.2.7-1.8-.6-.4-1.2 1.2m-167.6 2c-1.3 3.3-1.3 3.3.8 3a5 5 0 0 1 3.4.6c1.6.7 1.8.4 1.8-2.7 0-3-.3-3.5-2.5-3.5q-2.6-.1-3.5 2.6m245.7-1c-.3.5-.5 2.1-.5 3.6 0 2.4.6 2.8 4.2 3.6 2.2.5 4.2.8 4.4.7.6-.5-2.2-5.5-3-5.5q-.7 0-.3-1 .5-1-.4-1c-.5 0-1.6-.3-2.4-.6q-1.4-.5-2 .3m-219.1 2.2q-.2.8 2.5 1.5c3.7.7 6.2-.4 3.3-1.5-2.7-1-5.2-1-5.8 0m106 .7c-.9 2.2-.8 2.4.9 2.4q1.4-.2 1.5-2c0-2.4-1.5-2.7-2.4-.4m27.2.7c-2 3.3-1.2 6.7 1.7 6.7q3.6 0 4.1-3.7.5-2.6-2.8.4c-2 1.8-2.5.5-.6-1.6q1.5-1.3 0-1.8-1-.6-.6-1.4t0-.9q-.4.2-1.8 2.3m4.7-1.3q.6 1 1 1t.5-1-1-1-.5 1m4 .5c-2 1.5-2 1.6 0 1.3 1.1-.2 2 .2 1.8.8q0 1.1 1.5 1 1.8-.1 1.6 2.2 0 2.2.9 1.3c.5-.5.6-2.6.3-4.5q-1.2-6-6.2-2m-41.4.9q.2 1.4 2 1.5 1.8-.1 2-1.5-.2-1.4-2-1.5-1.8.1-2 1.5m11 0q0 1.5 1 1t1-1.6q0-.8-1-.9-1 .1-1 1.6m5.4-.7q.6.8-.4 1.3-.6.3 1.6 1.5 3.1 1.6 1.4-.2-1-1.4-.5-2.5.4-.9-1-1-1.5 0-1 1m45.3.7q1.2.4 2-.1.3-.6-1.4-.5t-.6.6m-11.4 4.2c.7 4.6-.1 9.4-1.5 8.5q-.8-.5-.9.3c0 1.2 1.8 3.8 2.3 3.3q5.8-7.3 6-10.6c0-3-.9-3.9-4.2-4.9-2.3-.7-2.4-.6-1.7 3.4m-50.4-.3c0 1.5 2.6 2 3.4.5q.4-.8-1.4-1.4-2-.4-2 .9m6.3-1c-1.8.8-1.6 2.4.2 2.4q1.4-.1 1.5-1.5 0-1.4-.2-1.4zm3.8 1.5c0 .8 1 1.4 2 1.5q2 .1 1.7-1c-.5-1.7-3.7-2.1-3.7-.5m5 .2c0 1.8 2.7 2.9 3.6 1.4q.5-1-.7-1.9-3-2-2.9.5m72.3.8a34 34 0 0 0-6.7 14c-.4 2.1-1.2 3.8-1.8 3.8q-.8-.1-.5-1.3.3-1.3-2.4-2.4c-3.4-1.3-3.4-1.2-1.3 4.4q3 7.9 9.1 3.5c2.9-2 4.6-5.7 5.8-12.7.8-4 .8-4 1.6-1.2a13 13 0 0 1-.2 6q-2.2 7.8 1.2 9.7c1.5.9 2.4.8 3.7-.1l2-1.5c.2-.2.8-2 1.2-4 .6-2.7.5-4-.5-5-2-2-2.5-1.7-2.5 1 0 1.4-.5 2.8-1 3.1q-1.3.9-.4-4c.6-4.2.5-4.7-1-4.2-1.7.7-2.2-.8-.6-1.8 1.4-.8.3-2.4-2.4-3.6q-2.9-1.1 1-.6 2.8.2 3.1-.7c0-.6.4-1.9.8-2.8 1.1-2.8-5.6-2.4-8.2.4m-214.3 0c0 .5 1.3.8 3 .8s3-.3 3.3-.7c.3-.5-1-.8-2.9-.8s-3.4.3-3.4.8m241.5-.3a42 42 0 0 0-1.2 8.6c-.3 4-1 7.7-1.4 8q-.8.3-.9-2c0-2.7-.4-3-3.4-1.7q-1.8.8-2.2 4.5c-.4 4.7-4.6 11.4-9.8 15.5-2.1 1.7-3.4 3.1-2.8 3.1 2.5 0 6.8-2.3 11.6-6.2l5.6-4.6q.3-.3-.8-1-1.1-.8 3.3-3a15 15 0 0 0 6.7-6.2q2.4-4.4 4.1-3.6 2 .7 1.5-1.7c-.2-1.2-1.1-2.3-2.1-2.5-2-.4-5.7 2.4-5.7 4.3 0 .7-.7 1.8-1.5 2.5-1.3 1-1.4.8-.9-2.1.4-1.9 1.1-4 1.7-4.7q.8-1 .2-1.2t.5-1.4c.6-.8 1.8-1.2 2.5-1 .8.3 2.4-.1 3.6-1l2.2-1.5-2.7-1c-3.5-1.4-7.3-1.4-8.1 0m-85.5 2.4c0 1.6 1.6 2 2.4.6q.5-.8-1-1.5-1.3-.5-1.4 1m5.2 1.5c-2.2.8-2.3 1.3-1.8 6.2l.7 5.2-1.6-3.4c-1.3-2.8-1.7-3.1-3-2.1-.8.7-1.5 2-1.5 3q0 1.7-1 2.5c-1.3.8 0 3.5 1.6 3.5q1.3-.1 1.5-3.2l.1-3.3.8 3.8c.8 4.3 1.6 5.4 4.5 5.9 2.2.3 2.2.6.4-10-.6-3.5-.8-6.6-.5-7 1-1 1.4.2 2 5.7.4 3 1.2 6.3 1.8 7.4 1 1.8 1.1 1.9 2 .4q1-1.6 2.2-1.7c.7 0 2.3-1.1 3.6-2.5 1.8-2 2-2.7 1-3.9-.6-.8-2.3-1.3-3.8-1.2-2 .3-2.8 1-3.3 3.2-.8 3.4-1.2 1.7-1.7-6.8-.2-3-.5-3.2-4-1.7M41 142.8c-.7 1.3-.2 2.8 1.8 5.7 3.2 4.8 6.3 5.5 11.8 2.7 2-1 5.1-2.2 6.8-2.6 2.8-.7 2.8-.8-2.8-3a46 46 0 0 1-7-3.4c-2.1-1.7-9.6-1.3-10.6.6m247.4-.5q-1 3.2 1.3 2.6c.5-.2.6-1.3.2-2.4-.7-1.9-.8-1.9-1.5-.2M171 143.8c0 1.2.3 1.2 1.8.1l2-1.6h-1.7c-1.1 0-2.1.8-2.1 1.5m115-.2q.2 1.7.7.6t-.1-2q-.6-.3-.5 1.4m-117.4 3.6c-.8 3-.1 3.5 1.2 1q1-2 .2-2.6-.8-.3-1.4 1.6m117.5 1q.4 2 1.2 2 1-.2 1.7 1 1 1.3.5-1.2l-.5-3.2q-.2-.8-1.7-.8t-1.2 2.3m-92.7 3.7c-1.8 2-1.7 2 .3 2q2-.1 4.2 4.5a20 20 0 0 0 2.6 4.5q.4 0 .1-.7l-2.2-6.6c-1-3.1-2-5.7-2.5-5.7s-1.5.9-2.5 2m73 .3-.9 2.9c0 .3-5 4.6-10.9 9.4s-10.7 9.4-10.7 10q-.2 2.8 8.1-3.3c2.6-1.8 5.2-3.3 6-3.3q1.2 0-.6-2-2.9-3.4 1.4-.8c1.5 1 2.5.9 4.3 0q2.6-1.4.3-.7t1.3-2.3c1.7-1.6 3.2-3.6 3.2-4.5q0-1.5.9-2.1c.5-.3 1-1.7 1.3-3 .7-3.4-2.6-3.6-3.7-.3m-19.8-.6c-.2.5-.7 2.4-1 4.4-.8 4.2-2.7 6.1-8.2 8.3-3.8 1.5-8.8 7.6-6.3 7.6 2.8 0 11.3-5.8 13.8-9.5 3-4.4 5-11.5 3.2-11.5q-1 0-1.5.8m39.8 1.2c-.8 1.3.9 2 2.4 1q1.6-.7-.3-1.3c-.8-.3-1.8-.2-2 .3m-242.3 2q-.9 1.3 2 .5c1.5-.4 3.6-.1 4.9.5q2.8 1.7.8-.4c-1.5-2-6.6-2.3-7.7-.6m148.2 1.5q-1.2 3.3 1.1.9 1.1-1.3.4-2-.9-.3-1.5 1.1m93 1.8q-.3 1.4.8 2c1.8.6 4-1 3.2-2.3a2.2 2.2 0 0 0-4 .3m-113.1.6q.6 1 1 1t.5-1-1-1-.5 1m9.6 2.4-2.4 1.3 2.1 1.2q2 1 2.3.9l.5-4.8zm49.4-.5q-.4.9.7 1.5 1 .5-1.2.2c-2.3-.5-2.5-.2-2.5 3.4q0 7.1 2.5 1c.7-1.8 2.1-3.5 3.1-3.9 1.8-.6 1.8-.7 0-1.8-1.1-.7-2.3-.9-2.6-.4M176 163q2 1.2 0 1-1.5.1.5 1c1.1.4 2.2.6 2.4.4.6-.6-2-3.4-3.3-3.4q-.9.1.4 1m16.6.7q-1 2 .5.6 1.1-1.2.7-1.8-.6-.4-1.2 1.2m9 1.7c.5 1.3 4.4 3 4.4 1.9 0-.7-3.3-3.2-4.2-3.3q-.6.1-.2 1.4M189 168q.2 1 2.8 1 3.5 0 .7-1c-2.7-1.2-3.5-1.2-3.5 0m20.2 1.3c-2.6 1.5-3 2.2-2.1 3.3 1.3 1.6 2.9 1 2.9-1.1q.1-1.4 1.1-2 1.2-.9.7 2.3-.5 3 1 3.6c1.5.7 3-2.3 1.4-3.3-.5-.3-1.2-1.5-1.3-2.7-.4-2-.4-2-3.7-.1m45.3 2.7q-.5 1 .4 1a2 2 0 0 0 1.6-1q.5-1-.4-1a2 2 0 0 0-1.6 1m-22 1.7c-3.4.8-3.9 2-2.1 4.8 1.4 2.2 2.2 2.5 5.4 2.1 2-.2 4.8-1 6.2-1.5 2-.8 1.6-.9-2.2-.4q-4.9.6-4.8-.6.2-1 1.8-1.1c1 0 2.7-.6 3.8-1.4 1.9-1.5 1.9-1.5-.1-1.5a19 19 0 0 1-4-.4 10 10 0 0 0-4 0m-64.5 1.8q.1 1.6 1 1.3 1.1-.4 1.2-1.3-.1-.9-1.1-1.3-1-.2-1.1 1.3m55.8 2.5c.3 3.1.8 4 2.3 4 2 0 2.3-.8 1.3-3.4q-.6-1.4-1.8-.9-1 .6.1-.8c1.3-1.6.8-2.9-1.1-2.9q-1 .1-.8 4m-49.8-1.5q.1 1.4.8 1.5.8-.1.9-1.5t-.9-1.5q-.7.1-.8 1.5m43 .5c-1.2.8-1 1.1.9 1.7 2.3.6 2.3.7.6 2-2 1.3-.9 1.8 2 .7 2.1-.9 2-5.4-.2-5.4-1 0-2.5.5-3.3 1m-156 1.4q.1.5 1.8 1.7 2.3 2 .3-.3-2-2.6-2.1-1.4m22.5 2.7a58 58 0 0 0-13.5 5l-2.5 2 3-1.5c1.7-.9 8.2-3 14.5-4.7s11.7-3.3 12-3.5c.9-.9-3 0-13.5 2.7m84.2-1.4q-2 2.1 1.8 2.3 2.6 0 1.9-1.5c-.6-1.6-2.6-2-3.7-.8m7.3.1q0 1.1-1 .7t-1 1 1.4 1.5c2 0 2.7-1.3 1.5-3q-.9-1.7-.9-.2m96.5 7.2q-.4 1 .4 1 1 0 1.1-1 0-1-.4-1-.6 0-1.1 1m-75.5 3.5q.2 1.4 2 1.5 2 0 1.4-1.5-.7-1.4-2-1.5-1.3.1-1.4 1.5m5.6 0c-.9 2.3-.8 2.5.9 2.5q1.4-.2 1.5-2c0-2.4-1.5-2.7-2.4-.4m68.9.4c-1 1.5.4 3 2.7 3q2 0 1.4-1.6l-.6-2c0-.8-3-.4-3.5.6m-59 2c-2 .7-1.9.7.3 1.4 2.6.9 4.1 0 2.6-1.3-.5-.5-1.8-.5-2.9-.1m5.7.3q-1.5 1.5-.2 2.2c1.5 1 2.3 0 1.8-2-.3-1.6-.4-1.7-1.6-.2m4.2 1.3q.5 1.3-.4.9t-1 .4c0 2 2.8 1.2 3.3-.9q.5-2-1-2t-1 1.6m12.1-.7c-1.2 1.2-.1 3.1 1.9 3.1q2.3 0 2.4-2 .2-1.9-1.8-1.7-1.8 0-2.5.6m-32.8 1.5q.6 1.4 2 2c1.8.7 3-1.4 1.3-2.5-2.1-1.3-3.9-1-3.3.5m-4 1.6c-1 1.3-.2 2.4 1.3 1.9q1-.5.2-1.8-.8-1.5-1.6-.1m16.5 0q0 1-1 .5t-1 .4 1.5 1.1q1.4-.1 1.5-1.5 0-1.4-.5-1.5-.5.1-.5 1m3.7 1.6c-.8.8.1 2.4 1.4 2.4q.8-.1.9-1.5c0-1.5-1.2-2-2.3-.9m4 0c-1.4 1.4-.6 3.4 1.3 3.4q1.8 0 2-.9c0-1.3-2.6-3.2-3.3-2.4m-19.7 1.2c0 1.7 1.8 2.1 2.4.6q.5-1.5-1-1.5-1.2 0-1.4 1m33-.4c0 1.4 2.2 4.4 3.3 4.4q1.3 0-.2-.9t-.2-1.5q1-.8.6-1.7c-.7-1-3.5-1.3-3.5-.3m-13 5q.1 1.3 1 .9 1-.7.5-1.6-1.4-2-1.5.7m-5 .4q3 2 3 0c0-.6-1-1-2.2-1q-2.7-.1-.8 1m17 .4q.1.4 1.4 1.5 1.4 1.4 2-.4.7-1.5-1.4-1.5-1.8 0-2 .4m-16.7 2.4q-1.2.8-.3 2.2c1 1.7 2.3.8 1.8-1.4q-.4-1.4-1.5-.8m3.7 1.7q.1 1.4 1.5 1.5 1.4-.1 1.5-1.5-.1-1.4-1.5-1.5-1.4.1-1.5 1.5m14.5.8c-1.8 1.4-1.8 1.5.4 2.2 2.7.8 3 .6 2.2-1.8-.6-1.5-.9-1.6-2.6-.4m-78 17.7q.7 1 1.6.5 2-1.4-.7-1.5-1.3.1-.9 1m-23 4.7c0 1 .7 1.9 1.2 2 1.7.6 2.7-1.8 1.2-2.8q-2.9-2-2.5.8m-51 5.3q.8.8 2.1.3 3.1-1.2-.6-1.3c-1 0-1.8.4-1.4 1m13.4.3c.5.5 2.4.7 4.2.5q5.1-.3-.8-.8c-2.3-.3-3.9-.2-3.4.3m28.1-.8c0 .2 1 1 2.3 1.6 2 1.1 2 1 .8-.4-1.2-1.6-3.1-2.3-3.1-1.2m70 3.4c-13 4.6-21.2 17.7-26.1 40.8-.7 3.5-1.6 6.3-2 6.3-.8 0-1.9 3-4.4 11.5a66 66 0 0 1-2.6 7.8q-.9 1.6.1 1.7t.1 1.8c-.5 1-1 4.4-1 7.5s-.2 6.1-.6 6.7q-.4.9.3 1c1.5 0 .8 7-.8 8q-2 1.1.3 1c1.5 0 1.9 1 1.7 5.5 0 .3.7 2 1.6 3.6.8 1.7 1.3 3.7 1 4.4q-.5 1.4 1 .8 1.4-.6 1.4 2c0 3 9.3 12.8 14.5 15.4 5.2 2.7 6.6 4.3 5.4 6.5-.6 1-.8 2.2-.6 2.5q.6.2 1.1-1.5c.6-1.7 1.7-1.9 13.7-1.8l13 .1 2.7-3c1.5-1.7 3.5-4.1 4.4-5.5l1.7-2.5 3.8 4.2c5 5.4 7 6.3 13.8 6.3q12.2-.1 23.2-12.6a58 58 0 0 0 12.4-19.6c2.4-5.5 3-8.6 3.5-18 .5-10.3.3-12.3-2-20.2a46 46 0 0 0-6-13.5 19 19 0 0 1-3.6-7c0-1.2-.5-3-1-4.1s-1.2-3.3-1.3-5c-.4-3-4-8.9-8.4-13.7a9 9 0 0 1-2.3-3.2 36 36 0 0 0-5.8-6.3 25 25 0 0 0-11.4-7.2c-7-2-12-2-16 0-2.7 1.4-3.1 1.4-4.7 0-2.7-2.4-14.4-2.8-20.2-.7m9.6 4.1q-.5 1 .4 1a2 2 0 0 0 1.6-1q.5-1-.4-1a2 2 0 0 0-1.6 1m-117.8 1.4c-1.7 1.8-3.2 2.1-2.2.6q.3-1-1.4-1-2 .1-2.1 1.5c0 1.1 1.2 1.5 4.5 1.5 4.6 0 5.1-.4 3.6-2.8-.7-1.1-1.1-1-2.4.2m-10.7 1c0 1.4 2.4 2.9 3.3 2q.5-.7 0-2c-.7-1.8-3.3-1.8-3.3 0m15-.5q.2.8 1.4 1.4 1.5.6 1-.9c-.7-1.5-2.4-2-2.4-.5m104.6.7c-.3.9-.6 3.8-.6 6.5 0 4 .3 4.9 1.8 4.9 3.8 0 5.7-10.1 2.3-12-2.6-1.3-2.8-1.3-3.5.6m12.4 0c-3.9 1.7-5 3-4.3 5 .3.8-.2 2.5-1.1 4L200 259h4.5c5.6 0 7.8-1.9 8-6.9s-1.3-6.2-5.5-4.4m16.2 0c1.5.4 1.6 1.4 1.3 7.1-.2 3.7-.2 6 .1 5 .5-1.7.7-1.7 2.2-.1s1.7 1.5 2-.1c.2-1-.1-2.3-.7-3q-2.6-2.9 1.4-2 2.7.8 2-.7l-1-4.2c-.5-2.4-1-2.7-4.8-2.6q-3.7 0-2.5.6m-33.6 2c-.8 2.7.3 9.3 1.5 9.3 1.4 0 1.4-7.3 0-10q-.9-1.6-1.5.8m28.6.8q-1 2.3-.3 2c.5-.3.8 3.8.8 9.2 0 18.7.3 23.2 1.3 23.2 2 0 2.3-3.3 1-11.6-1-6.8-1-9 0-11.1 2.2-4.8 2.3-10.7.2-12.6-1.8-1.6-2-1.6-3 .9m14.5-1.3c-.9 2.3.5 6.7 2 6.7 1.2 0 1.4-.7 1-3.1-.4-1.7-.7-3.5-.7-4 0-1.4-1.7-1-2.3.4m5 .3c-.7 1.3.3 6.4 1.4 6.4s1-2.7 0-5.4q-.7-1.7-1.3-1m-167.3 2.8c-7.5 2.4-13 5.9-19.8 12.5a58 58 0 0 0-9 10.6c-4.6 8.8-6.7 32.4-4 45.5.5 2.5 2.8 8.4 5.1 13.3 2.3 4.8 4.2 9.2 4.2 9.8 0 2 16.3 17.4 21.5 20.3 4.2 2.4 6.3 3 13.5 3.3 4.7.1 10 .6 11.7 1 3.4.6 12.1-1.1 16.3-3.2 4.1-2.1 12-10.6 14.7-16a80 80 0 0 0 11.3-45.6c0-20.4-.9-23.2-11.5-36.8A39 39 0 0 0 91 251.4c-6.9.6-6.6.6-12 .1a24 24 0 0 0-8.5.9m172 1.6q0 1.8 1.2 2 1.5.1.3-2l-1.3-2q-.3.2-.3 2m-56.6-.3c-1 1.8-.2 3.8 1.4 4.1q1.7.4 1.1-1.8c-.6-2.2-2-3.5-2.5-2.3m-19.7 3.7q-1.3 1.4 0 2.1c1.6 1 3.6-1.2 2.3-2.5q-1.2-1.2-2.3.4m-11.8.3c-.7.2-1.3 1-1.3 1.5q0 .9 1.5-.2 1.8-1.6 1 .4-.6 1.5.4 1.6 1-.2 1.1-2c0-2-.5-2.3-2.7-1.3m6.7.9q.1 1.3 1 .9 1-.6.5-1.6-1.4-2-1.5.7m115.1 1.5c-1.2 3.5-1 3.6 1.6.5 1.7-1.9 1.8-2.6.8-3q-1.3-.4-2.4 2.5m-45.4 0c-.4 1.3-.2 2.8.3 3.3 1.2 1.2 1.3 3.6.2 3.6-.5 0-1.4-1.2-2.1-2.7-1.2-2.6-1.3-2.6-2.3-.8-2.5 4.4 0 20.5 3.2 20.5q1 0 .5-1a1 1 0 0 1 .4-1.4c.4-.3 1.1-2.3 1.5-4.5s1-4.3 1.7-4.6q1-.8.3 3.1c-.6 3.5-.6 3.7.9 2.3a10 10 0 0 0 2-5l.3-3.4.8 3.3c.8 3 2.6 4.5 2.6 2.2q.1-.8 1.3-.5c1.3.5 4.7-4.6 4.7-7q.1-1.5-4.5-1.5c-4 0-4.9.5-8.4 4.3-2.4 2.5-4 5.2-4 6.6q0 2.6-1.2 1.4c-1.6-1.6-.2-5 3.3-8.5 1.6-1.5 2.6-3.2 2.3-3.7q-.4-.9.7-1.3c1-.4 1-1.2.3-3.4-1.3-3.6-4-4.3-4.8-1.2m6.1-1c.7.7 1.2 2 1.2 2.9 0 2 7 2.1 7.8 0q.4-1.2-.6-.7c-.6.4-2-.2-3.2-1.4-1-1-3-2-4.2-2q-2.5 0-1 1.2m6.7-.2q.6 1 1.6 1t.4-1-1.6-1-.4 1m5.6 1.6q0 1.7.6.6.4-1.2-.1-2-.6-.3-.5 1.4m-143 .3q-1.4.8-.3 2.7c1.5 3 2.3 7.4 1.4 7.4-.5 0-1.4-1.8-2-3.9-1.1-3.5-4.2-6.5-4.2-4 0 .9 5.6 12.9 6.4 13.7q.5.1 2-1.4 1.8-1.6 1-4.5-1-5.7 2 .2c1.5 3 1.4 3.2-1 5.3l-2.4 2.3 2.2 3c1.3 1.5 3 3.7 4 4.7 1 1.1 1.8 3 1.8 4.2 0 3.5 5 8.9 8.5 9 1.7 0 3.7.2 4.5.5 1.1.3 1.6-.6 1.8-3.9q.3-7-2.7-2c-1 2-1.1 1.9-.7-1.5.3-2.1.2-6 0-8.7l-.7-4.8-4.4 1.9a28 28 0 0 1-5.8 1.9c-2.2 0-2.4-2.6-.3-3.9 1.6-1 1.9-1.9 1.3-4.9-1-5.1-4.3-11.2-6-11.2q-1.5 0-1-.9.3-.9-1-1.5c-2.1-.8-2.7-.7-4.4.3m75.1.7c-1.6 1.7-.6 2.2 4.8 2.6 3 .3 3.5 0 3.7-2.2q.6-3.7-.7-.2c-1.2 2.7-2.4 3-1.7.2.4-1.6 0-2-2.1-2-1.5 0-3.3.7-4 1.6m12.8-.1q0 1.4.9 1.5.9-.1 2.1-1.5c1-1.3.9-1.5-.9-1.5q-2 0-2.1 1.5m6.5-.5q.6.9 1.6.5 2-1.6-1.1 3.7-1.9 3.1-2 1.6c0-2-1.8-3.4-3-2.1-.6.5.3 2.7 2 5.3q3 4.5 2.4 6.7-.8 2.4 1 2.3c.8 0 2.1.7 3 1.5 1.3 1.3 1.5 1.3 2.1-.6.4-1.2.8-5.4 1-9.3s.4-7.8.6-8.6c.3-1.1-.7-1.6-4-1.8q-4.3-.4-3.6.8m10 .3a129 129 0 0 0-.5 23.7c.5 0 1.4 1.6 2 3.5 1.2 3.5 0 7.5-2 7.5q-1 .1-1 1.5c0 3.5 4 .1 6-5 1-2.6.9-3.2-1-4.6q-3.5-3-.7-2.9c.9 0 1.1-1.8.9-6.5-.2-3.6-.8-6.5-1.2-6.5-.5 0-1 2.8-1.3 6.3-.2 3.4-.2.7 0-6q.7-16.6-1.2-11m2.6 1.3q0 1.7.6.6.4-1.2-.1-2-.6-.3-.5 1.4M76 263q1.9 1.1-.9 1c-1.3 0-3.9 1-5.8 2.1s-5 2.1-6.8 2.1c-4.5 0-5 1-2.3 4.2 3 3.3 6.8 3.6 9.6.8s2.8-3-.5-3.5q-2.2-.4 1.5-.3c2.3 0 4.2-.1 4.2-.5q.2-.7 2.5-1.3c3-.8 3.3-3.1.6-4.6-2.5-1.3-4.1-1.3-2.1 0m18.8.4c2.5 2 2.9 3.6.8 3.6-.7 0-2 .7-2.6 1.6-1.1 1.3-.6 2.1 3.4 5.8 4.1 3.8 4.8 4.1 5.6 2.6 1.2-2.2-1.1-5.7-3-4.5q-1.3.8-.6-.3.6-1.1-.8-1.2t-2.2-1c-.8-1.4 4.5-1 6.4.4.8.5.3-.8-1-3l-2.2-4c0-.2-1.5-.5-3.1-1-3-.6-3-.6-.7 1m126.6 0c-.4 1-.2 4.5.4 7.6s1.2 7.2 1.2 9.1c0 2 .5 4 1 4.6q1.4 1 0 3.2c-1 2-.8 2.1 2.3 2.1 4.2 0 4.5-2.4.8-5.5-2.2-2-2.5-3-2.9-11.6-.4-9.4-1.5-13-2.8-9.4M64.5 265c-2.2 1-3.6 1.9-3.2 2 1.2 0 7.7-2.8 7.7-3.4s.3-.8-4.5 1.4m113.8-1.3q.5 1-.3 1.5c-1.6.5-2.3 6.4-1 8.8q1 1.8 2 1.5.8-.4 1.4.4c1.2 1.8-1.5 2.3-4 .7-2-1.4-2.3-1.4-1.8-.1.7 1.7 4.7 3 6.3 2 .6-.3 1.1-3 1.1-5.9q0-5.4 1.3-5.3c1 0 1.3 1.3 1 4.9-.5 3.8-.2 4.8 1 4.8 1.8 0 3-6.5 1.6-9.1-.5-1-1.8-1.9-2.7-1.9s-2.8-.8-4.1-1.7q-2.2-1.4-1.8-.6m71.3 1.6c.8 2.7 3.6 6.6 4.7 6.7q.7 0 .4-.7l-2-4.6c-2-4-4.3-5.2-3.1-1.4m-159.3.2q0 1.6 1.4.4 1.2-1 1.3-1.5-.1-.4-1.3-.4-1.3.1-1.4 1.5m180.7.5q-1.2.9-.5 1a6 6 0 0 0 2.5-1q1.2-.9.5-1a6 6 0 0 0-2.5 1m6.4.7a3 3 0 0 0-2.6 2.8c-.6 2.9 1.4 2.9 2.3 0 .7-1.9.7-1.8.8.3q0 2.2 2.1 2.2c2.4 0 2.7-1.8.5-2.6q-1.8-.6-.4-2 1-1.2.3-1.3zm-87.4 3c0 1.6-.3 4-.6 5.3-.6 2.3-.4 2.2 1.9-.8q2.4-3.2 2-5.2c-.8-3-3.3-2.4-3.3.8m-137 .6q-1.3 1.6.2 1.2c1.4-.2 2.3-1.5 1.5-2.2q-.5-.2-1.6 1m23.3.4c-1.8 1-5.1 4.1-7.5 7.1-7.5 9.2-7.9 9.6-7.9 8.6 0-.6 1-2.4 2-4 2.2-3.3 2.7-5.6.8-3.7s-3.2 1.4-1.7-.6q1.8-2-.9.2c-2.2 2-3 3.2-1.2 2.1q.8-.4-.1 2.4-2.2 6.5 1.9 8.2 2.1.8 1.7 0c-.3-.5 1-1.5 3-2q4.8-1.6 6.1-10.1c.2-.8 1.1-2.2 2.1-3 1.6-1.3 5.8-7 5-7zm118.6-.5a9 9 0 0 1-1.5 4c-1.4 2.2-1.3 2.3 1.8 2.2 2.6 0 3.1-.4 2.9-2-.2-1-1-2.8-1.8-4q-1.6-2.5-1.4-.2m-73.5.5c.4.8 1 2.5 1.4 3.9.6 2.4.8 2.4 2.1.7q1.4-1.6.3-1-1.2.6-1.3-.1c0-.5-.7-1.8-1.6-2.9q-1.3-1.6-.9-.6m126.2 1c-2.1 2.3-2.1 2.8 0 3.6q1.5.6 1 0-.5-.8 1-2 2-1.3.7-2.4-1-1.1-2.7.8m-172 8.3a31 31 0 0 1-8.3 11.2q-3.4 2.1-4 5.5c-.4 1.8-.5 3.4-.3 3.6s3.1-.5 6.4-1.5c7-2.2 9.5-4.8 9.5-9.5 0-1.8.8-4.1 1.8-5.1s1.7-3.2 1.6-4.8c-.2-6.5-.4-8.5-1.2-8.5-.4 0-2.9 4-5.5 9m43.3-8.3c0 .4.5 1.5 1 2.3q1.1 2 1-.2-.1-1.7-1-2.3t-1 .2m-65.2 3c-1.2 1.2-1.4 2.1-.7 3.7q1 2.1 0 4.6l-1.1 2.5.4-2.5c.7-3.3-.9-6-2.5-4.3-.9.9-.9 2.3-.1 5.2 1.2 5.1 0 6.2-1.7 1.5-.7-1.9-1.6-3.2-2.1-2.9q-.7.6 0 2.8c.6 1.6.3 2.7-1 4.2q-1.9 2-2.2 8.5l-.4 6.6 2.8-.4c1.5-.2 2.8-.9 2.8-1.4 0-.6 1.1-1.9 2.5-3 1.4-1 2.5-2.8 2.5-3.8q.1-1.7 2.5-2.4c2.1-.5 3.7-2.6 2-2.6s-8.5 4.8-9.9 7c-.8 1.4-1.6 1.9-1.6 1.2 0-2.5 3.9-6.8 7.7-8.6s5.5-5.2 3.2-6.7c-.6-.3-.2-2 1.1-4.2 1.2-2 2-4.2 1.8-4.8-.6-1.9-4.3-2-6-.2m36-.4c-.6 5.8-.2 8 1.7 9 1 .6 2.5 1 3.2.9.6-.1 1.7.6 2.5 1.6.7 1 2 1.8 2.8 1.8 3 0 8.4 1.7 11.7 3.5l3.7 1.9c1.4 0-1.3-5.1-4.3-8.5-2-2.2-4.4-5.1-5.4-6.5-1.6-2.4-1.7-2.4-3.2-.5a8 8 0 0 0-1.5 3.7c0 2.5-1 4.8-2.2 4.8q-.9-.1-.4-1.6c.7-1.8-2-7-4.9-9.6q-3.5-3-3.6-.6m60.9.5q-1.7.5-1.8 2-.1 1.8 1.4.4 1.4-1.4 2 .1.4 1 .5-1t-.2-2zm4.3 1.2c0 1.1 2.6 2.2 3.4 1.4 1.2-1.2.5-2.3-1.4-2.3q-1.8 0-2 .9m5.6 0q-.4.9.8 1.4 1.4.4 2-.9c.6-1.5-2-2-2.8-.5m-37.1 2.5c-1.7.6-3.9 1.7-5 2.4l-2 1.4 2-.8c1.1-.3 3-.9 4.2-1.1a7 7 0 0 0 3.4-2q1-1.1.8-1.2zm117.3-.7-2.8.4 2.8 2.2c7 5.6 12.2 6.6 10.8 2-.5-1.5-7-5.8-7.9-5.2-.1.1-1.4.4-3 .6m-50.3 1.8c-1.9 1.4-1.9 1.4.1 1.6h3.3q1-.1 1.2.5c0 1.3-5.5 5.4-7.3 5.4-2 0-7.3 4.8-6.3 5.7.3.3 1.7.7 3 .8 2.1.3 2.6-.1 2.6-2q0-2.1 2.4-3.3c2-1 2.5-.8 3 1.1s.7 2 3-1.3c2-2.5 2.3-3.6 1.3-4.2q-1.5-.9 0-.8c2 0-.1-4.3-2.4-4.6a6 6 0 0 0-3.9 1.1m61.6-1.1q.1.4 1.6 1 1.3.5.9-.4c-.6-1-2.5-1.4-2.5-.6m-66.2 1.3q1.2.4 2-.1.3-.6-1.4-.5t-.6.6m-7.3 1.5c-4 1.4-6.8 4-5.7 5 .5.5 2 .4 3.6-.3 2-1 3.2-1 4.5-.2q1.7 1.2 3.4-.2c1.8-1.3 2.3-4.5.8-4.5l-2.3-.4c-.7-.3-2.7 0-4.3.6m55.8-.4c-1 .7-1.7 2.6-4.2 12.7-1.6 6.8 2.4 21.5 6 21.5 1.9 0 4.9-4 5-6.7 0-1.5 0-1.6.9-.3q1 1.4-1.1 4.7c-1.2 1.8-1.8 3.3-1.6 3.3l2 .6q1.5.5 2.6-2.7c1.5-4.4 1.4-5.2-1-8.3l-2.1-2.7-2.4 2.6c-1.2 1.4-2.8 2.5-3.4 2.5-1.4 0-1.3-.4.9-2.8 2-2.4 2-4-.4-12.6a28 28 0 0 1-1.2-6.2c.6-.6 3.4 5.5 4.8 10.3 1.7 6 6.4 8.5 11.9 6.3q.5-.2 1.2-.1.6-.1 1.1-1.3c.7-1.6-4.2-4-7-3.4-3 .6-4.2-1.3-2.1-3.4 3.4-3.4 1.1-11.9-2.8-10.4q-1.2.5-.7-1 .4-1.3-2.2-2.4c-3.1-1.2-2.7-1.2-4.2-.2m-46.3 2.7c0 1.7.2 1.8 2.4.9 2.3-.9 2-2.4-.4-2.4q-1.8.1-2 1.5m69.4 1.3c-1.5 1-2.5 4-1.5 4.6 1.3.8 4.6-3.3 3.5-4.4q-1-.8-2-.2m-213.8 1.8q-.6 1.7-.1 2.2.4.3 1.1-1.2.6-1.7.1-2.2-.4-.3-1.1 1.2m46.3 0c1.8 3.2 4.9 6.4 6 6.4q1 0 1.1.9 0 2 8.4 2.8c3.9.4 5.4 1.1 7.5 3.6a19 19 0 0 1 3.3 5.7c.7 2.6 1 2.6 6.2 2.2 5.4-.4 5.4-.4 7.6 3.4q2 3.5 1.7 2.3c-.3-.9-.2-2.2.3-2.9 1.2-2-.8-6.7-3.8-9-2.6-2.1-2.7-2.1-4.3-.2s-1.6 2-3.3-1.3c-2.4-4.4-11.2-9-18.8-10-4.5-.6-5.8-1.1-5.8-2.4q-.2-1.6-1.7-1.7c-1 0-2.6-.5-3.7-1q-2.3-1-.7 1.2m112.8-.9q-.5 1 .4 2.3c.5.8.9 2.6 1 4 0 2.2 0 2.3 1 .7 2-3.3-.5-10.2-2.4-7m16.5 2c-2.6 3.7-1.6 6.2 4.3 10.2 5.4 3.7 5.5 3.7 5.5 1.1 0-2.2-1.5-2.7-2.3-.7q-.5 1-.6-.5c0-1-1-2.2-2-2.8-2.6-1.3-3.6-4.7-2-6.6q1.2-1.5.2-2.5-1-1.1-3 1.8m-138.8-.8c-.3.6-.3 2 0 3.1.4 1.1 0 3.4-.9 5-1.2 2.4-1.2 3-.1 3 .7 0 2 .3 2.8.6 1.2.4 1.4-.2 1-3.3-.3-2-.6-4.8-.6-6-.2-2.6-1.3-3.8-2.2-2.4m64.5.2q.1 1 1.4.6 1.4-.4 2 .6.4 1 .5-.6t-2-1.7q-1.8.1-2 1.1m5.5-.1q-.5 1 1 1 1.3 0 1.5-1 0-1-1-1t-1.5 1m3.7.2c.6 1.8 2.8 2.1 2.8.4q-.1-1.5-1.6-1.6-1.4 0-1.2 1.2m4.4.4q-.5 1.4 1.4 1.4c2.3 0 2.7-1.5.6-2.3q-1.4-.4-2 .9m17.3.4c-2 1.7-2.2 2.1-.9 3q3.9 2.4 5.8-1.4c1.8-4-1-5-5-1.6m32.6 0q0 2 1 1t0-2-1 1m-12.4 3q-3.7 3-1.8 3c1 0 2.5 1.1 3.4 2.5 3.3 5 7 1.6 5-4.4-.6-2-1.5-3.6-2.1-3.7s-2.6 1-4.5 2.6m53 .8c0 3.5 2.2 7.2 4.3 7.2 1.6 0 .6-7.8-1.1-9.3-2.7-2.5-3.2-2.1-3.2 2.1m-59.3-2.1c-.4.3-.7 1.6-.6 2.7q0 1.8.6.8.4-1 1.3-.7.7.3.3-1.5c-.6-2.2-.7-2.3-1.6-1.3m68.8 2.3c-1 1-1.5 2.6-1.1 3.5q.5 1.5-.4 1c-.6-.4-1 .8-1 2.7.1 3 .2 3 1 1q.9-2 1.5-2.2.6.1.1.8c-.2.4 0 1.4.4 2.2q.9 1.6 1.5-1.3c.4-1.5.5-3.4.1-4.2q-.4-1.3.4-1.5c.6 0 1 1.5 1 3.3q0 3.3.9 1.8c.5-.7.6-2.2.4-3.2q-.4-1.7.6-1.9 1 .1 1.1 1.5t1.1 1.5q1-.1.5-1.6c-.3-.9-.6-2.2-.6-3q0-1.4-1-1-.7.5-1.5-.4c-1-1.6-3-1.2-5 1M47 292q.1 1 1 .5t1-1q-.1-.5-1-.5-.9.1-1 1m42.5 0c.4.6.7 2.9.7 5 0 3.2.2 3.7 1.8 3.3 1.4-.4 1.7-1 1-2.7a6 6 0 0 1-.3-3.3c.2-.6-.6-1.7-1.8-2.3q-2.3-1.5-1.4 0m80.8 1.5a5 5 0 0 0-.2 4c1.2 3 1 3.2-1.2 3-2.9 0-3.6 2.2-1 3 3.8 1.2 6.2-4.3 4.3-9.6-.9-2.2-1-2.3-2-.4m3.8.4c.5 1.1 1 2.9 1 4 0 3 1.9 2.6 3-.6 1-2.2.8-3-.6-4-2.8-2-4.7-1.7-3.4.6m40.6 2.1c-1 1.7-1.3 3-.7 3q1 .2.5 1.8t.3.5c.5-.7 1.8-1.6 3-2 2.2-.8 2.2-.9.5-3.5l-1.8-2.7zm-158.1.2c-3.6 2.6-5 4.3-6.6 7.8-1 1.9-1.8 2.4-3.5 2.1q-4.4-.6-4.2 7.7l.1 4.1 2.2-2a16 16 0 0 1 5.3-3c1.8-.7 3.2-1.5 3.2-2s1.9-2.9 4.2-5.5c3-3.4 4.2-5.7 4.4-8.1.2-4-1-4.2-5.1-1.1m149.4-.8v4.5c0 1.3-.5 2.8-1.2 3.3q-1.4.9.3.4c2.3-.6 3.6-5.2 2.2-7.9-1-2.1-1-2.2-1.3-.3m39 .1q-1.8 2 .5 1.3c1-.2 2.1-1 2.3-1.6.6-1.8-1.2-1.6-2.8.3m-150.8 1.1c5 6.7 8.6 9.3 13.6 10q2.4.3 3-2.3c.8-3.4-.2-4.2-6.7-5.4a30 30 0 0 1-7.7-2.5q-4.5-3-2.2.3m87.4-.8c-1 1.6.5 5 2 5q1.4 0 1.5.8c0 .4.8 1.7 1.8 3 1.7 2.1 2 2.2 4.6.8 2.4-1.2 2.5-1.5 1-1.9q-1.6-.4 1.2-.6c3.5-.1 5-2.2 3.4-5-1-2-5-3.5-5-2q-.1.8-1.4.9t-1.8 1.2-2.6-1c-2.4-2.4-3.7-2.7-4.7-1.2m-35.2.7c-1.8.7-1.6 2.3.2 2.3q1.4-.1 1.5-1.5 0-1.4-.2-1.4zm4 .2q-1.6 1 .2 1.4 1.6.6 1.6-.8c0-1.7 0-1.7-1.8-.6m3.4 0q-.6 1.2-.2 1.8c.9 1 1.9-.4 1.4-1.8q-.4-1.5-1.2 0m3.9.2q-.6 1 .3 2t1.5-.5c.7-1.8-.9-3.1-1.8-1.5m36.3.6q1.2.4 2-.1.3-.6-1.4-.5t-.6.6m71 2c-2.7 3.2-2.8 4-.7 6 2.1 1.8 2.1 1.8 1.5-2-.7-4.1.5-4.9 2.3-1.4q1.5 3.3.6-.5-.4-2.5.8-3.1.9-.5-.9-.6c-1.1 0-2.8.7-3.6 1.6M69.2 301c-7.7 2-11.2 4.3-13.7 9-.8 1.6-2.4 3-3.6 3.4-5 1.6-8.6 7.2-5.8 9 2 1.2 4-1.6 3.4-4.4l-.7-2.6 2.2 2.3c3 3.1 5.8 2.8 9.8-1.4 1.9-2 3.6-3.4 3.9-3.2.2.3-1.4 2.3-3.6 4.5s-4 4.6-4 5.2q-.1 1-1.1 1.1-1-.1-.5-1.5c.8-2.3-3.7-2-5.1.4-1 1.6-.8 2.2.8 3.7 2 1.8 2.1 1.8 3.4.1q1.1-1.7 5.1-1.5 5 .1.9.5a14 14 0 0 0-6 2.7l-2.7 2.2 3 3.1c2.9 2.8 3.6 3 6.4 2.2q6.2-1.7 5.4 0c-.3.5-2.2 1.2-4 1.5-4.1.8-4.8 2.6-1.1 2.6q2.3 0 2.5 1c0 2-4.5.9-6.7-1.7q-2-2.5-2.3-1.4c0 .7 1.7 2.9 3.8 4.8q3.5 3.2 1.7 2.7-2.5-1.2-.6 1c.7.8 2.3 1.6 3.5 1.6 3.8 0 7-10 5-15.3-.5-1.4-1-1.4-4.6-.1-4.5 1.6-7.7 1.9-6.2.6a16 16 0 0 1 5-2c6.6-1.9 7.8-3.3 6.6-7.3-.7-1.9-1.4-5.4-1.7-8-.5-4-1-4.6-3.7-5.5-1.7-.5-3.4-1.5-3.6-2.3q-.4-1.4.8-.6c2.7 1.7 6.3 1.3 9.7-1 2-1.4 4-2.5 4.6-2.5s2.2-1 3.5-2.2l2.5-2.3-1.2 2.3q-1.5 2.3.1 2.3.9.1-2.6 1c-2 .5-5 1.8-6.5 2.8l-2.7 2 1.2 7.2c1.2 7.1 3 9.9 6 9.9q1.3.1 1.4 1-.2 1-2.2.5c-2-.5-3.1 0-4.1.7-1.6 1.2-1.7 1.7-.6 4.2 1 2.1 1.7 2.6 3.3 2l4.3-1C83 333 81.6 319 76 319a7 7 0 0 1-3.4-1.2c-1.5-1.1-1-1.3 3.2-1.3 3.7 0 5 .4 4.9 1.5 0 .8.6 3.3 1.5 5.5l1.5 4 .6-3.5c.4-2 .3-5.3-.2-7.5-.8-4-.8-4-5.4-3.8q-4.6.1-5.2-1.3t2.2-.8c3.6.7 8.6-1.2 7.9-3q-.5-1.4.3-1.8c.6-.2 0-1.8-1-3.6-2.3-3.8-3.5-3.9-14-1.1m131.3-.5q.6.8-.4 2-1.4 1.5.8 1.4c2.3 0 2.6-2.7.4-3.5q-1.3-.5-.8.1m16.7.4q0 1 1 1t1-1-1-1a1 1 0 0 0-1 1m-37.6 1.5c-.8 2 1 6.4 3 7.1 1 .4 2.3.4 3 0 2-.7.4-4.4-3-7-2.2-1.5-2.5-1.6-3 0m41.1.4q-1.6 1.8-.8 2c.5 0 1.8-.9 2.8-2q1.6-1.8.8-2c-.5 0-1.8.9-2.8 2M91 304.3q-.9 2.1.3 2.6c3.7 1.2 7.5 3.4 7 4.2-.2.4-1.8 0-3.4-.9-2.3-1.3-3.2-1.4-4.1-.5-1 1-.9 1.7.6 3.3 2.3 2.5 4.6 2.5 8.7 0 5.3-3.2 6.5-2.3 1.7 1.1l-4.5 3.3s-.5 2.2-.8 4.9c-.7 4.4-.5 5 2.3 7.7 1.6 1.6 2.6 3.2 2.2 3.5-.5.2-1.9-.7-3.1-2-3-3.2-4.4-3.1-5.9.2-1.1 2.4-1 2.5.5 1.2 1.6-1.3 1.6-1.2.1 1.7-2.3 4.4-1 5.8 4.8 5 7.8-1.2 9.5-2.2 9.5-5.3 0-1.6-.7-4-1.5-5.7-1.9-3.5-1.9-4 0-3.3 1 .5 1.3-1 1.3-7.5 0-7.9-.1-8-3-9.7-1.7-.9-4.3-2.6-5.8-3.9s-3.5-2.2-4.4-2.2q-1.6.2-2.5 2.3m83.6-1.6c-.4.3-.7 2.1-.7 4 0 2.7.4 3.3 2.2 3.3 2 0 2-.1.5-1.8-2.3-2.5-2.2-4 .1-1.9 1.8 1.6 1.8 1.5 1.4-1.3s-2-3.9-3.5-2.3m13.1 0q1.2.4 2-.1.3-.6-1.4-.5t-.6.6m-75.3 1c.3.7-.5 2.3-1.7 3.6-2 2-2.2 3-1.6 5.3.4 1.6.3 3.3-.2 3.8a50 50 0 0 0-.2 18.6c.7 4.2 1 4.5 3.6 4.3 1.6-.1 3.8-1 5-2.1 1.2-1 3-2.2 4-2.6q1.6-.4-2 2.8c-2.1 2-5 3.7-6.4 4-2.3.6-2.5 1.1-2.5 6.4 0 3.1-.4 7.4-.7 9.4q-.6 3.6.3 3.8.9 0 .4-1t1-1c.7 0 2-1 2.5-2q1-1.8 1.9-1.6c.4.3 1.2-1 1.9-2.6l1.1-3-2.6 2.3-2.7 2.4 1.8-2.9c1-1.5 1.6-3.7 1.3-4.7-.5-2 .9-2.7 1.5-.8.5 1.5 4.8-.6 4.8-2.2a63 63 0 0 0 8.2-21.9q.3-2.5-1-2.2-1.2.2-1.2-3.6c0-5.4-1.2-6.7-6-6.5-2.3.1-4.7.7-5.4 1.2q-2.5 1.9-2.6-2.4a7 7 0 0 0-1.6-4q-1.3-1.7-1-.8m136.3 1.4q-3.5 2.1.5 3.2c2 .6 5.8-2 5.8-3.8 0-.9-4.4-.5-6.2.6m-50.6 2.4c-1.7 3.6-1.5 4.5.8 4.5q2 0 1.3-1.7c-.6-1.6-.4-1.6 1.5.1 2.2 2 2.2 2 2.2-1.1q0-3-1.6-3.7c-2.5-1-3-.7-4.2 2m59.1-.4c2.4 4.6 2.8 5 4.1 3.8.7-.5 1.1-2.1.8-3.5-.3-2-1-2.5-3.3-2.5-2.6 0-2.7.2-1.6 2.3m-91.8-.3q-.5.9 1 .4 2.6-1.2.6-1.4-1 0-1.6 1m5.2-.3c-1.2 1.1-.8 2.3.8 2.3q1.4-.1 1.5-1.5c0-1.6-1.2-2-2.3-.8m42.7 0-3.5.7c-2.9.6-6.5 6.6-5.5 9.2q.4 1.3-.8 1.4-1.4.2-2 1.7c-.7 1.7.9 3.3 3.1 3.3.7 0 1.8.9 2.5 2q1.2 1.8 2.2 2c.6 0-.8-1.9-3-4.2l-3.9-4.2 4 3.1c3.6 2.8 4.3 3 6.5 1.8 2.5-1.3 9-1 12.3.7 1.5.8 2.5.3 4.9-2l2.9-3-2.5-5a26 26 0 0 0-4.1-6.2 28 28 0 0 0-13-1.4m54 .3c-.7 1.2.4 4.1 1.6 4.1.5 0 .9-1.1.9-2.5 0-2.5-1.4-3.4-2.4-1.6M142 308q.1.8 1.5 1.5 1.5.5 1.5-1-.1-1.2-1.5-1.4-1.4 0-1.5.9m5.2.2q.4 1 1.3 1t1.3-1q.2-1-1.3-1.1-1.6.1-1.3 1m4.8 0q0 .9 1 1.5t.4-1q-1.2-2.6-1.4-.6m38.2.8c-4.8 2.3-3.4 2.6 2.4.3 2.7-1 4-2 2.9-2s-3.5.8-5.3 1.7m42.5.4q1.2 1.1 1.8.7.4-.6-1.2-1.2-2-1-.6.5m21.3.4c-1 1.2-.9 2 .5 4.1q1.8 2.9 2.5 1.3 1.4-2.7-1.7-2.9c-1.4 0-1.4-.3.2-2q1.5-1.8.8-2-1 .1-2.3 1.5m10.3 1.1c-.7 1.5-1 3-.7 3.5.6 1-1.6 8.9-3 10.8q-1.2 1.3 1.3 3.2c1.3 1 3 1.9 3.7 1.9 2.1 0 5.4-3.7 5.5-6.2.4-7.6-1.5-12.5-2.6-7.2l-1 4.1q-.3 1.2.5 1.8 1 .7 1 1.7t-1.6-.3c-1.4-1.1-1.9-1-3.6 1.1q-2 2.7-1.4.7c.3-1 .6-2.8.6-3.9q0-2 1.6-1.4 1.3.4 1-.3c-.4-.5-.1-2.1.5-3.5q1.2-2.6.3-5.6l-.9-3zm-85 .7q-.2 2.4 1.8 2.2a5 5 0 0 0 2.6-.9q.7-.6-.4-.4c-.6.2-1.8-.5-2.5-1.5-1.2-1.6-1.3-1.6-1.4.6m-13.6.5c-.3 1-.1 2.6.3 3.7.8 2.2.9 2.2 1.4-1.7.4-3.1-1-4.7-1.7-2m3.4 1.6c0 2 .4 3.6 1 3.6q.8 0 .3-1-1.2-2 2.6 0c2.4 1.4 4.9-.3 4.9-3.1 0-2.2-3.9-2.6-5.9-.6q-1.4 1.6-1-.2.3-1.2-.7-1.8-1.2-.2-1.2 3.1m76.8-1.3c0 1.5.5 2 2.3 1.7 2-.3 2.2.1 2.3 4.2.2 6.5.2 6.6 2 4.4 1.5-1.9 1.5-1.8 1 .4s.8 3 2 1.2c.8-1.5-1.5-4-3.2-3.3q-1.3.4-1.4-.6t.9-1.1c1.6 0 2.1-3 .9-5-1-1.6-4.8-4-6.3-4-.3 0-.5 1-.5 2m25.7-.3c-1 .9-.9 2.3.1 2.3q.8-.1.9-1.5.2-2.4-1-.8m-83.3 1.4q-.3.9 1.3 1c1.5 0 1.6 0 .3 1q-1.9 1.2.4.7c1-.2 2.1-.8 2.3-1.4.5-1.4-3.5-2.6-4.3-1.3m7.6 1.7q0 1.8 2.4 1.8 2.2 0 1.9-1-.5-.8 1-.3 1.8.6 1.2-.4-.8-1-2-.5-1.4.3-2-.4c-1-1.6-2.5-1.1-2.5.8m26.5-.9q-.3.9.5 1.6.9.5 1-1 0-2.6-1.5-.6m36.6 1c-1.5 2.6-1.4 3.1.4 3.1 2 0 3.1-2.8 1.7-4.2q-1-1-2.1 1m-47 .4c0 .7.6 2.2 1.4 3.2q1.6 2.4 1.5.4c0-2.4-1-4.8-2.1-4.8q-.8.1-.9 1.3m-122.2.4q1.3.5.4 1.6c-1.2 1.5.9 10.8 2.3 10.4 1.1-.4 2.3-4 2.4-7.8q.2-2.7-2.4-3.7c-1.4-.7-3-1.2-3.3-1.1q-.5 0 .6.6m51.5 0c-1.8.7-1.6 2 .2 2q1.4-.1 1.5-1.4 0-1.2-.2-1.2zm42.8.5q0 .7 1 .8a2 2 0 0 0 1.4-.8q.4-.8-1-.9-1.2 0-1.4.9m60 .4c-1.2 1.4-1.1 1.8.5 3 2.5 1.9 3.2 1.8 4-.6 1.2-3.8-2-5.5-4.6-2.4m-99.4.4q.6 1 1.6 1 .8 0 .9-1-.1-1-1.6-1-1.3 0-.9 1m4.5 0q0 1 1 1t1-1-1-1a1 1 0 0 0-1 1m4 0q.1 1 1.6 1 1.3 0 .9-1-.6-1-1.6-1-.8 0-.9 1m68.9 2.2q.5 4.1.9 1c.2-1.4 0-2.8-.5-3.3q-.9-.8-.4 2.3m14-1.3q3.2.9.4.9c-1.1 0-3.3 1.6-5 3.4l-2.9 3.2 3.1-2.8c2.8-2.5 3.3-2.7 4.7-1.3.8.8 3 1.8 4.8 2.1 3.8.7 5.1 1.5 2.5 1.5q-1.9-.1-1.1 2c1 2.9-1 2.5-2.5-.6q-1.3-2.7-3.7-2.1-2.7.6-1.2-1c1.7-2-.5-1.6-2.4.5-1 1-1.4 2.2-1 2.6q.6.6-1 0-1.9-.8-1.1 1c.5 1.4.9 1.4 3.6 0 2.5-1.3 3.2-1.4 4-.2q.9 1.3-2 2.5c-2.4 1.2-2 1.2 3.6.8a28 28 0 0 0 9-2q2.8-1.6.6-1-2 .4-2-.8t1.8-1q1.7.4 1.8-.4c0-1.4-5-3.5-6.2-2.7q-1 .5-.4-.4c.8-1.3-5.4-5.2-8-5.1q-2.2 0 .6.9m18.6-.1q-.5.9 1 2.1c.7.7 1.4 2.3 1.4 3.6s.4 2.4.9 2.4c1 0 2.1-2.4 2.1-4.5 0-1.6-4.7-4.8-5.4-3.6m-89.6 2.5c0 2.8 1.4 3.5 5.7 2.9 3.2-.5 6.1-2.8 5-4-.4-.3-2.9-.7-5.7-1-4.7-.3-5-.2-5 2m16-.9q-.1 1.5-1 1.6-1-.2-.4-1.2.6-1.2-1 .2c-1.9 1.4-1.8 1.5.4 1.8 3.6.6 9.2-.8 8.7-2.1-.2-.7-1.8-1.3-3.5-1.5-2.4-.2-3.2 0-3.2 1.2m10.5-.4q.6 1 1 1t.5-1-1-1-.5 1m-76.3 1.7c.2 1 1.9 2.5 3.7 3.4q9.1 4.3 4.5 13c-.8 1.7-1.3 3.3-1 3.5.7.9 4.8-6.6 4.3-8-.3-.7.3-2.6 1.4-4.2a11 11 0 0 0 1.9-4.4c0-.8-.8-.3-1.6 1.3a9 9 0 0 1-1.9 2.7c-.2 0-1.8-1.3-3.5-2.9-7.5-6.8-8.4-7.3-7.8-4.4m55.3-.7q-.5.9 1 .4 2.6-1.2.6-1.4-1 0-1.6 1m21.3 2.6c-1.6.8-2.8 1.7-2.8 2q.2.3 2.8-1l4.2-1.9q2-.6 0-.6c-.8 0-2.7.7-4.2 1.5m6.9 0q.8 1.8-.6 1-1.4-1.1-.2 1.3 1.5 2.4-.4 1.5-1.4-.7-1.5-1.5c0-1-1.4-.8-6.2.6q-2.5.7-2.2 1.6.3.8-1 .3c-1-.4-2.7.1-4 1-1.4.9-3.2 1.3-4.1 1q-1.6-.5-3.1 1.2-1.4 1.6-1 .6c.9-1.5-.2-1.5-4.3-.1-3.6 1.3-3.8 2-1 4.4 1.9 1.8 2 1.7 5.6-1.9 2-2 4-3.2 4.3-2.6.6 1 9.5.5 13.3-.6q2-.5.7-1.9-1.2-1.2.7-2.6 2-1.8.8 0-.9 1.5.5.6t.5 1.4c-.7 2.2-.6 2.2 2.4.7 3.7-2 4.1-2 4.1 0q-.1 1.3-1.1.8-1.2-.7 0 1.4c1.3 2.4 6 3.5 6.8 1.6q.4-1.4-.6-2.8-.9-1.2-.6-1.8c.3-.3-1-1.6-2.7-3-5.1-3.8-5.9-4.1-5.1-2.2m-15.2 0-4.4 1-2.4.5 2.1 1.5c2 1.4 2.4 1.3 4.7-.3 1.3-1 2.5-2.1 2.5-2.6q0-.6-.2-.6zm101.5.4q0 .8 1 .4 1-.6 1-1t-1-.5-1 1m-69.8 1.2q-1.1 1.3-1.2 2.5t-1.2 1.3q-1.4 0-.2.8c1.8 1 3 7.2 3.3 16.4 0 2.1.5 3.8 1 3.8 1.1 0 1.4-24.7.3-25.4q-1-.4-2 .6m-76 1c.6 1.8 2.5 2 2.5.3q-.2-1.4-1.4-1.5-1.3 0-1 1.2m3.7 0c0 1.3 2.9 1.6 3.4.3q.5-1.3-1.5-1.2-1.7.1-1.9.8m5.2 0q.5 1.2 1.7 1.7 1.3.4 1-.9-.6-1.2-1.8-1.7t-1 .9m4 .6c0 1.5 0 1.6.9.3q1.1-2 1 .4c0 2.1 1.3 1.4 1.6-1q0-1.3-1.7-1.4-1.8 0-1.9 1.8m17.8-1.1c.6.2 1.8.2 2.4 0q1-.5-1.2-.5t-1.2.5m30.6.8c1.1.8 2.5 1.5 3 1.5q.8-.2-.8-1.5a8 8 0 0 0-3-1.5q-.8.2.8 1.5m18.6 11c0 9.7.3 12.6 1.3 12.3.7-.3 1.2-2.4 1.3-5.4 0-2.7.3-6.7.5-9 .1-2.1 0-4.5-.5-5.2q-.6-1 .3-1.2c1.6 0 .5-3.5-1.2-3.8-1.5-.3-1.7 1-1.7 12.3m-173.3-9c.5 2.5 2.8 4 3.8 2.5.8-1.3-1.3-5-2.9-5q-1.4 0-.9 2.4m120.7.5c.4 3.1.5 3.2 3.4.5l2.3-2.2-3-.4c-2.6-.4-2.9-.2-2.7 2.1m8.6-1.4q.1 1.4 1.6 1.5 2 .1.4-1.5-1.2-1.4-1.6-1.5-.3.1-.4 1.5m51.5.5q.6 1 1 1t.5-1-1-1-.5 1m-54 1q-.4 1 .4 1 1 0 1.1-1 0-1-.4-1-.6 0-1.1 1m80.5 0q-2 1.2 0 1c.9 0 3.2.9 5.3 1.9 4.3 2.2 4.9 1.2 1-1.8-2.9-2.3-4-2.5-6.3-1.1m34 0q-1.4.7-2.2.4c-1.4-.9-2 2.4-1 4.3 1 1.6 1.1 1.6 1.2-.5q0-2.3 2-3 1.8-.4 2-1.3c0-1.1-.1-1.1-2 0m-83.5 1.1q.4 1-.6 1c-1.9 0-.5 1 2 1.5 2.3.4 2.3.4.6-1.5-2-2.1-3-2.7-2-1m-92.5.9q.2.8 2.5 2c2.2.9 3.2.8 6.3-.9 4-2 3-2.8-1.3-.8-1.9.8-3.1.8-5 0q-2.3-1-2.5-.3m-28.8 1.3c-1.4 1.7-1 10.8.4 10.8 1.5 0 2.8-8.5 1.6-10.5-.7-1.3-1-1.4-2-.3M196 331q-1.3.9-.9 1.4.7.4 2.5-.9c2-1.6.8-2-1.6-.5m15 0q0 1-1 .5t-1 1q-.1 2 1.3.6 1.4-1 2-.4.7.4.7-.5t-1-1.7q-1-.4-1 .5m14.5 0q-1.8.8-1.3 1c.3 0 1.3.2 2 .5q1.4.5 1.5-1l-.1-1.4zm20.8.1a6 6 0 0 0-1.3 3.7c0 2.6-3.8 10.2-5.2 10.2-1.1 0 .4-3.3 2.1-4.7q1.4-1.1.9-1.9c-.4-.4-1.5 0-2.4.7q-2 2-1-1 1-2.4-.5-1.9-1.3.6-1.1 2.6c.2 1-.2 2.3-.8 2.7q-.9.6-1 1.7.1.9 1.7-.3c1.5-1.3 1.5-1.2 0 1.7a21 21 0 0 1-4.7 5.7c-1.6 1.4-3 2.7-3 3q.2.3 2.8.5 2.7.2 1.4-.7-1.6-.9.3-1.5 1.4-.6 1-1.6-.6-.9 1.1-.3 1.6.6 1-.4c-.3-.6.2-1.7 1.2-2.4q2.3-2 .3.4-1.1 1.6-.5 1.7c.5 0-.2 1-1.6 2.1q-3 2.4-.5 1.4c1.1-.5 3.3-1 5-1.3 2.7-.5 2.9-.3 1.6 1.2q-1.4 1.5-2 .8c-.9-1.3-5.6 1-5.6 2.8q-.2 1.4-2.5 2.2-3 .8 1 .4c2-.3 4.4-.8 5.4-1.2q2.1-.9 1.1.6-.8 1.3.4.6 1-.7.6-1.5c-.5-1 .7-2.4 5.1-6.4 3.6-3.3 5.4-2.1 2.3 1.4-1.8 2.1-2 2.2-1.4.4q.9-2.5-.7-.5l-2.8 2.7q-2 1.6.5.6c2-.6 2-.6 0 1.8q-1.3 1.8 2.3-1.6a21 21 0 0 0 5.1-7l1.5-4.6q.8-1.5-3-3.2c-2-1-4-1.5-4.5-1.2-1 .7-1.3-.8-.3-1.7.3-.4 3 .4 5.8 1.7l5.3 2.4 1.2-2.6c.7-1.4 1-2.8.6-3.1q-.5-.4-.5.8 0 1.1-.7.7t-2 .4q-1.3 1.2-1.3.1c0-.6-.3-1.9-.6-2.9q-.7-2 .4-.4c1.2 1.7 3.2.6 3.2-1.8q.1-2-3.5-2.3c-3.6-.4-4.2.4-3.5 5.2q.1 1.5-.8.5a8 8 0 0 1-1.4-3.8q-.1-3.3-1.6-1.6m16.8 0c0 1.3 1.5 1.8 2.9 1q1.5-.9-.8-1.4-2-.4-2.1.3m23 .8q.1 1.6 2 2c1.7 0 1.8-.2 1-1.9-1.3-2.4-3-2.5-3-.1m-236.4 1q-.7 1.4.6 3c.8 1 2 3.3 2.8 5.2s2 4.2 3 5 2.2 2.4 2.8 3.5q1 1.7 1.2.8c0-.7-.9-2.2-2-3.3q-1.8-1.9-2-2.5l-2.9-6.7q-2.7-6.1-3.5-5m102.3 1.9q-1.9 2 .3 1 1.6-.4 2.2.6.4 1 .5-.5c.1-2.5-1.5-3-3-1.1m115.6-.7q.5.9-1 .4-1.4-.4-1.5.5.2 1 2 1.1 1.8-.1 2-1.5-.1-1.4-1-1.5-1 0-.5 1m-124.5.8q.1.8 1.5.9t1.5-.9q-.1-.7-1.5-.8-1.4.1-1.5.8m4 .2q.1.8 1.5.4 1.4-.6 1.5-1-.1-.3-1.5-.4-1.4 0-1.5 1m38.5.8q-.6 1.4 1 .8l2-.6q.5-.1.5-.8c0-1.5-2.9-1-3.5.6m39.2-.4c-1.3 1-1.7 2.8-1.7 8 0 3.6.4 6.6.9 6.6q.7-.2.7-2.2c-.1-1.3.4-4.8 1-7.8s1.2-5.6 1-5.7c0 0-.9.4-1.9 1.1m-43 1q-1.7 1.8-2 .3-.5-.9-.6 1c0 1.7.3 2 2.2 1.5s2-.4.9 1c-1.5 1.9-.7 7.8 1 7.8q.9-.2.3-1.7c-1.3-3.4-1.6-4.8-.4-2.6q1.2 2.1 2 2.3c.6 0 .5-1-.2-2.1a14 14 0 0 1-1.1-5.5c0-3.9-.1-4-2.1-2m10.6 1.5c-1.8 2-2.2 2.3-2.3.9 0-2.6-3-1-3 1.6q0 3-1 .1-1-2.4-1-.3c0 .9.3 2.4.6 3.2 1 2.4 3.3 0 2.8-2.7q-.5-2.4.3-.5c.7 1.5 1.1 1.4 3.6-.8 1.6-1.3 2.7-2.8 2.5-3.2s-1.3.3-2.5 1.7m-114.8-1q.4 1-.9.5c-1.9-.7-5.6 1.3-5.6 3q.2 1.3 2 1.9c1 .3 2.4 1.7 3 3.2.9 2.4 1.4 2.6 4.3 2 1.7-.4 3.5-1 4-1.2 1.3-.8-.3-2.3-2.4-2.3-1.6 0-2-.6-1.8-2.8.4-3-.6-5.2-2.2-5.2q-.9 0-.4 1m134 2.5c.8 1.9 1.5 5 1.5 7 0 1.8.4 3.6 1 4q.8.6.1 2.8c-1.5 4.1 1.2 6.8 4 4 1-1 1.7-1 3.3.5q2.4 2.1.8 0a4 4 0 0 1-.5-3.4q1-2.4-1-.5c-1.4 1.1-2 1.1-3.4 0q-2-2.2-1 1.4.8 2.8-.3 2.2c-1.3-.8-1.3-4.2.1-5q1-.5 2 .6c.8 1.2 1 1.2 1.8 0 1.1-1.8 3.1-.5 3.1 2q0 1.7 1 1.9c1.6 0 1.2-3.7-.7-5.5q-1.6-1.6-5-1.3c-2.8.3-3.3 0-3.4-1.7l-.6-4.5-.6-4.7q-.2-1.9-1-1.6-.6.3-.7-.6 0-1-1-1.1c-.5 0-.2 1.6.6 3.5m-34.4-.5q0 2.2.5 1.3c.2-.7.2-1.9 0-2.6q-.5-.8-.5 1.3m18.7-.7L188 345l-6.1 5.4 2.4 3c1.3 1.8 3.2 3.2 4.2 3.2s2.6.5 3.4 1q1.6 1.1-.4-2l-2-3 2.2 1.9c2.3 2 3.1 1 1-1.2-1.5-1.5-2-5-.8-5.7q.9-.5.3 1.1-.7 1.8.5 1 1.1-.6.7.6c-.3.7 0 2 .5 2.8.9 1.3 1.1 1.3 2 0q.7-1.4.4-2.2t1-1.4 1-1.5q-.4-.8.7-.9 1.5 0 .2-1.1c-.6-.6-.9-1.8-.6-2.7q.8-1.6-.7-.7-1.4.9-.5-.5.7-1.6 2 .3 1.2 1.6 1.7 1.7c1 0 1.5-3.8.7-5.1q-1-1.7-1 .1 0 1.5-.9-.5l-.9-2-.1 2q0 2.6-.8.3c-.6-1.3-1-1.4-2.3-.5m38 1.4q-2 2.4.3.4c2.1-1.6 2.4.1.4 1.8-1.5 1.3-1.8 5.1-.4 5.1.8 0 1.2-1.6.9-3.4-.1-.4.4-1.5 1-2.2q1.2-1.5.2-2.5t-2.4.8m-58.8.9q0 1.7.6.6.4-1.2-.1-2-.6-.3-.5 1.4m31.9-.7a2 2 0 0 0 1 1.6q1 .5 1-.4a2 2 0 0 0-1-1.6q-1-.5-1 .4m-39.5 1q-.5 1 1 .5 2.6-1.2.6-1.4-1 0-1.6 1m36.5-.2c0 .5 1.1 2 2.5 3.2q2.3 2 2.5 1.3-.1-1-1.5-1.7a3 3 0 0 1-1.5-2q0-1.6-1-1.6-1 .1-1 .8m-103 1.6c-1 1.3-1 2 .1 3.3q1.8 2 0 .8-1.6-1-.8 1l.7 2c0 .3 1.2.5 2.8.4q2.4 0 1.5-.6-1.3-.3.8-2.6c1-1.2 1.8-2.8 1.7-3.7-.4-2-5.2-2.5-6.8-.6m39 .1q.1 1.4 1.5 1.5 1.4-.1 1.5-1.5-.1-1.4-1.5-1.5-1.4.1-1.5 1.5m5.2-.6q-1.6 1 .2 1.4 1.6.6 1.6-.8c0-1.7 0-1.7-1.8-.6m4.4 0q-.5.8 1 1.5 1.3.5 1.4-1c0-1.5-1.6-2-2.4-.5m4.4.6q0 1.4 1 1.5 1-.1 1-1.5t-1-1.5q-1 .1-1 1.5m25.1-.7q-.1 1.1-1.2.6t-.7.2q3 6.5 4 6.4.8 0 .2-1.2c-.4-.6-1-2.5-1.5-4.2q-.6-2.7-.8-1.8m66.9.2c0 .3-.7 1.5-1.5 2.6-1.5 1.9-1.5 1.9-.8-.1.7-2.1.5-2-1.7 1q-2 2.2 0 1 1.5-1 .7.8-.4 1.5.2 2.2c1.1.6 3.3-2 2.4-2.8q-.4-.6.6-.7 1-.2.8-1.2c-.2-.7.3-1.8 1-2.4 1.4-1 1.3-1 0-1q-1.6 0-1.7.6m14 0q0 .9 1 1.5t.4-1q-1.2-2.6-1.4-.6M92 343q.2 1 2.5 1t2.5-1q-.2-1-2.5-1t-2.5 1m101.2 1q0 2.2.5 1.3c.2-.7.2-1.9 0-2.6q-.5-.8-.5 1.3m-124.3 1.4c-1.6 3.4-.4 7 2.6 8.4q5.3 2.6 6.2-.6a6 6 0 0 1 1.7-2.4q.8-.7-1.1-.8-2.3.1-3.7-3.5c-1.7-4-4.2-4.5-5.7-1m133.7-1c-.3.8-.3 2.3 0 3.3q.8 2-.4.3-1-1.5-1.7-.1c-.4.6 0 2 1 3 2.1 2.4 4.3 2.7 2.5.4q-1.2-1.3-.4-1.3 3.2.6 1.3-1.8-1.2-1.5-.2-1c1.7 1 2.7-1.1 1.3-2.8q-2.3-2.8-3.4 0m51.4.6q-1.2 2.2-.1 1.5c2.5-1.6-.4 3.7-4.8 8.9q-3.5 3.9-.3 1c2.6-2.1 8.2-10 8.2-11.5 0-2-2-2-3 0m4.8.9q1.6 1-.2 1.4-1.5.7-1.6 1.8c0 .7-.8 2.2-1.7 3.3-1 1.2 0 .5 2.1-1.5 3.6-3.4 4.1-6 1.3-5.9q-1.2 0 .1.9m27.2.2q0 .8 1 .4 1-.6 1-1t-1-.5-1 1m-193.8 5.4c.1 3 .6 5.2 1 5q.7-.3.8 1c0 2.2 3.6.3 4.4-2.2 1-3-2-9.2-4.4-9.2-1.8 0-2 .6-1.8 5.4m14.6-2.3q-1.7 2.7-3.8 2.9-2-.1-2 2.3c0 1.2-.7 3.3-1.6 4.5q-3 4.6 2.2 2.4 2.3-1 2-.3-.4.9.8 1.4 1.5.5 2.5-2.5c.6-1.7.9-3.4.6-3.6q-.5-.4-.5.5c0 1.2-3.6 2.4-4.4 1.5q-.3-.6 2.3-2.3 2.9-1.6 3.4-5.5c.8-4.8.6-5-1.5-1.3m121.4-.1q0 3 .5 1.8c.2-1 .2-2.6 0-3.6s-.5-.1-.5 1.8m-41.9.5q.1 1.3.5 1 .6-.4 2.1.7t-.3-1c-2.3-2.6-2.3-2.6-2.3-.7m97.2-.5q-2.9 1 .4 1.4 1 0 1.7.9a3 3 0 0 0 1.8.7q.8-.1-.4-1c-1.3-.9-1.3-1.1 0-2q2-1.2 0-1c-.8.1-2.4.5-3.5 1M151 350.5q.1 1.4 1.5 1.5 1.3 0 .9-1.5-.7-1.4-1.5-1.5-.8.1-.9 1.5m5 0q0 1.4 1 1.5 1-.1 1-1.5t-1-1.5q-1 .1-1 1.5m20.5-.6c-.6 1.1 1.3 2.6 2.2 1.7q.4-.5-.6-.6-1.1 0-.6-1t.1-1-1 1m-112.8 2c2 2.5 7.1 5.4 8 4.6q.4-.5-.6-.6c-.6 0-2.5-1.4-4.2-3-3.5-3.4-5.9-4-3.2-1m18.7-.7a5 5 0 0 0 0 3.4c.8 1.7.8 1.7 1.2 0a9 9 0 0 0 0-3.4c-.4-1.7-.4-1.7-1.2 0m59.5-.3q.1 1 1.5 1t1.5-1q-.1-1-1.5-1t-1.5 1m4 0q.1 1 1.5 1t1.5-1q-.1-1-1.5-1t-1.5 1m38.8 1.6c1.1 1.7 2.8 3 3.6 3q1.3 0 1-.8-.6-.6-1.6-.2-1.2.8-.4-1.2.6-1.6 0-1.1-.8.6-2.8-1c-1.9-1.7-1.9-1.6.2 1.3m13.3-1.2c-.7.8-1 2-.5 2.7q.6 1.1-.3.6-1-.5-1.6.7-.6 1.4 1.8 1.4c2 0 2.3-.5 1.9-2.7q-.5-2.7.5-1.2c.5.8.8 2.2.6 3.1-.3 1.4.6 1.7 4.3 1.8q5 .3 3.2-.8-2-1.1.3-1 1.6-.1 1.7-1-.1-1-.8-.6c-.4.2-1.4-.4-2-1.5q-2-2.7 1-.8 3 1.7.9-.5c-1.9-2.2-3.6-1.5-3.6 1.5q0 2.3-1.5 2.4-1.3-.1-1.3-1.1 0-1.2-1.6-2.8c-1.6-1.5-2-1.5-3-.2m30 3.2q0 1.7.6.6.4-1.2-.1-2-.6-.3-.5 1.4m-44.8 1c1 1.1 1.4 2.3 1.1 2.6q-.4.6.4 1.2c1.8 1.1.8-2.5-1.2-4.1q-3-2.8-.3.3m54.7-.1q-2.2 1.3-1.4 1.5c.5 0 1.9-.7 3-1.5 2.4-1.8 1.6-1.9-1.6 0m48-.4q-.1 1-1.4.6c-.8-.3-2 0-2.6.9q-1.5 1.4 0 1.4 1 .1.4 1.1-.8 1.2 2 .7c1.4-.3 2.6-.1 2.6.3q.1.8.8.9c.4 0 .6-1.6.4-3.5-.4-3.1-2.2-5.1-2.2-2.4m-54.2.6q1.2.4 2-.1.3-.6-1.4-.5t-.6.6m-152.6 1.5c-.6.6-2.4 1.2-3.9 1.4-4.8.4-4.9.5-1 2 4.5 1.6 5.3 1.3 6-2 .5-3 .5-3-1-1.4m115.5 1.8c-1.2 1-1.9 2-1.4 2q.8.1-.9 1.3-2 1.5-.5 2.2 1.4.9.5-.5-1-1.3 1.6-.5 2.1.5 1.4-.2c-.6-.4-1-1.5-1-2.3 0-1.1 1.1-1.5 4.5-1.3 2.5 0 3.8-.1 3-.4l-3.2-1.4q-1.5-1-4 1m89.2-.9q0 1 1 1t1-1-1-1a1 1 0 0 0-1 1m-202 1.6q.1 1.3 1 .9 1-.6.5-1.6-1.4-2-1.5.7m136-.1c-1 1.3-.8 1.5 1.5 1.5s2.6-.2 1.5-1.5l-1.5-1.5zm-27.5.5q-.7 1-1.6.5-.8-.5-.9.4c0 2 1.6 2 2.8 0 .7-1 1-1.9.8-1.9q-.6.1-1.1 1m17 0q-2.8 1 .8 1c1.5 0 2.7-.4 2.7-1 0-1.2-.8-1.2-3.5 0m-39.5 1q-1.4 1-.3 1c.6 0 1.5-.4 1.8-1q1.3-1.8-1.5 0m-20 .9q.1.9 1.6 1.5c2.2.9 2.4.8 1.8-.9-.7-1.6-3.4-2.1-3.4-.6m5 .1q.1 1 1.4 1c.8 0 1.8-.4 2.1-1q.4-1-1.4-1-2 0-2.1 1m10 .5q.1 1.6 1 1.3 1.1-.4 1.2-1.3-.1-.9-1.1-1.3-1-.2-1.1 1.3m37.8 2.2c1.2.2 3 .2 4 0s-.1-.5-2.3-.4q-3.5 0-1.7.4M82 372.5c-1.2 1.4-1.2 1.8 0 2.6q1.5.9 1.8-.6c.6-2.8-.3-3.8-1.8-2m3.5.4c-1.2 1.1-.3 2.1 1.8 2.1q2.3-.1 2.4-1.4c0-1.3-3.1-1.8-4.2-.7m6.5.6q0 1.6 1.8 1.3c2-.4 2-2.2-.2-2.6q-1.5-.2-1.6 1.3m5 .6q.1.8 1 .4.9-.6 1-1-.1-.5-1-.5-.9.1-1 1m69 1.9q.1.8 1.5 1.5 1.5.5 1.5-1-.1-1.2-1.5-1.4-1.4 0-1.5.9m5 .1q-2 1.1.3 1 1.6 0 1.7-1c0-1.2-.1-1.2-2 0m8.5 0q-.3.8.5 1.5.9.5 1-1 0-2.6-1.5-.6m-75 13c-1.1.5-2.3.7-2.7.4s-.7 2.4-.7 5.7c0 5.2.3 6 2 6q1.7.1 2.4 1c1.2 1.9 2.5 0 2.5-3.6 0-2.6-.4-3.4-1.8-3.4q-1.6 0-2-2.1c0-2 0-2 1.2-.4s1.3 1.5 1.4-1.4l-.1-3zm120 0q.5 1-1 .5t-1.5 1-1 1.6-1 1.5c0 1.4.3 1.3 2.8 0q2.7-1.7 1-.2T222 398q0 3 .6 1.6c.5-1.8 2.5-2.4 2-.6q.2 1 2.3 1.4c1.4 0 3 .3 3.5.5.6.1 1.9.2 3 .1q2.2 0 .6-1c-.7-.5-1.3-2-1.3-3.5 0-1.4-.6-2.6-1.2-2.6q-1 0-.1-.8c2-1.4.7-5.1-1.7-5.2-.6 0-2.8 5.6-2.8 6.9q.2.4 1.6-1.4c1.6-2 1.6-2 .9.5-.4 1.3-1.4 3-2 3.7-1.2 1.1-1.3.4-1-4.2.2-4.2-.1-5.5-1.2-5.5q-1.2 0-.8 1m20.5 1.4c0 1.3.7 3 1.5 3.6s1.5 1.8 1.4 2.4q0 1-.6-.1c-.8-2.2-2.3-1.4-2.3 1.2q-.1 2.6 2 2.5c1 0 2.5.3 3.4.6 1.3.5 1.6-.1 1.6-3 0-3-.4-3.6-2-3.6q-2 0-1.5-1 .4-.8-.6-1.6-1.2-.6-.5.4.5 1.1-.4 1.2-1.2 0-.6-2.5.6-2.3-.4-2.5-.9.1-1 2.4m3-1.3q0 .8 1 .4t1 1.4q0 2 .8 2.1.7-.2.7-2.5 0-2.5-1.7-2.5-1.7.1-1.8 1m-132.2 2.5q.5 2.7-1.3 2.5-2-.1-.5 1.5c1 1.3 1 1.9-.5 3.5q-1.5 1.8-.7 2c.6 0 1.8-1 2.6-2.2l1.5-2.1 1.9 2.2c1 1.4 2.6 2.2 3.8 2 1.6-.4 1.4-.8-1.3-2.2-3.6-2-4.3-4.3-1.5-5q1.8-.5-.6-.6c-1.9 0-2.2-.5-1.7-2.1q.7-2-.8-2t-1 2.5m124.7-1.7c-.6.4-1.4 2.7-1.7 5.2-.5 3.8-.4 4.2.7 2.8 1.7-2.3 2.8-2.3 2.4-.2q-.2 1.6 1 2.1c.9.3 1.1-1 1-5.1-.3-5.4-1-6.4-3.4-4.8m-143.6 1q-1.5.4-1.6 3c0 1.5-.2 3.8-.6 5.2l-.7 2.5 2-2.5q2.2-2.7 1.9-.8-.2 1.6.7 1.5c1-.2 1.5-8.6.5-9a5 5 0 0 0-2.2 0m-27 1c-2.8.4-4 2.3-1.5 2.3q.9.1-.5 1c-1 .6-1.8 2.1-1.8 3.4 0 2 .5 2.2 4.2 2.1 3.3 0 4.3-.5 5-2.3.5-1.7.3-2.4-1.3-3.2-1-.6-2.4-.8-3-.5q-.8.5-.9 0c0-.3 1-1 2.2-1.4 2.7-1 1.2-1.8-2.5-1.3m10.6 3c0 3.6.2 4 2.8 4.4 1.6.3 2.9 0 2.9-.4q-.2-.7-2-.8c-2 0-2.8-2.6-1-3.2q1-.5-.8-2.1c-1.9-1.7-2-1.7-2 2.2m108.5-3.2c-1.2 1.2-.7 4.9.9 6.9q2 2.8.4-.5a9 9 0 0 1-.7-4.7c.5-2.6.4-2.8-.6-1.7m7 1.4c-1 1.1-1.7 3-1.5 4 .2 1.7 1.1 2.2 4 2.4 3.2.2 3.7-.1 4.1-2.4.7-3.5-.8-4.9-3.4-3.3q-2.1 1.4-1.4.2a7 7 0 0 1 2.9-2q3.1-1-.4-.9c-1.4 0-3.3 1-4.3 2m11.8-1.1q-2.6.7-1.3.9 1.8 0 2 3.9c.4 3.2.6 3.4 1.3 1.5q.7-2 1.6-1.7.8.4.9-.5t-1-1.1c-2 0-1-2.9 1.3-3.3q2.7-.4.2-.4a27 27 0 0 0-5 .7M61 393.5q0 1.7.6.6.4-1.2-.1-2-.5-.3-.5 1.4m28.7 1.3c.2 1.6-.1 3.2-.7 3.5q-1 .8-1 2 .1.8 1.4-.8c1.6-2.1 2-6.2.7-7-.5-.3-.7.8-.4 2.3m125.6 1.6c-1 3.2-1 3.5.3 2.2.8-.8 1.3-2.4 1.1-3.7-.2-1.7-.5-1.5-1.4 1.5m-15.9-1.2q-.6 1.6-.1 2.4c1 1 1.8-.4 1.3-2.4-.4-1.7-.4-1.7-1.2 0m-128 1.6q-.3.9.5 1.6.9.5 1-1 0-2.6-1.5-.6m33.7 1.1q0 2.2.5 1.3c.2-.7.2-1.9 0-2.6q-.5-.8-.5 1.3m89.8-1q0 1 1 .5t1-1-1-.5-1 1m34.7.5q-.5 1.4.3 2 1 .4 1-1.4-.1-3.7-1.3-.6m18.5.1c-1 1.2-1 1.4.8 1.4 1 0 2-.4 2-1 0-1.6-1.5-1.8-2.8-.4m-187.2.6q.1 1.7 1 2.3c1.3.8 1.3-.5 0-2.5q-1.1-2-1 .2m6-.2q.1 1 1 1t.5-1-1-1-.5 1m10 2q.1 1 1 .5t1-1q-.1-.5-1-.5-.9.1-1 1"/></svg>