<svg xmlns="http://www.w3.org/2000/svg" viewBox="0 0 300 486"><path fill="#9c344c" fill-rule="evenodd" d="M0 126v126l17.8.2 36.6.3h18.8l.3 30.5a246 246 0 0 1-1.2 39.3c-2.5 15.4.5 31 7.6 39.1 4.3 5 25.3 14.8 39.7 18.6 3.5.8 4.4 1.6 5.7 4.9.9 2 1.9 8.2 2.3 13.7s1 9.1 1.2 8.1c.4-1.8 4.2-2.5 4.2-.7q.1 1 1.5 1 1.4-.2 1.5-2c0-1.9.5-2 4.3-1.8q4.3.2 3.9 1.7c-.5 2.1.7 6.1 1.8 6.1.5 0 1-1.7 1.2-3.7l.3-3.8 12.3-.3c7-.1 12.2-.7 12.2-1.2q0-1-.7-.9c-3 .5-9.3-.3-9.3-1.2q.1-1 2-.4 3.5 1 3.3-5-.1-3.1.4-.7.5 2 1.4 1.7.8-.5.9.8c0 1.7 2.5 4 4 3.5s-4.3-10.9-7-12.4c-1.4-.7-4-1.4-6-1.4q-3.3 0-2.2-.9c.7-.4 2-2.3 3-4.2q1.7-3.4 4.2-3.7 5.4-.9 4.5-4.3c-1-2.8.4-4.3 2.3-2.7.8.7 2.2 1.3 3.1 1.4l5.6.3 4 .2-3.4 1.5c-6.5 2.8-2.3 2.4 5.3-.5 8.3-3.2 23.5-11.9 27.8-16a33 33 0 0 0 6-10.5l3.3-8.1V316c0-12.4.4-23 .8-23.8.5-.7.3-6.1-.4-12-1-8.4-1-12.6 0-18.7.6-4.3 1.3-8 1.4-8.1l36.6-.9c20-.3 36.8-.8 37.3-1.1s.8-57 .8-126V0H0zm.5.5c0 69.3.1 97.5.3 62.7.1-34.9.1-91.6 0-126-.2-34.5-.3-6-.3 63.3m138.2-88.4c-2.8 2.2-3 3.5-.8 5.8 1.1 1.3 1.5 1.2 2.4-.5.6-1 1.2-2.4 1.2-2.9s1.6-1.8 3.5-2.7l3.5-1.8h-3.6a11 11 0 0 0-6.2 2m-8.4 5c-1.3 1-4 5-5.9 8.9s-4 7.4-4.5 7.7c-1.2.7-1.1 2.4.1 2.4q1-.1 2-2.4a7 7 0 0 1 2-3c1.3-.9 1.3-.4 0 2.8-.5 1.4-.7 2.6-.5 2.6.3 0 1.2-1.8 2.1-4s1.8-3.9 2-3.7c.3.3 2-1.1 4-3 3.3-3.4 3.4-3.8 2.4-7l-1.3-3.3zm3.1 9.6c-7 10-7.7 9.4 11.1 9.4H161v3c0 1.7.5 3 1.3 3 .6 0 2.2.3 3.5.7 2.3.6 2.3.4-.9-4.7a84 84 0 0 0-8.3-10.8c-5.1-5.4-5.2-5.4-12.1-6l-7-.4zm-.6 16.7-.3 2.9c0 1.4-.5 3-1 3.5q-.8.7-.2-.5.8-1.2-2.3-1.2c-3 0-3.1.2-3.1 3.9 0 8.6 2.8 14 5.2 9.8q.8-1.8 5.4-1.7c3.7 0 4.7.4 5.1 2s1.4 2 4.8 2c4.1 0 4.3-.1 4.9-3.7.3-2.1.6-5.7.6-8 0-3.9-.2-4.3-2.4-4.3q-2.4 0-3-2-.8-1.7-2.3-2.5-2.3-1 .1 1.4c1.7 1.9 1.7 2-.4 1.4-1.2-.3-2.4-1.2-2.7-2-.4-1-8-2-8.4-1m28.8.4q-2.2 2.2 2.3 2.3c3.2 0 4-1.4 1.4-2.4q-2.8-1.2-3.7 0M137 73.2q-2.7 1-1.1 1.8 1.1.9.8 1.8t2.3.5c1.7-.2 2.8-.8 2.5-1.2q-.4-.8.5-1.5.9-.4 1 .4.1 1 1.3 1 .8-.2-1.2-2c-2.6-2.1-2.7-2.2-6-.8M166 83.5c0 3 2.5 3.4 3.3.6q.9-3.2-2-3.1-1.2.1-1.3 2.5M148.5 87q.6.9 1 1 .5-.1.5-1-.1-.9-1-1-1 .1-.5 1M129 96c0 1 .4 2 1 2q1-.1 1-1.4c0-.8-.4-1.8-1-2.1q-1-.3-1 1.4m25-1q.2 1 2.8 1.4l2.7.4-2.7.1q-2.9.1-2.8 2.2c0 1.8.6 2 6.3 2 3.4-.1 5.6-.4 5-.7q-1.5-.3.3-2.8c1.3-2 1.3-2.3-.1-2.9-2.6-1-11.5-.7-11.5.3m15.3 3.1c-.6 1.7-.8 3-.3 3s1.3-1.3 1.8-3 .8-3 .4-3-1.3 1.3-1.9 3M131 99.8q.1 1 1.5 2.8c1.4 1.8 1.4 1.8 1.5-.8q0-2.7-1.5-2.8-1.4.1-1.5.8m10 4.7c0 2 .5 2.5 2.5 2.5s2.5-.5 2.5-2.5-.5-2.5-2.5-2.5-2.5.5-2.5 2.5m-25 2q0 3.5 1 3c.6-.4 1 1 1 3.2 0 2 .5 4.5 1 5.3q1.4 2 .7 0c-.2-.8 0-2.7.4-4.2.4-1.6.4-2.8 0-2.8s-1.1-1.8-1.5-4c-.8-5-2.6-5.3-2.6-.4m44 1.4q.1.9 1 1 1-.1.5-1t-1-1q-.5.1-.5 1m4 6c-.6 2.2-1.5 4-2 4q-.9.2-1.5 2c-.6 1.9-.8 1.9-2.8.5a10 10 0 0 0-5-1.5c-1.4 0-2.7-.5-2.7-1q0-1 1-.6c.4.4 1.6.3 2.5 0q2-.7.3-1.5c-1-.7-1-1 .2-1.9q1.8-1-2.6-1c-2.3 0-6.8-.3-10.1-.6l-6-.7-.7 4.3q-.6 4.2-3.6 7a93 93 0 0 1-24 11.1c-12 4.2-15.4 10-19 32.4l-4.4 28c-1.3 8.8-3 20.3-3.5 25.5s-2.2 14.4-3.6 20.5L74 252.1c0 .4 5.3 1 11.9 1.4l11.8.7.6 5.9a53 53 0 0 1 0 10.3c-.6 5 .4 15.6 1.6 15.6 1 0 5.1-13 7.6-23.5 1-3.9 2.2-7.6 2.9-8.2.8-1 10.3-1.3 38.6-1.3h37.5l-.3 5.2c-.2 3 0 7.3.4 9.8.5 3.7.8 4.1 1.5 2.5q1-2.5.6 1.3c0 1.8.3 3.6.9 4s2 3.7 3 7.4c1.8 6.7 3.4 8.8 3.4 4.8 0-1.2 1.3-8.6 3-16.7 3.9-18.9 4-18.3-1-18.3-4.7 0-7.2-.9-6.4-2.2q.6-1-2.5-.3c-2.6.6-3 .4-2.5-1q.7-2 1.6-.3.9 1 .3-4.7c-1.2-12.5-1.3-33.4-.1-33.2.6.1 1.2-1.4 1.4-3.6.2-2 .8-3.7 1.4-3.7q1-.2.5-2t.3-2c.5 0 1-1.7 1.3-3.7a169 169 0 0 0 5.2 41.3c.8 2.7 1.7 6.7 2 8.9 1.1 6 1.9 6.5 9.6 6.5 5.7 0 6.9-.3 6.9-1.6q.1-2-1.5-.4t-1.5-.4q-.1-1.5-1.5-1.6-1.5-.1-1.4-2.2 0-2.5.6-.6c.8 3 2.3 2 2.3-1.6 0-1.9.6-3.7 1.3-4q1.5-.6 0-1.2c-.7-.3-1.3-2.1-1.3-4s-.4-3.4-.8-3.4q-.9-.1-1-1.2l-.7-7.8c-.3-3.7-.2-7.1.4-8q1.9-2.8 2.3 2.6c0 1.6.6 3.5 1.1 4.2q.8 1 .4 1.2c-.4 0 0 1.8.8 4 1.3 3.8 2.5 9.9 4 19.7.4 3.7.3 4.2-1.1 3.6q-1.7-.7-1.2.8c.5 1.5 5.8 2.6 5.8 1.2l-3-12.3c-3.6-13.2-4.5-22.5-6-58-1-26.4-2.4-35.1-6-39.8-1.8-2.2-1.9-2.2-1.7-.3q.1 2 .8 2.1c1 0 2.9 5.9 2.9 9 0 1.5-.7 4-1.6 5.6l-1.6 2.9.6-2.7q.7-2.9-.7-2.8c-1 0-1.4-1.5-1.4-5.6q0-5.6-1.4-6.5-1.3-.8-.4-.9c1.7 0 1.5-3.7-.3-5.3a37 37 0 0 0-14-5.2c-4-.6-4.2-.5-5.2 2-.6 1.6-1 5.1-.8 8a52 52 0 0 1-4.5 19.6c-1 .7-1.2 7.2-.3 8.7q.6 1.1-.3 1.2c-1.8 0-3-3.7-3.2-9.2q-.2-4.6-.6-2.6c-.6 4-2 3.4-2.1-1 0-2-.4-5.8-.7-8.3a27 27 0 0 1 .5-9 67 67 0 0 0 1.6-11.3c.3-6 0-7.2-1.6-8.3a14 14 0 0 1-5-9.7c0-4.1-2.8-3.1-4 1.4m-16.5 1q-.5.9 1 1 1.3-.1 1.5-1 0-.9-1-1-.9.1-1.5 1m10.3 3.7q1.2.4 2-.1.3-.5-1.4-.5t-.6.6m-48.2 6.8q-1.4 4 .5 1.2 1-1.7.6-2.3-.4-.3-1 1.1M287 144.1c-1 3-1.6 11.7-.7 10.8.3-.3.8-2.7 1.1-5.4l1.1-6.7c.9-3-.4-2-1.5 1.3m-6-1.1q0 2 3 0 1.8-1.1-.7-1-2.1 0-2.3 1m-2.8 3q0 2.2.5 1.3c.2-.7.2-1.9 0-2.6q-.5-.8-.5 1.3m-233.5 3.8a29 29 0 0 0-1.2 5q-.8 4.7.4 3.8 1-.7 1.1 1.4.1 1.9 1 1.5 1-.7.1-2.2a15 15 0 0 1-.3-6q.6-6.2-1.1-3.6m-5.5 3.3c0 1.6.3 3.2.8 3.5s.8-1 .8-3c0-4.2-1.5-4.7-1.6-.5m-1 7.5q0 2.6.5 1.2c.2-1 .2-2.3 0-3q-.5-.7-.5 1.8m5.5 3.2q-.6.6-.7 1.7 0 .9 1.2-.2 1-1 .6-1.7-.5-.4-1.1.2m.5 10.3q0 2.2.5 1.3c.2-.7.2-1.9 0-2.6q-.5-.8-.5 1.3m252.3 11c-2.7 2.8-5.3 4.1-4 2q.4-1-1.4-1-2 .1-2.1 1.6c0 1.4-.8 1.5-4.7 1-4.7-.8-4.7-.8-3 1.1 1 1 1.7 3 1.7 4.1 0 2 .2 2 2 1q1.6-1.2 1.3-2.1-.4-.8.7-.5c.8.2 1.9 2 2.6 3.9l1.2 3.4.7-2.7q.7-2.6 1.5-2.3t1.5-.5c1-1.7 2.3-1.1 3 1.5 1.2 5.1 2.5 2.3 2.5-5.5 0-4.4-.1-8-.3-8s-1.6 1.3-3.2 3m-103.8 1q-.6 1.9-2.6 2-2.1 0-2.1 1.8c0 1-.5 2.3-1.2 3q-1.6 1.4 2.1 1.2c2.7 0 3.2-.3 2.7-1.6q-.5-1.7.8-2.8c1.7-1.4 3-5.6 1.8-5.6q-.9.2-1.5 2m-5.2 10q-.5 1 1 1 1.3 0 1.5-1 0-1-1-1t-1.5 1m-79.7 3.6c-1.2 2.1-9.8 47-9.8 51.3 0 1.8.6 2.1 4.8 2.1a15 15 0 0 0 6.4-1.2c4.3-3.4 5-24.2 1.4-41.7a35 35 0 0 0-2.8-10.5m168.8 8.1q-1 2 .5.6 1.1-1.2.7-1.8-.6-.4-1.2 1.2m-233.5 4q0 1 1 2.8.8 2.6.6-.7c0-1.6-.5-2.8-1-2.8q-.6 0-.6.8m-2.5 4q-1 1.9.5.5 1.1-1.2.7-1.8-.6-.4-1.2 1.2m148-.2q-.4 1.4.4 1.5 1-.1 1-1.5t-.4-1.5q-.3.1-1 1.5m-.4 5.5q0 2.2.5 1.3c.2-.7.2-1.9 0-2.6q-.5-.8-.5 1.3m-7.5 11c-.7 2.8-.4 3.3 1.7 2.8 1.2-.2 1.3-.7.2-2.7l-1.3-2.3zm4.8 7.9q-.4 1 .4 1 1 0 1.1-1 0-1-.4-1-.6 0-1.1 1m31.2.7-1 3.8q-.9 3.2.3 1.5 1-1.6 1-.2 0 1.1 1 .7c1.3-.8 1.3-5.2 0-6q-.7-.4-1.3.2m80.6 0c-1.7 1.2-1 4.7 1 5.1q1.8.6 1.7-2.7c0-3.2-.6-3.7-2.7-2.3m-44.6 2.6q-.7 1.4 1.4.9c2.2-.6 2.6-2.3.5-2.3q-1.3.1-2 1.4m-77.1 4.6q-.4 1 1.5 1 2 0 1.5 1-.4.8.4 1.4c1.7 1.1 2.2-1.2.5-2.8q-2.6-2.7-3.9-.6m8 0q-.4 1 1 1t1-1q-.6-1-1-1t-1 1m20.8 2.6c0 1.6 2.3 1.9 3.1.5q.4-.8-1.2-1.3-1.8-.4-1.9.8m-19.2 22q0 1.7.6.6.4-1.2-.1-2-.6-.3-.5 1.4m-22.1 25c-1.3 1.4-2 2.5-1.4 2.5 1.1 0 4.7-4 4.1-4.6-.2-.2-1.4.7-2.7 2.1m40 51.3q-.1 3 1 1.2c1.3-2 1.3-4 0-4q-1 .2-1 2.8m-10.8 1.5c-1.2 1.3-2.2 3-2.2 3.6s1.3-.1 3-1.9a23 23 0 0 0 3-3.6c0-1-1.9-.1-3.8 2m21.8-.4q0 1 1 1t1-1-1-1a1 1 0 0 0-1 1m-106 3.6q.2 1.7.7.6t-.1-2q-.5-.3-.5 1.4m100.4.4q-.4 1 .4 1 1 0 1.1-1 0-1-.4-1-.6 0-1.1 1m-7 1.9q-.5 1.2-.1 1.8c.9 1 1.9-.4 1.4-1.8q-.4-1.5-1.2 0m-3.1 2.8-1 2.3q-.1.5-.8 1.8-.7 1-.2 1.2c1 0 3.8-3 2.8-3q-.6-.1.7-1 1.5-1 .4-2-1-1.2-2 .7m-16.4 8.2q0 1 1 1.6.9.5.4-1-1.2-2.6-1.4-.6m-1.7 3.8c1 .2 2.5.2 3.4 0q1.3-.5-1.7-.5-3.1 0-1.7.5m-48.8 38c-3.2.7-8.4 3.6-9 5-.3 1 1.3 1.3 6.5 1.3h7v-3.5c0-3.5-.3-3.7-4.5-2.8m24.7 4.3c-2.4 5.2-1.4 6.5 5.2 6.8 5.7.3 5.8.2 5.2-2l-.6-3.6c0-.7-1.3-1.2-2.9-1.2s-3.1-.6-3.5-1.5q-1.3-3.5-3.4 1.5m14.9 7.3c0 2.9.3 3.7 1.7 3.8q2.2 0-.3.9c-1.5.7-1 .9 2.3 1 4 0 4.3-.2 4-2.2q-.2-2.3-3.2-2.8c-1.7-.3-3.2-1.4-3.7-2.5q-.8-2.4-.8 1.8m-50.4-.7q-2 2.3 1.9 2.4 2.4 0 2.2-1.2c-.5-1.5-3-2.2-4.1-1.2m21.5 5.1q.1 1.9 4.6 2.1c3.7.3 4.2 0 4.2-1.7 0-1.8-.6-2.1-4.6-2.1-3.8 0-4.5.3-4.2 1.8m-18.2 2.9c-5.1.8-5.5 1.2-3.3 3.6 1.1 1.2 2 2.9 2 3.7s.6 5.3 1.3 10c1.2 8.6 2.9 12.8 6 14.7a53 53 0 0 0 23.7 6.7c1.2.4 3.2.2 4.5-.5s3.6-1.4 5.2-1.6c5.6-.6 13.4-7.5 14.6-12.8 1.1-4.8 1.2-13.5.1-9.6a7 7 0 0 1-2.2 3.4c-2.2 1.3-7.2 0-6.6-1.7.6-1.4-1-3.6-2.6-3.6-.5 0-.7 1.4-.5 3q.6 3.4-1 2.5c-.7-.3-2.3-.5-3.5-.6-2 0-2 0 .3-1.2 2.5-1 2.5-1.1-1-1.5l-3.5-.4 2.5-1.3q2.7-1.4.8-1.5c-2.5 0-4.9 1.1-4.2 2.1q.4.8-.5.9t-1.1-1c0-.5-1.6-1.2-3.5-1.6-5-.9-3.5-1.8 2.3-1.5 2.7 0 6-.3 7.3-.8 2-.8 1-1-4.8-1.2-9.8-.2-9.8-.2-10-1.6l-.2-2.3c-.1-1.3-3.8-1.3-4.3 0-.2.4-3.2 1-6.8 1.1l-6.5.3-.3-3.2c-.2-1.8-.6-3.1-1-3zm39.2 1.3c0 1.4.5 3.3 1.3 4.3 1.3 1.8 1.4 1.8 2.4-.2q1.1-2 .1-2.6-.9-.4-1 .4c0 2.3-1.9 1-2.3-1.6q-.5-4-.5-.3m5.8-.1c0 1.1 2.6 2.2 3.4 1.4 1.2-1.2.5-2.3-1.4-2.3q-1.8 0-2 .9m5.8 7.4q1.3 1.3-.9 2.5-1.7 1.2-1.3 2.3c.9 1.4 4.4-2 4.4-4.3q-.1-1.7-1.6-1.8-1.8-.1-.6 1.3m3.4.7q0 2.2.5 1.3c.2-.7.2-1.9 0-2.6q-.5-.8-.5 1.3"/></svg>